<ttFont>
          <CharString index="0">
            rmoveto
            64 86 37 65 56 hvcurveto
            -63 callgsubr
            63 303 -85 -16 -58 -11 callsubr
            -82 -51 -77 -29 -43 hhcurveto
            -23 -16 13 27 hvcurveto
            36 80 329 22 vvcurveto
            13 -9 9 -19 callgsubr
            -16 -20 -56 vhcurveto
            4 -24 76 -8 rlineto
            -17 -100 -53 -198 -65 vvcurveto
            -70 38 -12 35 vhcurveto
            return
          </CharString>
          <CharString index="1">
            rmoveto
            -198 -79 -185 -165 -114 51 -50 108 43 47 12 24 44 hvcurveto
            -7 33 rlineto
            -9 -23 -29 -9 -25 hhcurveto
            -97 -29 26 91 23 2 27 6 30 hvcurveto
            188 103 65 103 66 -49 32 -56 hvcurveto
            -22 -48 rmoveto
            35 15 -26 -31 -83 -80 -44 -125 hvcurveto
            117 24 54 67 77 hhcurveto
            return
          </CharString>
          <CharString index="2">
            rmoveto
            224 117 201 214 127 -60 93 -158 -222 -121 -200 -211 -129 63 -95 157 hvcurveto
            9 48 rmoveto
            -104 -35 75 103 94 44 267 197 110 32 -79 -98 -144 -64 -218 -180 hvcurveto
            return
          </CharString>
          <CharString index="3">
            rmoveto
            -162 -118 -133 -229 -100 47 -52 103 -70 callsubr
            -28 callsubr
            hvcurveto
            -111 -465 rmoveto
            -63 -20 39 59 131 47 186 130 63 19 -39 -59 -131 -47 -186 -129 hvcurveto
            return
          </CharString>
          <CharString index="4">
            rmoveto
            23 -175 -62 -12 -5 -36 rlineto
            204 hlineto
            6 35 -62 17 -79 574 -53 -11 -283 -567 -3 callsubr
            87 176 rlineto
            21 43 rmoveto
            111 223 29 -223 rlineto
            return
          </CharString>
          <CharString index="5">
            rmoveto
            143 89 65 159 31 hvcurveto
            97 502 -2 callgsubr
            -229 8 callgsubr
            -71 -365 rlineto
            -43 -26 -51 -51 -93 hhcurveto
            -78 -24 50 70 33 5 36 8 39 hvcurveto
            45 231 83 19 5 33 rlineto
            -235 hlineto
            -5 -33 74 -19 -44 -228 rlineto
            -8 -41 -6 -40 -36 vvcurveto
            -93 38 -67 128 70 60 26 35 39 vhcurveto
            -12 -57 rlineto
            -127 -24 -59 -49 -97 hhcurveto
            -38 -46 13 21 -30 hvcurveto
            -4 83 rlineto
            -35 hlineto
            -36 -116 rlineto
            -34 54 51 -16 74 hhcurveto
            endchar
          </CharString>
          <CharString index="6">
            rmoveto
            -45 callsubr
            30 27 25 30 vhcurveto
            195 hmoveto
            -44 callsubr
            30 28 25 30 vhcurveto
            return
          </CharString>
          <CharString index="7">
            rmoveto
            87 16 41 166 rlineto
            91 71 157 179 210 vvcurveto
            17 -1 12 -3 12 vhcurveto
            -30 -47 -16 -20 -56 hvcurveto
            5 -24 56 -7 rlineto
            3 -8 1 -8 -14 vvcurveto
            -72 -33 -138 -142 -128 vhcurveto
            195 9 -43 240 -21 hhcurveto
            -31 -59 -14 -21 -56 hvcurveto
            6 -25 77 -8 rlineto
            35 -99 8 -134 -116 vvcurveto
            -3 -105 rlineto
            return
          </CharString>
          <CharString index="8">
            rmoveto
            54 261 rlineto
            82 5 75 38 63 vvcurveto
            -52 callgsubr
            -40 -4 -26 -5 vhcurveto
            -85 -16 -58 -11 callsubr
            -82 -51 -77 -29 -43 hhcurveto
            -23 -16 13 27 hvcurveto
            36 80 329 22 vvcurveto
            13 -9 9 -19 callgsubr
            -16 -20 -56 vhcurveto
            4 -24 76 -8 rlineto
            -17 -100 -53 -198 -65 callsubr
            -63 callgsubr
            return
          </CharString>
          <CharString index="9">
            rmoveto
            214 103 rlineto
            18 vlineto
            -76 28 -154 -130 rlineto
            return
          </CharString>
          <CharString index="10">
            rmoveto
            4 -97 rlineto
            35 hlineto
            39 127 rlineto
            21 -39 -73 9 -51 hhcurveto
            -247 -116 -204 -214 -126 62 -94 171 68 62 15 27 48 hvcurveto
            39 203 71 20 6 34 rlineto
            -229 hlineto
            -6 -34 80 -20 -35 -178 rlineto
            -14 -28 -30 -5 -33 hhcurveto
            -122 -34 89 93 95 44 264 220 38 34 -5 -6 22 hvcurveto
            return
          </CharString>
          <CharString index="11">
            137 -37 callgsubr
            -74 22 -55 187 7 32 -49 18 rlinecurve
            133 31 36 103 62 vvcurveto
            67 -47 56 -125 vhcurveto
            -228 -68 callsubr
            83 -20 -98 -505 -91 -64 callsubr
            252 -37 callgsubr
            -83 20 44 226 rlineto
            36 hlineto
            57 -7 -2 -277 72 hvcurveto
            -93 319 rmoveto
            -57 hlineto
            46 240 rlineto
            6 21 22 4 18 hhcurveto
            73 27 -28 -59 -94 -63 -69 -87 hvcurveto
            return
          </CharString>
          <CharString index="12">
            rmoveto
            -92 -34 -57 -59 -12 hvcurveto
            33 hlineto
            32 6 22 30 70 hhcurveto
            58 12 -21 -25 2 hvcurveto
            -5 -1 -6 -2 -5 vhcurveto
            34 hlineto
            2 9 3 11 9 vvcurveto
            48 -22 39 -79 vhcurveto
            return
          </CharString>
          <CharString index="13">
            rmoveto
            41 34 21 20 31 hvcurveto
            -8 32 rlineto
            -7 -15 -17 -2 -14 -76 -39 66 -96 hhcurveto
            313 392 -20 27 -59 -16 rlineto
            -274 hlineto
            9 -73 rlineto
            231 hlineto
            -319 -405 27 -16 rlineto
            0 25 36 32 vhcurveto
            63 65 -75 66 hhcurveto
            return
          </CharString>
          <CharString index="14">
            rmoveto
            -6 -33 76 -19 -83 -429 -249 481 rlineto
            -130 -68 callsubr
            71 12 callgsubr
            -79 -64 callsubr
            211 -37 callgsubr
            -77 20 84 435 254 -496 46 8 108 559 -6 callgsubr
            return
          </CharString>
          <CharString index="15">
            -37 callsubr
            -49 -239 -22 vvcurveto
            -26 13 -16 33 25 -33 callsubr
            -85 vlineto
            29 151 55 269 14 vvcurveto
            return
          </CharString>
          <CharString index="16">
            rmoveto
            63 -20 -183 -278 -75 278 59 -46 callgsubr
            60 -20 92 -334 -33 -171 -104 -64 callsubr
            278 -37 callgsubr
            -97 20 33 171 223 334 72 -43 callsubr
            return
          </CharString>
          <CharString index="17">
            rmoveto
            -89 callgsubr
            -40 -23 -11 -37 -2 vhcurveto
            54 -19 -46 27 -75 hhcurveto
            -162 -118 -133 -229 -100 47 -52 103 -70 callsubr
            10 -1 10 -1 9 hvcurveto
            72 11 61 37 56 vvcurveto
            -393 -448 -75 callsubr
          </CharString>
          <CharString index="18">
            rmoveto
            26 19 -69 138 rlineto
            -60 hlineto
            -119 -138 20 -19 119 86 rlineto
            return
          </CharString>
          <CharString index="19">
            139 -8 rmoveto
            48 96 41 60 44 hvcurveto
            0 -6 -54 -6 vvcurveto
            -26 11 -15 34 26 30 -42 callsubr
            29 -80 vlineto
            4 60 9 36 10 56 rrcurveto
            31 169 61 328 11 vvcurveto
            11 -7 7 -11 -28 -63 -15 -20 -58 vhcurveto
            5 -23 76 -9 -33 -164 rlineto
            5 -21 -21 4 -35 hhcurveto
            -154 -128 -132 -243 -107 45 -31 60 hvcurveto
            return
          </CharString>
          <CharString index="20">
            rmoveto
            10 -85 rlineto
            33 hlineto
            24 114 rlineto
            16 -31 -40 7 -38 hhcurveto
            -180 -84 -176 -181 -110 59 -47 84 43 53 10 23 45 hvcurveto
            -11 35 rlineto
            -12 -34 -32 -7 -28 hhcurveto
            -70 -21 36 89 130 58 164 119 12 15 -1 -5 14 hvcurveto
            endchar
          </CharString>
          <CharString index="21">
            rmoveto
            -27 -18 89 -135 rlineto
            60 hlineto
            130 135 -20 19 -130 -83 rlineto
            return
          </CharString>
          <CharString index="22">
            rmoveto
            -36 hlineto
            -53 -93 rlineto
            -240 hlineto
            403 525 2 32 rlineto
            -388 hlineto
            -17 -132 rlineto
            36 hlineto
            36 79 rlineto
            223 hlineto
            -403 -525 11 -33 rlineto
            388 hlineto
            return
          </CharString>
          <CharString index="23">
            -31 12 rlineto
            0 -20 -35 -23 vhcurveto
            -35 -73 40 -34 hhcurveto
            -33 -20 -42 -52 -21 hvcurveto
            30 -12 rlineto
            0 23 36 22 vhcurveto
            return
          </CharString>
          <CharString index="24">
            rmoveto
            25 42 10 20 58 hvcurveto
            30 -89 vlineto
            120 638 rlineto
            1 5 0 5 6 vvcurveto
            11 -4 11 -15 -31 -67 -15 -23 -57 vhcurveto
            5 -22 77 -10 rlineto
            -80 -434 -33 -167 -21 vvcurveto
            -28 12 -16 36 vhcurveto
            return
          </CharString>
          <CharString index="25">
            -89 callsubr
            -12 -75 callgsubr
            return
          </CharString>
          <CharString index="26">
            83 56 47 165 30 hvcurveto
            90 495 87 -67 callsubr
            -246 -68 callsubr
            80 -20 -96 -528 rlineto
            -72 -13 -21 -52 -61 hhcurveto
            -68 hlineto
            -9 -28 rlineto
            -15 19 26 -12 43 hhcurveto
            endchar
          </CharString>
          <CharString index="27">
            715 rmoveto
            -27 -18 79 -145 rlineto
            60 hlineto
            120 145 -20 19 -120 -93 rlineto
            return
          </CharString>
          <CharString index="28">
            0 -7 -54 -7 vvcurveto
            -25 return
          </CharString>
          <CharString index="29">
            552 -89 callsubr
            return
          </CharString>
          <CharString index="30">
            30 -79 vlineto
            1 5 71 81 15 hvcurveto
            return
          </CharString>
          <CharString index="31">
            -79 callsubr
            12 -16 34 return
          </CharString>
          <CharString index="32">
            rmoveto
            -63 -20 39 59 131 47 186 130 63 19 -39 -59 -131 -47 -186 -129 hvcurveto
            endchar
          </CharString>
          <CharString index="33">
            -30 hhcurveto
            -127 -32 -77 -97 -18 hvcurveto
            -13 -65 -101 -26 5 -22 rlineto
            85 hlineto
            -76 -440 rlineto
            -97 -17 -41 -16 -61 hhcurveto
            -27 -26 5 7 -23 hvcurveto
            -7 -36 rlineto
            0 58 -30 57 vhcurveto
            return
          </CharString>
          <CharString index="34">
            -103 callgsubr
            -3 return
          </CharString>
          <CharString index="35">
            rmoveto
            -40 -25 22 69 139 56 176 130 33 31 -10 -16 15 hvcurveto
            -99 -19 -34 -180 -1 hhcurveto
            -44 -28 -81 -57 -37 hhcurveto
            return
          </CharString>
          <CharString index="36">
            -92 callgsubr
            -6 -33 rlineto
            return
          </CharString>
          <CharString index="37">
            164 117 135 229 return
          </CharString>
          <CharString index="38">
            rmoveto
            8 7 1 5 hhcurveto
            20 10 -8 -14 -40 -62 15 -3 -42 hvcurveto
            -1 -10 rlineto
            38 hlineto
            5 21 23 3 22 10 rrcurveto
            17 8 16 13 25 vvcurveto
            30 -30 15 -46 -18 -25 -2 -4 -26 vhcurveto
            -4 -53 rlineto
            30 hlineto
            return
          </CharString>
          <CharString index="39">
            hlineto
            -6 -33 return
          </CharString>
          <CharString index="40">
            20 -62 callgsubr
            return
          </CharString>
          <CharString index="41">
            rmoveto
            18 11 -59 159 rlineto
            -75 -17 hlineto
            277 -153 rmoveto
            18 11 -59 159 rlineto
            -75 -17 hlineto
            return
          </CharString>
          <CharString index="42">
            -65 vvcurveto
            -70 38 -12 35 64 86 37 65 56 vhcurveto
            return
          </CharString>
          <CharString index="43">
            -20 -6 -33 rlineto
            return
          </CharString>
          <CharString index="44">
            -14 16 rlineto
            -16 -18 -19 -6 -16 hhcurveto
            -30 -18 16 31 return
          </CharString>
          <CharString index="45">
            rlineto
            52 42 88 55 48 hhcurveto
            27 8 -8 -21 -50 -72 -71 -114 -28 hvcurveto
            -6 -12 rlineto
            0 75 -259 42 24 -33 callsubr
            -74 vlineto
            -81 200 rlineto
            140 40 52 74 76 vvcurveto
            43 -25 23 -38 -81 -107 -74 -46 -33 vhcurveto
            return
          </CharString>
          <CharString index="46">
            117 54 -107 hlineto
            19 107 rlineto
            -31 hlineto
            -71 -110 -102 -28 4 -23 rlineto
            88 hlineto
            -26 -133 -51 -246 -26 vvcurveto
            return
          </CharString>
          <CharString index="47">
            -3 185 -13 rmoveto
            143 78 80 111 53 -31 50 -65 49 hvcurveto
            113 57 34 72 55 vvcurveto
            52 -29 61 -115 -123 -88 -73 -104 -65 42 -42 43 -31 vhcurveto
            -97 -52 -61 -71 -85 vvcurveto
            -62 42 -55 114 vhcurveto
            88 366 rmoveto
            -55 32 -38 46 45 vvcurveto
            74 64 29 52 68 11 -37 -45 -55 -24 -44 -78 -45 vhcurveto
            -75 -317 rmoveto
            -54 -33 24 54 92 57 48 56 34 hvcurveto
            81 -54 21 -36 -52 vvcurveto
            -63 -51 -47 -77 vhcurveto
            endchar
          </CharString>
          <CharString index="48">
            rmoveto
            33 250 rlineto
            168 -80 38 hlineto
            25 132 rlineto
            -389 -68 callsubr
            60 -14 -370 -516 -3 callsubr
            156 216 rlineto
            144 hlineto
            -27 -210 -31 callsubr
            402 17 callgsubr
            -173 hlineto
            26 207 rlineto
            110 6 callgsubr
            -194 hmoveto
            -117 hlineto
            142 196 rlineto
            endchar
          </CharString>
          <CharString index="49">
            rmoveto
            31 29 24 33 -44 callgsubr
            hvcurveto
            return
          </CharString>
          <CharString index="50">
            -11 -97 callgsubr
            return
          </CharString>
          <CharString index="51">
            177 rmoveto
            112 101 129 179 105 -54 37 -72 -141 -72 -164 -144 -103 54 -39 72 hvcurveto
            54 -177 rmoveto
            54 hlineto
            342 611 rlineto
            -54 hlineto
            -382 -365 rmoveto
            -44 -49 19 82 94 46 118 108 43 48 -18 -81 -136 -86 -78 -66 hvcurveto
            406 -254 rmoveto
            112 101 130 179 105 -54 36 -72 -114 -100 -130 -177 -104 54 -39 73 hvcurveto
            return
          </CharString>
          <CharString index="52">
            rmoveto
            61 hlineto
            28 87 rlineto
            16 hlineto
            224 117 201 214 108 -44 83 -110 23 hvcurveto
            29 88 rlineto
            -61 hlineto
            -27 -82 rlineto
            -5 hlineto
            -222 -121 -200 -211 -107 43 -83 103 -25 hvcurveto
            17 52 rmoveto
            -54 26 -19 62 77 vvcurveto
            193 93 168 150 vhcurveto
            -114 -539 rmoveto
            171 529 rlineto
            63 -24 20 -66 -77 vvcurveto
            -199 -90 -163 -164 vhcurveto
            endchar
          </CharString>
          <CharString index="53">
            rmoveto
            58 hlineto
            27 83 rlineto
            160 4 113 135 225 vvcurveto
            84 -35 50 -72 14 vhcurveto
            29 86 rlineto
            -58 hlineto
            -28 -83 rlineto
            -156 -8 -111 -133 -221 vvcurveto
            -83 32 -50 69 -16 vhcurveto
            18 56 rmoveto
            -25 16 -9 31 41 vvcurveto
            126 44 179 121 11 vhcurveto
            -77 -415 rmoveto
            133 407 rlineto
            30 -15 10 -32 -43 vvcurveto
            -129 -45 -182 -128 -6 vhcurveto
            endchar
          </CharString>
          <CharString index="54">
            9 -35 rlineto
            18 41 35 9 24 hhcurveto
            41 19 -17 -27 -52 -42 -46 -89 -9 hvcurveto
            -4 -34 rlineto
            54 60 -7 -59 -73 -58 -32 -65 -26 -28 3 16 -41 hvcurveto
            -18 -39 rlineto
            -14 34 44 -10 47 hhcurveto
            return
          </CharString>
          <CharString index="55">
            rmoveto
            32 27 26 30 33 -27 26 -32 -31 -28 -26 -33 -30 28 -26 31 hvcurveto
            return
          </CharString>
          <CharString index="56">
            670 rmoveto
            -18 callgsubr
            33 85 -20 callgsubr
            return
          </CharString>
          <CharString index="57">
            70 hlineto
            19 96 rlineto
            60 hlineto
            9 46 rlineto
            -60 hlineto
            56 287 -55 5 -288 -305 5 -33 rlineto
            203 hlineto
            -136 46 rmoveto
            183 195 -38 -195 rlineto
            endchar
          </CharString>
          <CharString index="58">
            vhcurveto
            30 -79 vlineto
            1 return
          </CharString>
          <CharString index="59">
            63 323 79 19 -62 callgsubr
            -213 -68 callsubr
            77 -19 -62 -11 callsubr
            -115 -22 -45 -81 -115 hhcurveto
            -84 -26 50 71 28 6 37 7 37 hvcurveto
            57 295 83 19 5 33 rlineto
            -236 hlineto
            -5 -33 74 -19 -57 -295 rlineto
            -8 -39 -5 -38 -35 vvcurveto
            -94 40 -68 136 return
          </CharString>
          <CharString index="60">
            hmoveto
            60 hlineto
            198 611 rlineto
            -61 hlineto
            return
          </CharString>
          <CharString index="61">
            238 567 rmoveto
            41 22 -22 -34 -59 -42 -48 -62 -51 hvcurveto
            -175 -143 3 -38 rlineto
            298 hlineto
            29 102 -33 3 -39 -56 rlineto
            -178 hlineto
            134 103 rlineto
            77 60 65 66 71 vvcurveto
            65 -54 25 -69 -52 -54 -17 -20 -40 vhcurveto
            10 -35 rlineto
            18 43 37 10 39 hhcurveto
            return
          </CharString>
          <CharString index="62">
            32 -27 26 -30 -30 -27 -26 -32 -30 27 -25 30 return
          </CharString>
          <CharString index="63">
            32 -28 26 -30 -30 -27 -26 -32 -30 27 -25 30 return
          </CharString>
          <CharString index="64">
            -67 callsubr
            -194 hlineto
            return
          </CharString>
          <CharString index="65">
            9 -17 callsubr
            return
          </CharString>
          <CharString index="66">
            -75 callgsubr
            endchar
          </CharString>
          <CharString index="67">
            hmoveto
            262 hlineto
            218 118 204 198 129 -70 80 -158 hvcurveto
            -252 -68 callsubr
            80 -20 -46 -235 rlineto
            -81 hlineto
            -9 -46 rlineto
            81 hlineto
            -43 -224 10 callgsubr
            42 219 rlineto
            return
          </CharString>
          <CharString index="68">
            34 -22 vhcurveto
            -67 -30 -44 -49 -66 vvcurveto
            -44 28 return
          </CharString>
          <CharString index="69">
            -104 59 -9 -87 callgsubr
            return
          </CharString>
          <CharString index="70">
            rmoveto
            -26 callsubr
            -29 -64 -15 -20 -56 -32 callgsubr
            -7 rlineto
            -28 -144 return
          </CharString>
          <CharString index="71">
            rmoveto
            24 7 -55 183 rlineto
            -64 hlineto
            -10 -15 rlineto
            return
          </CharString>
          <CharString index="72">
            76 75 52 64 33 -27 26 -65 hvcurveto
            return
          </CharString>
          <CharString index="73">
            34 189 51 297 6 vvcurveto
            return
          </CharString>
          <CharString index="74">
            39 -31 callgsubr
            vhcurveto
            30 return
          </CharString>
          <CharString index="75">
            653 rmoveto
            -123 -88 -99 -170 -76 36 -40 79 123 87 99 171 78 -36 37 -78 hvcurveto
            -89 -341 rmoveto
            -42 -8 30 42 95 39 130 92 43 8 -32 -40 -97 -39 -128 -93 hvcurveto
            endchar
          </CharString>
          <CharString index="76">
            -93 -64 callsubr
            return
          </CharString>
          <CharString index="77">
            -21 -20 vvcurveto
            -67 29 -48 94 vhcurveto
            7 41 rmoveto
            -43 -15 32 45 16 1 17 4 19 hvcurveto
            32 27 return
          </CharString>
          <CharString index="78">
            rmoveto
            111 223 29 -223 rlineto
            endchar
          </CharString>
          <CharString index="79">
            99 -48 51 -103 return
          </CharString>
          <CharString index="80">
            25 39 -31 callgsubr
            return
          </CharString>
          <CharString index="81">
            14 -6 8 -13 return
          </CharString>
          <CharString index="82">
            391 -48 callgsubr
            return
          </CharString>
          <CharString index="83">
            106 82 51 99 49 -32 32 -55 10 hvcurveto
            54 21 55 44 66 vvcurveto
            50 -46 24 -58 return
          </CharString>
          <CharString index="84">
            rlineto
            190 hlineto
            return
          </CharString>
          <CharString index="85">
            rmoveto
            34 -24 23 -34 -31 -25 -23 -34 -32 25 -26 31 34 24 26 32 vhcurveto
            endchar
          </CharString>
          <CharString index="86">
            -16 -20 -56 hvcurveto
            5 -24 56 -7 rlineto
            2 return
          </CharString>
          <CharString index="87">
            rlineto
            133 return
          </CharString>
          <CharString index="88">
            7 callsubr
            -84 callsubr
            return
          </CharString>
          <CharString index="89">
            rmoveto
            -70 -43 -17 -28 -50 hvcurveto
            11 -41 rlineto
            19 46 37 9 43 hhcurveto
            65 21 -28 -42 -79 -65 -62 -124 -13 hvcurveto
            -43 vlineto
            93 78 -18 -79 return
          </CharString>
          <CharString index="90">
            19 55 vhcurveto
            return
          </CharString>
          <CharString index="91">
            58 22 hmoveto
            508 38 hlineto
            -229 573 rlineto
            -45 hlineto
            -158 -567 rmoveto
            170 457 162 -437 rlineto
            -20 vlineto
            endchar
          </CharString>
          <CharString index="92">
            rmoveto
            18 vlineto
            -76 28 -154 -130 16 -19 rlineto
            return
          </CharString>
          <CharString index="93">
            35 130 rlineto
            return
          </CharString>
          <CharString index="94">
            vhcurveto
            30 -85 vlineto
            return
          </CharString>
          <CharString index="95">
            96 58 60 97 18 return
          </CharString>
          <CharString index="96">
            -322 rlineto
            return
          </CharString>
          <CharString index="97">
            -55 vhcurveto
            4 -25 return
          </CharString>
          <CharString index="98">
            hlineto
            46 235 rlineto
            3 17 29 3 39 hhcurveto
            107 48 -58 -105 -146 -63 -214 -183 hvcurveto
            endchar
          </CharString>
          <CharString index="99">
            -4 38 rlineto
            -295 hlineto
            -13 -99 rlineto
            34 hlineto
            26 53 rlineto
            186 hlineto
            -250 -381 rlineto
            endchar
          </CharString>
          <CharString index="100">
            rmoveto
            -124 -211 11 -17 79 18 55 205 rlineto
            return
          </CharString>
          <CharString index="101">
            -75 -21 -5 -27 rlineto
            71 hlineto
            -75 -390 -84 -19 -6 -31 rlineto
            239 hlineto
            6 31 -75 19 return
          </CharString>
          <CharString index="102">
            117 rmoveto
            52 164 167 53 -167 166 -52 -166 -165 -53 165 hlineto
            return
          </CharString>
          <CharString index="103">
            -125 -20 -21 0 6 -45 hvcurveto
            -7 -46 rlineto
            -8 40 25 -2 50 hhcurveto
            171 112 return
          </CharString>
          <CharString index="104">
            -72 -13 -5 -35 -23 callsubr
            9 37 -65 10 return
          </CharString>
          <CharString index="105">
            362 rmoveto
            37 31 28 37 36 -31 32 -37 -37 -28 -32 -36 -37 28 -28 37 hvcurveto
            return
          </CharString>
          <CharString index="106">
            119 rmoveto
            30 50 -274 139 274 139 -30 50 -353 -189 rlineto
            return
          </CharString>
          <CharString index="107">
            hvcurveto
            5 24 3 25 23 vvcurveto
            71 -28 60 -94 -169 -18 -142 -32 -58 35 return
          </CharString>
          <CharString index="108">
            65 -49 48 -88 16 hvcurveto
            76 28 84 59 97 vvcurveto
            74 -68 34 -86 vhcurveto
            endchar
          </CharString>
          <CharString index="109">
            -439 rmoveto
            71 hlineto
            84 430 -190 -28 -5 -28 rlineto
            113 hlineto
            return
          </CharString>
          <CharString index="110">
            -41 -210 rrcurveto
            -15 -79 -11 -60 -46 vvcurveto
            -79 30 -39 85 -26 vhcurveto
            return
          </CharString>
          <CharString index="111">
            16 24 rlineto
            -50 24 -16 44 58 vvcurveto
            47 12 63 13 69 vhcurveto
            return
          </CharString>
          <CharString index="112">
            41 22 -23 -33 -59 -42 -47 -62 -51 hvcurveto
            -174 -143 rlineto
            return
          </CharString>
          <CharString index="113">
            rmoveto
            127 228 -14 19 -93 -22 -46 -220 rlineto
            endchar
          </CharString>
          <CharString index="114">
            32 20 42 51 21 hvcurveto
            return
          </CharString>
          <CharString index="115">
            556 rmoveto
            75 16 34 161 -28 8 -96 -168 rlineto
            return
          </CharString>
          <CharString index="116">
            21 vvcurveto
            13 -4 10 -15 -29 -63 -14 -21 -57 vhcurveto
            4 return
          </CharString>
          <CharString index="117">
            -166 -32 vhcurveto
            -6 -31 -3 -27 return
          </CharString>
          <CharString index="118">
            rmoveto
            89 81 57 169 33 hvcurveto
            6 32 3 28 return
          </CharString>
          <CharString index="119">
            -168 -27 -6 -33 rlineto
            392 hlineto
            endchar
          </CharString>
          <CharString index="120">
            247 -37 callgsubr
            -81 20 return
          </CharString>
          <CharString index="121">
            27 55 9 19 59 return
          </CharString>
          <CharString index="122">
            hvcurveto
            12 46 rlineto
            15 return
          </CharString>
          <CharString index="123">
            rmoveto
            -301 hlineto
            -71 -249 6 -21 rlineto
            return
          </CharString>
          <CharString index="124">
            hvcurveto
            41 149 rlineto
            257 hlineto
            endchar
          </CharString>
        <CharString name=".notdef">
          -271 endchar
        </CharString>
        <CharString name="A">
          55 356 223 -103 callsubr
          endchar
        </CharString>
        <CharString name="AE">
          228 417 309 -59 callsubr
        </CharString>
        <CharString name="AEacute">
          228 401 651 -98 callsubr
          32 -361 -59 callsubr
        </CharString>
        <CharString name="Aacute">
          92 284 651 -98 callsubr
          -301 -670 -84 callgsubr
        </CharString>
        <CharString name="Abreve">
          92 367 669 -103 callgsubr
          -400 -669 -84 callgsubr
        </CharString>
        <CharString name="Acircumflex">
          92 480 650 rmoveto
          26 19 -79 135 rlineto
          -60 hlineto
          -139 -135 20 -19 139 83 rlineto
          -32 -510 -103 callsubr
          endchar
        </CharString>
        <CharString name="Adieresis">
          92 283 671 -81 callgsubr
          -510 -671 -84 callgsubr
        </CharString>
        <CharString name="Agrave">
          92 446 651 -80 callgsubr
          -265 -754 -84 callgsubr
        </CharString>
        <CharString name="Amacron">
          92 245 689 rmoveto
          237 hlineto
          8 54 rlineto
          -237 hlineto
          -286 -743 -84 callgsubr
        </CharString>
        <CharString name="Aogonek">
          92 321 -236 rmoveto
          64 37 50 0 hvcurveto
          -63 callsubr
          62 63 83 49 hvcurveto
          100 hlineto
          6 35 -62 15 -67 574 -58 -13 -294 -563 -3 callsubr
          94 180 rlineto
          163 hlineto
          19 -168 rlineto
          1 -10 1 -7 -7 -31 -141 -64 -105 -14 callgsubr
          vhcurveto
          -103 507 rmoveto
          113 217 23 -217 rlineto
          endchar
        </CharString>
        <CharString name="Aring">
          92 371 639 -77 callgsubr
          -410 -674 -84 callgsubr
        </CharString>
        <CharString name="Aringacute">
          55 349 831 -98 callsubr
          20 -211 -77 callgsubr
          -3 -451 -103 callsubr
          endchar
        </CharString>
        <CharString name="Atilde">
          92 530 765 -98 callgsubr
          -175 -542 -103 callsubr
          endchar
        </CharString>
        <CharString name="B">
          35 339 323 rmoveto
          88 17 68 60 96 vvcurveto
          66 -51 49 -118 vhcurveto
          -224 -68 callsubr
          79 -20 -98 -505 -87 -64 callsubr
          230 hlineto
          142 103 85 109 68 -39 42 -81 19 hvcurveto
          -83 14 rmoveto
          -45 hlineto
          43 224 rlineto
          5 21 16 2 24 hhcurveto
          59 37 -26 -57 -99 -72 -49 -83 hvcurveto
          -102 -288 rmoveto
          49 250 rlineto
          39 hlineto
          85 46 -34 -64 -117 -91 -43 -72 -18 -20 2 6 -18 hvcurveto
          endchar
        </CharString>
        <CharString name="C">
          22 429 23 -88 callgsubr
        </CharString>
        <CharString name="Cacute">
          26 299 651 -98 callsubr
          133 -647 -88 callgsubr
        </CharString>
        <CharString name="Cacute.loclPLK">
          22 360 647 -69 callgsubr
          88 -635 -88 callgsubr
        </CharString>
        <CharString name="Ccaron">
          26 270 804 -86 callsubr
          44 -699 -88 callgsubr
        </CharString>
        <CharString name="Ccedilla">
          26 416 23 rmoveto
          14 115 rlineto
          -34 hlineto
          -40 -84 rlineto
          -11 -36 -31 -4 -25 hhcurveto
          -114 -38 71 107 171 78 190 173 45 27 -4 -8 26 hvcurveto
          -97 33 vlineto
          -14 callsubr
          15 -37 -47 12 -79 hhcurveto
          -212 -132 -196 -219 -121 56 -89 138 -9 hvcurveto
          -30 -58 -76 callgsubr
          -35 callsubr
          19 35 68 1 48 11 53 20 rlinecurve
          endchar
        </CharString>
        <CharString name="Ccircumflex">
          22 498 650 -94 callgsubr
          25 -712 -88 callgsubr
        </CharString>
        <CharString name="Cdotaccent">
          22 462 -61 callgsubr
          -33 -702 -88 callgsubr
        </CharString>
        <CharString name="D">
          127 -11 hmoveto
          -83 callgsubr
          endchar
        </CharString>
        <CharString name="Dcaron">
          324 651 rmoveto
          60 hlineto
          130 135 -20 19 -130 -83 -102 82 -27 -18 rlineto
          -239 -786 rmoveto
          -83 callgsubr
          endchar
        </CharString>
        <CharString name="Dcroat">
          -4 -40 callsubr
          111 hlineto
          9 46 rlineto
          -111 -9 callsubr
        </CharString>
        <CharString name="E">
          33 388 389 -105 callgsubr
          endchar
        </CharString>
        <CharString name="Eacute">
          44 272 651 -98 callsubr
          139 -281 -105 callgsubr
          endchar
        </CharString>
        <CharString name="Ebreve">
          33 348 669 -103 callgsubr
          40 -280 -105 callgsubr
          endchar
        </CharString>
        <CharString name="Ecaron">
          44 252 804 -86 callsubr
          41 -333 -105 callgsubr
          endchar
        </CharString>
        <CharString name="Ecircumflex">
          44 446 650 -94 callgsubr
          43 -346 -105 callgsubr
          endchar
        </CharString>
        <CharString name="Edieresis">
          44 298 726 -101 callsubr
          -98 -337 -105 callgsubr
          endchar
        </CharString>
        <CharString name="Edotaccent">
          44 407 -61 callgsubr
          -12 -336 -105 callgsubr
          endchar
        </CharString>
        <CharString name="Egrave">
          44 224 754 rmoveto
          214 -103 16 19 -154 130 -76 -28 rlineto
          171 -383 -105 callgsubr
          endchar
        </CharString>
        <CharString name="Emacron">
          44 242 743 -40 callgsubr
          -84 -354 -105 callgsubr
          endchar
        </CharString>
        <CharString name="Eng">
          181 496 611 rmoveto
          -6 -33 76 -19 -83 -429 -249 481 rlineto
          -130 -68 callsubr
          71 12 callgsubr
          -79 -64 callsubr
          211 -37 callgsubr
          -77 20 84 435 228 -446 rlineto
          -109 -13 -31 -45 -75 hhcurveto
          -28 -26 3 8 -28 hvcurveto
          -8 -37 rlineto
          -16 29 32 -13 43 hhcurveto
          104 51 51 179 34 hvcurveto
          96 496 -6 callgsubr
          endchar
        </CharString>
        <CharString name="Eogonek">
          44 362 -236 rmoveto
          64 37 50 0 hvcurveto
          -63 callsubr
          54 43 58 37 33 hvcurveto
          28 147 rlineto
          -37 hlineto
          -42 -91 rlineto
          -203 hlineto
          43 221 -20 callsubr
          6 callgsubr
          -136 hlineto
          45 236 rlineto
          189 -80 38 hlineto
          25 132 rlineto
          -409 -68 callsubr
          85 -20 -98 -505 -31 callsubr
          398 hlineto
          -83 -60 -32 -61 -44 -14 callgsubr
          vhcurveto
          endchar
        </CharString>
        <CharString name="Eth">
          -10 -40 callsubr
          112 hlineto
          9 46 rlineto
          -112 -9 callsubr
        </CharString>
        <CharString name="Euro">
          -3 267 -6 rmoveto
          49 39 8 17 38 hvcurveto
          41 vlineto
          -9 -35 -29 -4 -24 hhcurveto
          -104 -30 64 81 8 0 9 1 8 hvcurveto
          182 hlineto
          15 43 rlineto
          -194 hlineto
          12 69 rlineto
          188 hlineto
          16 43 rlineto
          -193 hlineto
          165 45 61 30 76 hhcurveto
          26 15 -4 -5 16 hvcurveto
          4 -80 rlineto
          30 hlineto
          36 113 rlineto
          17 -37 -42 11 -55 hhcurveto
          -87 -107 -38 -209 -58 hvcurveto
          -66 hlineto
          -17 -43 rlineto
          71 hlineto
          -6 -34 -4 -18 -2 -17 rrcurveto
          -64 hlineto
          -16 -43 rlineto
          75 hlineto
          -1 -14 -1 -14 -12 vvcurveto
          -156 83 -27 94 vhcurveto
          endchar
        </CharString>
        <CharString name="F">
          -4 516 611 rmoveto
          -409 -68 callsubr
          85 -20 -98 -505 -31 callsubr
          284 hlineto
          6 34 -113 20 42 213 rlineto
          136 hlineto
          5 -69 rlineto
          34 hlineto
          35 181 rlineto
          -34 hlineto
          -33 -66 rlineto
          -134 hlineto
          47 246 rlineto
          188 -80 39 hlineto
          endchar
        </CharString>
        <CharString name="G">
          92 483 567 -97 callsubr
          endchar
        </CharString>
        <CharString name="G_tilde.loclGUA">
          85 530 765 -98 callgsubr
          -56 -198 -97 callsubr
          endchar
        </CharString>
        <CharString name="Gbreve">
          85 379 669 -103 callgsubr
          95 -102 -97 callsubr
          endchar
        </CharString>
        <CharString name="Gcaron">
          92 285 804 -86 callsubr
          96 -155 -97 callsubr
          endchar
        </CharString>
        <CharString name="Gcircumflex">
          92 483 650 -94 callgsubr
          94 -168 -97 callsubr
          endchar
        </CharString>
        <CharString name="Gcommaaccent">
          85 474 567 -97 callsubr
          -271 -788 -70 callgsubr
        </CharString>
        <CharString name="Gdotaccent">
          92 447 -61 callgsubr
          36 -158 -97 callsubr
          endchar
        </CharString>
        <CharString name="H">
          165 -11 hmoveto
          -68 callgsubr
          endchar
        </CharString>
        <CharString name="Hbar">
          165 680 578 rmoveto
          -62 callgsubr
          -235 8 callgsubr
          -23 -120 rlineto
          -267 hlineto
          23 120 83 19 5 33 rlineto
          -235 hlineto
          -5 -33 74 -19 -23 -120 rlineto
          -76 hlineto
          -9 -46 rlineto
          76 hlineto
          -66 -340 -82 -64 callsubr
          235 -37 callgsubr
          -75 20 38 197 rlineto
          267 hlineto
          -38 -197 -82 -64 callsubr
          236 -37 callgsubr
          -76 20 66 340 rlineto
          75 hlineto
          9 46 rlineto
          -75 hlineto
          23 120 rlineto
          -128 -260 rmoveto
          -267 hlineto
          18 94 rlineto
          267 hlineto
          endchar
        </CharString>
        <CharString name="Hcircumflex">
          165 519 650 -94 callgsubr
          -436 -735 rmoveto
          -68 callgsubr
          endchar
        </CharString>
        <CharString name="I">
          -167 -11 hmoveto
          13 callsubr
          98 505 -92 callgsubr
          rlineto
          endchar
        </CharString>
        <CharString name="IJ">
          138 -11 hmoveto
          13 callsubr
          98 505 -92 callgsubr
          rlineto
          333 -182 rmoveto
          -81 callsubr
        </CharString>
        <CharString name="Iacute">
          -143 155 651 -98 callsubr
          -144 -670 rmoveto
          13 callsubr
          98 505 -92 callgsubr
          rlineto
          endchar
        </CharString>
        <CharString name="Iacute_J.loclNLD">
          138 203 651 -98 callsubr
          333 -19 -98 callsubr
          -515 -670 rmoveto
          13 callsubr
          98 505 -92 callgsubr
          rlineto
          333 -182 rmoveto
          -81 callsubr
        </CharString>
        <CharString name="Ibreve">
          -167 248 669 -103 callgsubr
          -259 -669 rmoveto
          13 callsubr
          98 505 -92 callgsubr
          rlineto
          endchar
        </CharString>
        <CharString name="Icircumflex">
          -143 128 -26 callgsubr
          -113 -669 rmoveto
          13 callsubr
          98 505 -92 callgsubr
          rlineto
          endchar
        </CharString>
        <CharString name="Idieresis">
          -143 156 671 -81 callgsubr
          -355 -671 rmoveto
          13 callsubr
          98 505 -92 callgsubr
          rlineto
          endchar
        </CharString>
        <CharString name="Idotaccent">
          -143 254 668 -58 callsubr
          -259 -668 rmoveto
          13 callsubr
          98 505 -92 callgsubr
          rlineto
          endchar
        </CharString>
        <CharString name="Igrave">
          -143 353 651 -80 callgsubr
          -144 -754 rmoveto
          13 callsubr
          98 505 -92 callgsubr
          rlineto
          endchar
        </CharString>
        <CharString name="Imacron">
          -143 144 697 rmoveto
          217 hlineto
          8 52 rlineto
          -217 hlineto
          -157 -749 rmoveto
          13 callsubr
          98 505 -92 callgsubr
          rlineto
          endchar
        </CharString>
        <CharString name="Iogonek">
          -143 144 -236 rmoveto
          64 37 50 0 hvcurveto
          -63 callsubr
          54 46 59 66 32 hvcurveto
          6 33 -81 20 98 505 -71 callsubr
          190 hlineto
          -85 -46 -39 -65 -54 -14 callgsubr
          vhcurveto
          endchar
        </CharString>
        <CharString name="Itilde">
          -143 330 -51 callsubr
          -335 -670 rmoveto
          13 callsubr
          98 505 -92 callgsubr
          rlineto
          endchar
        </CharString>
        <CharString name="J">
          -190 -149 vmoveto
          -81 callsubr
        </CharString>
        <CharString name="Jcircumflex">
          -190 342 650 -94 callgsubr
          -248 -884 rmoveto
          -81 callsubr
        </CharString>
        <CharString name="K">
          61 505 -47 callgsubr
          endchar
        </CharString>
        <CharString name="Kcommaaccent">
          68 512 -47 callgsubr
          -164 -221 -70 callgsubr
        </CharString>
        <CharString name="L">
          -46 -25 callsubr
          endchar
        </CharString>
        <CharString name="Lacute">
          -33 171 651 -98 callsubr
          243 -670 rmoveto
          -79 callgsubr
          endchar
        </CharString>
        <CharString name="Lcaron">
          -33 159 804 -86 callsubr
          137 -722 rmoveto
          -79 callgsubr
          endchar
        </CharString>
        <CharString name="Lcommaaccent">
          -33 398 -48 callgsubr
          176 -221 -70 callgsubr
        </CharString>
        <CharString name="Ldot">
          -46 -25 callsubr
          468 436 -22 callsubr
        </CharString>
        <CharString name="Lslash">
          -33 398 hmoveto
          28 147 rlineto
          -36 hlineto
          -41 -91 18 callgsubr
          48 245 120 62 -22 38 -88 -45 40 202 -41 callgsubr
          -247 -68 callsubr
          80 -20 -48 -246 -107 -55 20 -39 76 39 -39 -204 -88 -64 callsubr
          endchar
        </CharString>
        <CharString name="M">
          299 209 hmoveto
          6 33 -79 20 103 458 71 -521 49 10 268 508 -73 -455 -88 -64 callsubr
          249 -37 callgsubr
          -82 20 80 505 -41 callgsubr
          -183 hlineto
          -255 -493 -67 493 rlineto
          -170 -68 callsubr
          71 -19 -114 -506 -80 -64 callsubr
          endchar
        </CharString>
        <CharString name="N">
          181 496 -38 callgsubr
          endchar
        </CharString>
        <CharString name="Nacute">
          211 356 651 -98 callsubr
          166 -59 -93 callsubr
          endchar
        </CharString>
        <CharString name="Nacute.loclPLK">
          181 389 647 -69 callgsubr
          126 -47 -93 callsubr
          endchar
        </CharString>
        <CharString name="Ncaron">
          211 317 804 -86 callsubr
          87 -111 -93 callsubr
          endchar
        </CharString>
        <CharString name="Ncommaaccent">
          211 506 -38 callgsubr
          -469 -832 -70 callgsubr
        </CharString>
        <CharString name="Ntilde">
          211 590 765 -78 callgsubr
          -154 -93 callsubr
          endchar
        </CharString>
        <CharString name="O">
          262 -9 -105 callsubr
          endchar
        </CharString>
        <CharString name="OE">
          402 286 hmoveto
          456 17 callgsubr
          -203 hlineto
          43 221 -20 callsubr
          6 callgsubr
          -136 hlineto
          46 236 rlineto
          188 -80 38 hlineto
          25 132 rlineto
          -415 hlineto
          -222 -134 -185 -211 -129 63 -86 157 hvcurveto
          24 48 rmoveto
          -104 -52 66 103 94 51 252 197 35 35 -3 -7 34 hvcurveto
          -96 -495 rlineto
          -8 -36 -31 -2 -33 hhcurveto
          endchar
        </CharString>
        <CharString name="Oacute">
          349 651 -98 callsubr
          -71 -679 -105 callsubr
          endchar
        </CharString>
        <CharString name="Oacute.loclPLK">
          361 647 -69 callgsubr
          -80 -667 -105 callsubr
          endchar
        </CharString>
        <CharString name="Obreve">
          394 669 -103 callgsubr
          -132 -678 -105 callsubr
          endchar
        </CharString>
        <CharString name="Ocircumflex">
          268 -26 callgsubr
          14 -678 -105 callsubr
          endchar
        </CharString>
        <CharString name="Odieresis">
          307 671 -81 callgsubr
          -239 -680 -105 callsubr
          endchar
        </CharString>
        <CharString name="Ograve">
          490 651 -80 callgsubr
          -14 -763 -105 callsubr
          endchar
        </CharString>
        <CharString name="Ohorn">
          686 634 -90 callgsubr
        </CharString>
        <CharString name="Ohungarumlaut">
          266 647 -69 callgsubr
          180 -11 -69 callgsubr
          -146 -667 -105 callsubr
          endchar
        </CharString>
        <CharString name="Omacron">
          285 689 rmoveto
          237 hlineto
          8 54 rlineto
          -237 hlineto
          -31 -752 -105 callsubr
          endchar
        </CharString>
        <CharString name="Oslash">
          157 -96 -55 callsubr
        </CharString>
        <CharString name="Oslashacute">
          281 651 -98 callsubr
          -108 -766 -55 callsubr
        </CharString>
        <CharString name="Otilde">
          493 -51 callsubr
          -231 -679 -105 callsubr
          endchar
        </CharString>
        <CharString name="P">
          17 322 611 rmoveto
          -215 hlineto
          -7 -35 81 -22 -97 -501 -89 -64 callsubr
          271 hlineto
          6 34 -104 19 40 206 rlineto
          -7 25 26 -3 23 hhcurveto
          106 125 77 154 88 -72 43 -113 hvcurveto
          -113 -314 rmoveto
          51 262 rlineto
          6 19 25 4 18 hhcurveto
          58 40 -29 -67 -139 -90 -45 -66 -19 -19 1 7 -17 hvcurveto
          endchar
        </CharString>
        <CharString name="Q">
          135 458 -151 rmoveto
          33 47 14 11 24 hvcurveto
          2 28 rlineto
          -76 hlineto
          -22 -93 46 52 -92 hvcurveto
          -5 3 rlineto
          191 129 186 217 127 -61 93 -158 -214 -128 -190 -215 -105 47 -56 102 -62 hvcurveto
          164 -107 rlineto
          -37 57 20 -5 33 hhcurveto
          -195 192 rmoveto
          -110 -30 91 92 145 76 209 164 116 31 -86 -91 -89 -48 -271 -199 hvcurveto
          endchar
        </CharString>
        <CharString name="R">
          49 366 -53 callgsubr
          endchar
        </CharString>
        <CharString name="Racute">
          53 263 651 -98 callsubr
          127 -670 rmoveto
          -96 callsubr
          endchar
        </CharString>
        <CharString name="Rcaron">
          53 242 804 -86 callsubr
          30 -722 rmoveto
          -96 callsubr
          endchar
        </CharString>
        <CharString name="Rcommaaccent">
          53 374 -53 callgsubr
          -72 -540 -70 callgsubr
        </CharString>
        <CharString name="S">
          -21 159 -57 callsubr
          endchar
        </CharString>
        <CharString name="Sacute">
          -33 233 651 -98 callsubr
          -59 -681 -97 callgsubr
          endchar
        </CharString>
        <CharString name="Sacute.loclPLK">
          -21 288 647 -69 callgsubr
          -110 -669 -97 callgsubr
          endchar
        </CharString>
        <CharString name="Scaron">
          -33 218 804 -86 callsubr
          -162 -733 -97 callgsubr
          endchar
        </CharString>
        <CharString name="Scedilla">
          -33 404 204 rmoveto
          60 -37 47 -51 24 vhcurveto
          -79 39 rlineto
          -43 19 -24 23 40 vvcurveto
          84 60 37 84 23 37 -4 -6 17 vhcurveto
          4 -97 rlineto
          35 hlineto
          -14 callsubr
          17 -46 -51 10 -51 hhcurveto
          -153 -72 -83 -114 -72 53 -37 28 -13 hvcurveto
          87 -41 rlineto
          52 -22 13 -37 -36 vvcurveto
          -78 -53 -56 -99 -41 -37 8 6 -19 vhcurveto
          -3 86 rlineto
          -35 hlineto
          -36 -118 41 -19 55 -10 47 -2 rlinecurve
          -29 -55 -76 callgsubr
          -35 callsubr
          18 34 rlineto
          145 6 83 83 125 vvcurveto
          endchar
        </CharString>
        <CharString name="Scircumflex">
          -21 426 650 -94 callgsubr
          -173 -746 -97 callgsubr
          endchar
        </CharString>
        <CharString name="Scommaaccent">
          -33 158 -57 callsubr
          -40 -210 -70 callgsubr
        </CharString>
        <CharString name="T">
          5 79 611 -64 callgsubr
          endchar
        </CharString>
        <CharString name="Tbar">
          5 511 471 rmoveto
          33 140 rlineto
          -465 hlineto
          -19 -140 rlineto
          34 hlineto
          36 88 -20 callsubr
          hlineto
          -44 -227 rlineto
          -163 hlineto
          -8 -46 rlineto
          162 hlineto
          -45 -233 -105 -64 callsubr
          279 -37 callgsubr
          -96 20 45 233 rlineto
          185 hlineto
          8 46 rlineto
          -184 hlineto
          44 227 -20 callsubr
          -88 hlineto
          endchar
        </CharString>
        <CharString name="Tcaron">
          17 240 804 -86 callsubr
          -249 -111 -64 callgsubr
          endchar
        </CharString>
        <CharString name="Thorn">
          -23 -11 hmoveto
          13 callsubr
          18 92 rlineto
          -4 21 19 0 19 hhcurveto
          100 119 68 143 81 -58 40 -111 hvcurveto
          -46 hlineto
          17 85 -92 callgsubr
          rlineto
          232 145 rmoveto
          -17 -14 0 2 -10 hvcurveto
          48 248 rlineto
          3 13 11 2 21 hhcurveto
          50 42 -18 -74 -124 -73 -39 -71 hvcurveto
          endchar
        </CharString>
        <CharString name="U">
          115 507 236 rmoveto
          -48 callsubr
          186 48 157 89 17 vhcurveto
          endchar
        </CharString>
        <CharString name="Uacute">
          168 330 651 -98 callsubr
          216 -434 rmoveto
          -48 callsubr
          186 48 157 89 17 vhcurveto
          endchar
        </CharString>
        <CharString name="Ubreve">
          115 389 669 -103 callgsubr
          118 -433 rmoveto
          -48 callsubr
          186 48 157 89 17 vhcurveto
          endchar
        </CharString>
        <CharString name="Ucircumflex">
          168 514 650 -94 callgsubr
          110 -499 rmoveto
          -48 callsubr
          186 48 157 89 17 vhcurveto
          endchar
        </CharString>
        <CharString name="Udieresis">
          168 380 726 -101 callsubr
          -45 -490 rmoveto
          -48 callsubr
          186 48 157 89 17 vhcurveto
          endchar
        </CharString>
        <CharString name="Ugrave">
          168 507 651 -80 callgsubr
          237 -518 rmoveto
          -48 callsubr
          186 48 157 89 17 vhcurveto
          endchar
        </CharString>
        <CharString name="Uhorn">
          115 712 675 rmoveto
          -52 callgsubr
          -29 -9 -43 vhcurveto
          -116 -106 callgsubr
          64 327 47 17 rlineto
          54 17 40 32 46 vvcurveto
          endchar
        </CharString>
        <CharString name="Uhungarumlaut">
          168 309 647 -69 callgsubr
          180 -11 -69 callgsubr
          79 -422 rmoveto
          -48 callsubr
          186 48 157 89 17 vhcurveto
          endchar
        </CharString>
        <CharString name="Umacron">
          168 302 743 -40 callgsubr
          -9 -507 rmoveto
          -48 callsubr
          186 48 157 89 17 vhcurveto
          endchar
        </CharString>
        <CharString name="Uogonek">
          168 530 236 rmoveto
          -48 callsubr
          6 7 0 1 6 vhcurveto
          -80 -52 -32 -62 -42 -14 callgsubr
          64 37 50 0 vhcurveto
          -63 callsubr
          45 33 70 65 30 hvcurveto
          125 35 37 125 15 76 rrcurveto
          endchar
        </CharString>
        <CharString name="Uring">
          168 409 639 -77 callgsubr
          -136 -684 rmoveto
          186 48 157 89 17 hvcurveto
          -48 callsubr
          vhcurveto
          endchar
        </CharString>
        <CharString name="Utilde">
          168 573 765 -98 callgsubr
          -37 -529 rmoveto
          -48 callsubr
          186 48 157 89 17 vhcurveto
          endchar
        </CharString>
        <CharString name="V">
          60 424 578 rmoveto
          64 -20 -227 -457 -60 457 59 -67 callsubr
          -202 -68 callsubr
          63 -20 79 -568 60 12 284 556 72 -67 callsubr
          -192 hlineto
          endchar
        </CharString>
        <CharString name="W">
          285 643 578 -82 callgsubr
        </CharString>
        <CharString name="Wacute">
          285 429 651 -98 callsubr
          230 -92 -82 callgsubr
        </CharString>
        <CharString name="Wcircumflex">
          285 579 650 -94 callgsubr
          158 -157 -82 callgsubr
        </CharString>
        <CharString name="Wdieresis">
          285 443 726 -101 callsubr
          5 -148 -82 callgsubr
        </CharString>
        <CharString name="Wgrave">
          285 522 651 -80 callgsubr
          335 -176 -82 callgsubr
        </CharString>
        <CharString name="X">
          57 -33 hmoveto
          195 -37 callgsubr
          -60 20 159 201 84 -202 -59 -19 -6 -33 rlineto
          209 -37 callgsubr
          -60 19 -110 259 203 247 69 -46 callgsubr
          59 -20 -158 -195 -78 195 57 -67 callsubr
          -204 -68 callsubr
          59 -20 102 -251 -204 -254 -69 -20 rlineto
          endchar
        </CharString>
        <CharString name="Y">
          45 397 578 -91 callsubr
          endchar
        </CharString>
        <CharString name="Y.loclGUA">
          145 225 -167 -102 callsubr
        </CharString>
        <CharString name="Yacute">
          62 282 651 -98 callsubr
          141 -92 -91 callsubr
          endchar
        </CharString>
        <CharString name="Yacute.loclGUA">
          145 336 651 -98 callsubr
          -95 -837 -102 callsubr
        </CharString>
        <CharString name="Ycircumflex">
          62 470 650 -94 callgsubr
          31 -157 -91 callsubr
          endchar
        </CharString>
        <CharString name="Ycircumflex.loclGUA">
          145 273 -26 callgsubr
          -28 -836 -102 callsubr
        </CharString>
        <CharString name="Ydieresis">
          62 333 726 -101 callsubr
          -121 -148 -91 callsubr
          endchar
        </CharString>
        <CharString name="Ydieresis.loclGUA">
          169 319 671 -81 callgsubr
          -264 -838 -102 callsubr
        </CharString>
        <CharString name="Ygrave">
          62 447 651 -80 callgsubr
          -147 -754 rmoveto
          278 -37 callgsubr
          -97 20 33 171 223 334 72 -46 callgsubr
          63 -20 -183 -278 -75 278 59 -46 callgsubr
          60 -20 92 -334 -33 -171 -104 -20 rlineto
          endchar
        </CharString>
        <CharString name="Ygrave.loclGUA">
          145 458 651 -80 callgsubr
          -19 -921 -102 callsubr
        </CharString>
        <CharString name="Z">
          17 448 147 -85 callsubr
          endchar
        </CharString>
        <CharString name="Zacute">
          17 232 651 -98 callsubr
          219 -523 -85 callsubr
          endchar
        </CharString>
        <CharString name="Zacute.loclPLK">
          17 307 647 -69 callgsubr
          160 -511 -85 callsubr
          endchar
        </CharString>
        <CharString name="Zcaron">
          17 228 804 -86 callsubr
          105 -575 -85 callsubr
          endchar
        </CharString>
        <CharString name="Zdotaccent">
          17 377 -61 callgsubr
          58 -578 -85 callsubr
          endchar
        </CharString>
        <CharString name="a">
          18 408 202 -107 callgsubr
          endchar
        </CharString>
        <CharString name="aacute">
          18 238 558 -98 callsubr
          186 -375 -107 callgsubr
          endchar
        </CharString>
        <CharString name="abreve">
          18 311 581 -103 callgsubr
          97 -379 -107 callgsubr
          endchar
        </CharString>
        <CharString name="acircumflex">
          18 408 -78 callsubr
          83 -436 -107 callgsubr
          endchar
        </CharString>
        <CharString name="acute">
          -240 100 558 -98 callsubr
          endchar
        </CharString>
        <CharString name="acute.case">
          -240 118 651 -98 callsubr
          endchar
        </CharString>
        <CharString name="acute.loclPLK">
          -240 137 544 -65 callgsubr
          endchar
        </CharString>
        <CharString name="acute.loclPLK.case">
          -240 160 647 -69 callgsubr
          endchar
        </CharString>
        <CharString name="acutecomb">
          -495 -137 651 -98 callsubr
          endchar
        </CharString>
        <CharString name="adieresis">
          18 291 638 -101 callsubr
          -78 -436 -107 callgsubr
          endchar
        </CharString>
        <CharString name="ae">
          209 492 -9 -66 callgsubr
        </CharString>
        <CharString name="aeacute">
          209 333 558 -98 callsubr
          175 -586 -66 callgsubr
        </CharString>
        <CharString name="agrave">
          18 407 558 -80 callgsubr
          215 -459 -107 callgsubr
          endchar
        </CharString>
        <CharString name="amacron">
          18 207 -43 callgsubr
          -16 -429 -107 callgsubr
          endchar
        </CharString>
        <CharString name="ampersand">
          85 481 220 rmoveto
          96 -5 rlineto
          58 -271 vlineto
          7 -44 86 -5 -31 -165 rlineto
          -7 -21 -52 -13 -44 hhcurveto
          -91 -50 50 66 139 88 32 116 hvcurveto
          8 45 rlineto
          -46 4 -60 19 71 vvcurveto
          80 53 29 57 37 27 -7 -9 25 vhcurveto
          4 -97 rlineto
          37 hlineto
          -14 callsubr
          19 -52 -44 13 -81 hhcurveto
          -72 -105 -40 -111 -56 24 -29 39 -27 hvcurveto
          -117 -28 -59 -82 -97 vvcurveto
          -108 69 -54 127 100 81 26 21 45 vhcurveto
          endchar
        </CharString>
        <CharString name="aogonek">
          18 368 -236 rmoveto
          64 37 50 0 hvcurveto
          -63 callsubr
          55 53 81 59 29 hvcurveto
          -77 callsubr
          61 314 -31 8 -22 -39 rlineto
          0 -53 15 -44 -174 -111 -133 -225 -116 53 -34 63 47 75 41 61 44 vhcurveto
          -76 callsubr
          11 12 2 3 14 vhcurveto
          -71 -56 -36 -56 -50 -14 callgsubr
          vhcurveto
          -185 289 -17 callgsubr
        </CharString>
        <CharString name="approxequal">
          14 83 323 rmoveto
          40 26 23 16 30 54 68 -55 53 hhcurveto
          43 39 33 1 callgsubr
          -67 -33 hvcurveto
          30 -169 rmoveto
          40 26 23 16 30 54 68 -53 53 hhcurveto
          43 39 31 64 35 hvcurveto
          -32 19 rlineto
          -39 -25 -19 -15 -37 -59 -56 53 -60 hhcurveto
          -42 -38 -28 -66 -33 hvcurveto
          endchar
        </CharString>
        <CharString name="aring">
          18 307 -49 callgsubr
          -163 -579 rmoveto
          47 75 41 61 44 hvcurveto
          -76 callsubr
          27 29 9 19 55 vhcurveto
          -77 callsubr
          61 314 -31 8 -22 -39 rlineto
          0 -53 15 -44 -174 -111 -133 -225 -116 53 -34 63 vhcurveto
          33 61 -17 callgsubr
        </CharString>
        <CharString name="aringacute">
          18 308 713 -98 callsubr
          20 -211 -77 callgsubr
          90 -354 -107 callgsubr
          endchar
        </CharString>
        <CharString name="arrowdown">
          73 73 319 rmoveto
          211 -290 rlineto
          13 hlineto
          198 290 -27 28 -145 -173 13 317 rlineto
          -92 hlineto
          13 -317 -157 173 rlineto
          endchar
        </CharString>
        <CharString name="arrowleft">
          73 198 299 rmoveto
          172 145 -27 27 -290 -198 rlineto
          -13 vlineto
          290 -211 27 28 -172 156 317 -13 rlineto
          93 vlineto
          endchar
        </CharString>
        <CharString name="arrowright">
          73 225 49 rmoveto
          290 211 rlineto
          13 vlineto
          -290 198 -28 -27 172 -145 -316 14 rlineto
          -93 vlineto
          316 13 -172 -156 rlineto
          endchar
        </CharString>
        <CharString name="arrowup">
          73 495 201 rmoveto
          -211 290 rlineto
          -14 hlineto
          -197 -290 26 -28 146 173 -15 -317 rlineto
          94 hlineto
          -14 317 157 -173 rlineto
          endchar
        </CharString>
        <CharString name="asciicircum">
          26 56 252 rmoveto
          69 hlineto
          137 280 135 -280 rlineto
          69 hlineto
          -176 358 rlineto
          -57 hlineto
          endchar
        </CharString>
        <CharString name="asciitilde">
          26 168 283 rmoveto
          54 68 -53 53 hhcurveto
          43 39 31 1 callgsubr
          -66 -33 hvcurveto
          30 -20 rlineto
          40 26 23 15 30 hhcurveto
          endchar
        </CharString>
        <CharString name="asterisk">
          -145 104 431 rmoveto
          80 110 rlineto
          4 hlineto
          38 -110 69 46 -69 90 3 5 127 19 -9 76 -123 -57 -4 3 42 125 rlineto
          -77 hlineto
          -5 -125 -6 -1 -102 55 -37 -76 118 -19 1 -5 -106 -90 rlineto
          endchar
        </CharString>
        <CharString name="at">
          257 434 560 rmoveto
          -247 -169 -197 -188 -160 96 -98 167 102 89 25 45 84 hvcurveto
          -12 28 rlineto
          -38 -96 -76 -11 -78 hhcurveto
          -133 -66 74 130 191 145 156 197 132 83 -83 -105 -103 -63 -124 -99 -13 -6 6 18 57 70 258 1 1 hvcurveto
          6 -11 1 -6 -8 -9 -1 0 vhcurveto
          -16 -25 rlineto
          4 -16 -23 3 -22 hhcurveto
          -150 -86 -134 -120 -68 31 -57 68 47 44 30 58 31 hvcurveto
          -2 -12 -2 -13 -11 vvcurveto
          -29 10 -23 32 158 115 136 146 111 -89 116 -204 vhcurveto
          -116 -451 rmoveto
          -31 -15 24 44 84 47 124 89 16 15 -2 -7 18 hvcurveto
          -147 -21 -48 -120 -70 hhcurveto
          endchar
        </CharString>
        <CharString name="atilde">
          18 472 677 rmoveto
          -84 callsubr
          33 75 -20 callgsubr
          7 callsubr
          -64 -475 -107 callgsubr
          endchar
        </CharString>
        <CharString name="b">
          25 206 -8 rmoveto
          219 62 215 161 106 -45 31 -60 -48 -89 -41 -61 -44 hvcurveto
          -2 3 58 278 22 vvcurveto
          13 -6 8 -13 -28 -63 -14 -21 -57 vhcurveto
          5 -22 75 -10 -125 -633 rlineto
          -14 28 55 -21 78 hhcurveto
          10 45 rmoveto
          -28 -39 11 18 -13 hvcurveto
          99 19 35 178 1 hhcurveto
          43 28 80 58 37 hhcurveto
          39 26 -22 -69 -142 -46 -174 -139 hvcurveto
          endchar
        </CharString>
        <CharString name="backslash">
          -141 70 696 rmoveto
          -56 hlineto
          270 -834 rlineto
          58 hlineto
          endchar
        </CharString>
        <CharString name="bar">
          -124 222 696 rmoveto
          -73 -834 73 hlineto
          endchar
        </CharString>
        <CharString name="braceleft">
          -205 178 674 rmoveto
          -50 -372 -78 -35 -3 -15 65 -35 -95 -374 150 -35 16 26 -84 37 91 357 -95 31 107 32 48 356 98 37 -5 27 rlineto
          endchar
        </CharString>
        <CharString name="braceright">
          -205 -45 -192 rmoveto
          161 35 52 374 77 35 3 15 -64 35 93 372 -147 37 -17 -27 84 -37 -90 -356 95 -32 -107 -31 -49 -357 -97 -37 rlineto
          endchar
        </CharString>
        <CharString name="bracketleft">
          -205 195 -166 rmoveto
          7 34 -115 8 151 780 119 7 -62 callgsubr
          -189 hlineto
          -168 -862 rlineto
          endchar
        </CharString>
        <CharString name="bracketright">
          -205 102 696 rmoveto
          -6 -33 115 -7 -151 -780 -118 -8 -7 -34 rlineto
          188 hlineto
          168 862 rlineto
          endchar
        </CharString>
        <CharString name="breve">
          -240 194 581 -103 callgsubr
          endchar
        </CharString>
        <CharString name="breve.case">
          -240 211 669 -103 callgsubr
          endchar
        </CharString>
        <CharString name="brokenbar">
          -124 222 696 rmoveto
          -73 -323 73 hlineto
          -189 vmoveto
          -73 -322 73 hlineto
          endchar
        </CharString>
        <CharString name="bullet">
          -17 384 347 rmoveto
          81 -66 64 -79 -81 -64 -64 -81 -79 64 -66 81 79 66 66 79 vhcurveto
          endchar
        </CharString>
        <CharString name="c">
          -104 339 453 -87 callsubr
        </CharString>
        <CharString name="cacute">
          -100 211 558 -98 callsubr
          142 -124 -87 callsubr
        </CharString>
        <CharString name="cacute.loclPLK">
          -104 244 544 -65 callgsubr
          114 -102 -87 callsubr
        </CharString>
        <CharString name="caron">
          -240 113 -80 callsubr
          endchar
        </CharString>
        <CharString name="caron.case">
          -240 120 804 -86 callsubr
          endchar
        </CharString>
        <CharString name="ccaron">
          -100 203 -80 callsubr
          42 -170 -87 callsubr
        </CharString>
        <CharString name="ccedilla">
          -100 337 453 rmoveto
          10 -85 rlineto
          33 hlineto
          24 114 rlineto
          16 -31 -40 7 -38 hhcurveto
          -180 -84 -176 -181 -99 48 -48 71 -8 hvcurveto
          -31 -59 -76 callgsubr
          -35 callsubr
          19 35 42 1 50 10 43 22 rlinecurve
          -11 35 rlineto
          -12 -34 -32 -7 -28 hhcurveto
          -70 -21 36 89 130 58 164 119 12 15 -1 -5 14 hvcurveto
          endchar
        </CharString>
        <CharString name="ccircumflex">
          -104 385 -78 callsubr
          37 -185 -87 callsubr
        </CharString>
        <CharString name="cdotaccent">
          -104 302 580 -58 callsubr
          37 -127 -87 callsubr
        </CharString>
        <CharString name="cedilla">
          -240 -219 vmoveto
          -35 callsubr
          28 52 rlineto
          -31 hlineto
          -39 -74 -76 callgsubr
          endchar
        </CharString>
        <CharString name="cent">
          -3 184 32 rmoveto
          -22 -122 rlineto
          45 hlineto
          22 120 51 1 59 19 48 27 rlinecurve
          32 vlineto
          -15 -37 -59 -11 -57 hhcurveto
          -81 -28 50 77 135 49 178 135 29 35 -7 -8 21 hvcurveto
          6 -95 rlineto
          37 hlineto
          32 127 -31 19 -52 12 -43 2 rlinecurve
          22 120 rlineto
          -45 hlineto
          -22 -120 rlineto
          -158 -10 -96 -155 -191 vvcurveto
          -106 46 -66 94 -13 vhcurveto
          endchar
        </CharString>
        <CharString name="circumflex">
          -240 288 -78 callsubr
          endchar
        </CharString>
        <CharString name="circumflex.case">
          -240 322 650 -94 callgsubr
          endchar
        </CharString>
        <CharString name="colon">
          -235 136 -2 callsubr
          -54 -371 rmoveto
          36 31 29 37 38 -31 29 -36 -36 -29 -29 -38 -37 29 -29 36 hvcurveto
          endchar
        </CharString>
        <CharString name="comma">
          -319 -2 -120 6 callsubr
        </CharString>
        <CharString name="commaaccentInverted">
          -298 78 8 callsubr
          endchar
        </CharString>
        <CharString name="copyright">
          11 10 452 rmoveto
          -133 109 -110 134 -8 callgsubr
          vhcurveto
          33 hmoveto
          119 92 92 118 119 92 -92 -119 -119 -92 -92 -119 -118 -92 92 119 vhcurveto
          305 -137 rmoveto
          -4 56 rlineto
          -24 hlineto
          -13 -41 rlineto
          -4 -18 -12 -2 -15 hhcurveto
          -75 -11 66 65 78 16 52 72 13 14 -2 -4 16 hvcurveto
          13 -46 rlineto
          24 hlineto
          4 66 rlineto
          9 -31 -29 6 -31 hhcurveto
          -102 -39 -67 -92 -102 35 -57 106 37 25 5 14 29 hvcurveto
          endchar
        </CharString>
        <CharString name="currency">
          64 54 79 rmoveto
          37 -50 66 54 rlineto
          -23 28 38 -13 44 hhcurveto
          43 43 12 24 38 hvcurveto
          43 -53 57 50 -43 51 rlineto
          39 42 25 58 54 vvcurveto
          29 -7 27 -11 25 vhcurveto
          63 53 -39 48 -63 -53 rlineto
          24 -28 -39 14 -43 hhcurveto
          -44 -42 -14 -24 -38 hvcurveto
          -42 54 -59 -49 43 -53 rlineto
          -39 -44 -25 -55 -58 vvcurveto
          -28 6 -27 12 -23 vhcurveto
          50 117 rmoveto
          78 15 74 63 77 hhcurveto
          68 48 -49 -66 -88 -85 -77 -85 -68 -47 48 64 9 1 9 2 9 hvcurveto
          endchar
        </CharString>
        <CharString name="d">
          17 -88 callsubr
          46 61 -56 callgsubr
        </CharString>
        <CharString name="dagger">
          -49 199 hmoveto
          62 433 -9 callgsubr
          -108 -433 rlineto
          endchar
        </CharString>
        <CharString name="daggerdbl">
          -49 130 hmoveto
          86 hlineto
          7 128 124 -19 17 88 -132 -19 50 128 rlineto
          127 vlineto
          -9 callgsubr
          -50 -127 rlineto
          -128 vlineto
          -123 19 -17 -88 130 19 rlineto
          endchar
        </CharString>
        <CharString name="dcaron">
          69 -88 callsubr
          438 534 -12 callgsubr
          -376 -673 -56 callgsubr
        </CharString>
        <CharString name="dcroat">
          17 139 -8 rmoveto
          48 96 41 60 44 hvcurveto
          0 -6 -54 -6 vvcurveto
          -26 11 -15 34 26 30 -42 callsubr
          29 -80 vlineto
          4 60 9 36 10 56 69 383 rcurveline
          66 46 -57 hlineto
          5 26 9 46 7 vvcurveto
          11 -7 7 -11 -28 -59 -6 -19 -60 vhcurveto
          5 -23 76 -9 -8 -40 rlineto
          -158 -46 148 hlineto
          -17 -88 rlineto
          5 -21 -21 4 -35 hhcurveto
          -154 -128 -132 -243 -107 45 -31 60 hvcurveto
          46 61 -56 callgsubr
        </CharString>
        <CharString name="degree">
          -42 384 557 rmoveto
          86 -71 71 -87 -87 -70 -71 -86 -88 70 -69 87 87 71 69 88 vhcurveto
          -158 123 rmoveto
          69 39 -56 -67 -68 -39 -55 -69 -68 -40 55 68 67 40 56 68 hvcurveto
          endchar
        </CharString>
        <CharString name="dieresis">
          -240 163 638 -101 callsubr
          endchar
        </CharString>
        <CharString name="dieresis.case">
          -240 180 726 -101 callsubr
          endchar
        </CharString>
        <CharString name="divide">
          26 260 382 rmoveto
          32 28 26 32 33 -28 27 -32 -32 -28 -27 -33 -32 28 -26 32 hvcurveto
          -191 -100 14 callgsubr
          191 -219 rmoveto
          32 28 24 33 34 -28 26 -32 -32 -28 -26 -34 -33 28 -24 32 hvcurveto
          endchar
        </CharString>
        <CharString name="dollar">
          -3 162 -116 rmoveto
          41 hlineto
          21 119 rlineto
          126 16 72 77 116 vvcurveto
          55 -25 33 -49 21 vhcurveto
          -94 41 rlineto
          -45 19 -25 22 40 vvcurveto
          78 57 43 84 22 43 -3 -5 16 vhcurveto
          4 -93 rlineto
          33 hlineto
          32 124 -39 13 -43 10 -44 2 rlinecurve
          19 101 rlineto
          -40 hlineto
          -19 -101 rlineto
          -122 -6 -80 -78 -123 vvcurveto
          -59 29 -28 44 -18 vhcurveto
          98 -41 rlineto
          44 -19 20 -29 -39 vvcurveto
          -70 -56 -53 -91 -42 -37 8 6 -21 vhcurveto
          -2 83 rlineto
          -35 hlineto
          -33 -114 rlineto
          -19 42 60 -11 57 hhcurveto
          endchar
        </CharString>
        <CharString name="dotaccent">
          -240 203 580 -58 callsubr
          endchar
        </CharString>
        <CharString name="dotaccent.case">
          -240 280 -61 callgsubr
          endchar
        </CharString>
        <CharString name="dotbelowcomb">
          -495 -195 -41 -100 callgsubr
        </CharString>
        <CharString name="dotlessi">
          -203 227 483 -92 callsubr
          endchar
        </CharString>
        <CharString name="e">
          -89 310 505 -106 callsubr
          endchar
        </CharString>
        <CharString name="eacute">
          -74 223 558 -98 callsubr
          103 -72 -106 callsubr
          endchar
        </CharString>
        <CharString name="ebreve">
          -89 270 581 -103 callgsubr
          40 -76 -106 callsubr
          endchar
        </CharString>
        <CharString name="ecaron">
          -89 202 -80 callsubr
          16 -118 -106 callsubr
          endchar
        </CharString>
        <CharString name="ecircumflex">
          -89 394 -78 callsubr
          -1 -133 -106 callsubr
          endchar
        </CharString>
        <CharString name="edieresis">
          -89 260 638 -101 callsubr
          -145 -133 -106 callsubr
          endchar
        </CharString>
        <CharString name="edotaccent">
          -89 301 697 rmoveto
          -32 -28 -27 -33 -33 28 -24 32 31 29 24 33 -60 callgsubr
          hvcurveto
          9 -192 -106 callsubr
          endchar
        </CharString>
        <CharString name="egrave">
          -89 379 558 -80 callgsubr
          145 -156 -106 callsubr
          endchar
        </CharString>
        <CharString name="eight">
          -60 callsubr
        </CharString>
        <CharString name="eight.dnom">
          -94 154 -9 -91 callgsubr
        </CharString>
        <CharString name="eight.numr">
          -94 154 163 rmoveto
          109 72 64 84 50 -41 22 -43 23 hvcurveto
          97 38 20 53 36 vvcurveto
          44 -36 34 -80 -112 -52 -64 -70 -40 22 -24 -39 callsubr
          -39 93 vhcurveto
          63 261 rmoveto
          -37 21 -23 25 29 vvcurveto
          45 40 28 47 36 18 -20 -28 -45 -28 -29 -53 -26 vhcurveto
          -58 -222 rmoveto
          -36 -25 13 39 54 36 41 40 22 hvcurveto
          12 -5 rlineto
          37 -16 33 -28 -36 vvcurveto
          -55 -49 -29 -48 vhcurveto
          endchar
        </CharString>
        <CharString name="eight.osf">
          -60 callsubr
        </CharString>
        <CharString name="ellipsis">
          73 43 47 rmoveto
          -31 24 -25 30 31 26 25 31 31 -26 24 -31 -30 -24 -24 -31 vhcurveto
          185 hmoveto
          -31 25 -25 30 31 25 25 31 31 -25 24 -31 -30 -25 -24 -31 vhcurveto
          186 hmoveto
          -31 23 -25 31 30 27 25 31 31 -27 24 -30 -31 -23 -24 -31 vhcurveto
          endchar
        </CharString>
        <CharString name="emacron">
          -89 193 -43 callgsubr
          -100 -126 -106 callsubr
          endchar
        </CharString>
        <CharString name="emdash">
          347 829 212 rmoveto
          9 49 rlineto
          -829 hlineto
          -9 -49 rlineto
          endchar
        </CharString>
        <CharString name="endash">
          233 718 212 rmoveto
          9 49 rlineto
          -716 hlineto
          -9 -49 rlineto
          endchar
        </CharString>
        <CharString name="eng">
          70 437 506 rmoveto
          -59 -99 -53 -68 -62 hvcurveto
          -74 callgsubr
          -88 -446 95 15 54 325 rlineto
          63 49 79 46 44 hhcurveto
          19 14 -9 -23 -36 -26 -123 -50 -249 hvcurveto
          -87 -18 -36 -25 -62 hhcurveto
          -28 -27 5 6 -22 hvcurveto
          -8 -37 rlineto
          -12 20 39 -17 50 hhcurveto
          92 58 58 99 21 hvcurveto
          54 262 30 148 44 vvcurveto
          44 -24 18 -37 vhcurveto
          endchar
        </CharString>
        <CharString name="eogonek">
          -89 228 -236 rmoveto
          64 37 50 0 hvcurveto
          -63 callsubr
          53 49 83 58 33 hvcurveto
          5 3 -7 33 rlineto
          -9 -23 -29 -9 -25 hhcurveto
          -97 -29 26 91 23 2 27 6 30 hvcurveto
          188 103 65 103 66 -49 32 -56 -198 -79 -185 -165 -114 51 -50 108 15 16 2 3 16 hvcurveto
          -63 -57 -31 -56 -48 -14 callgsubr
          vhcurveto
          -95 509 rmoveto
          117 24 54 67 77 hhcurveto
          35 15 -26 -31 -83 -80 -44 -125 hvcurveto
          endchar
        </CharString>
        <CharString name="equal">
          26 69 363 14 callgsubr
          -217 vmoveto
          4 callgsubr
        </CharString>
        <CharString name="estimated">
          191 148 289 rmoveto
          511 14 hlineto
          176 -140 140 -176 -174 -141 -140 -176 -174 141 -141 174 103 108 53 78 49 vhcurveto
          -51 hlineto
          -65 -50 -76 -34 -82 hhcurveto
          -75 -69 30 58 -50 hvcurveto
          -3 4 -4 7 8 vvcurveto
          159 vlineto
          2 3 1 2 vhcurveto
          396 193 rmoveto
          -159 vlineto
          -2 -1 -2 -2 vhcurveto
          -393 hlineto
          -2 -3 2 2 hvcurveto
          156 vlineto
          8 4 7 4 6 vhcurveto
          57 50 61 29 82 hhcurveto
          89 54 -28 -56 50 hvcurveto
          4 -5 3 -7 -8 vvcurveto
          endchar
        </CharString>
        <CharString name="eth">
          2 183 -9 rmoveto
          148 109 110 189 20 hvcurveto
          2 17 1 15 1 16 rrcurveto
          24 vlineto
          -2 83 -37 91 -59 83 86 55 rcurveline
          -22 35 -89 -56 -27 33 -30 30 -32 29 rlinecurve
          -26 -24 28 -33 24 -31 20 -31 rlinecurve
          -93 -59 22 -37 93 59 16 -29 12 -29 10 -30 rlinecurve
          2 -14 -15 2 -16 hhcurveto
          -162 -118 -133 -229 -100 47 -52 103 hvcurveto
          19 49 -75 callsubr
        </CharString>
        <CharString name="exclam">
          -264 77 187 rmoveto
          41 hlineto
          114 424 rlineto
          -104 hlineto
          -56 -620 rmoveto
          31 26 25 31 31 -26 24 -31 -31 -23 -24 -31 -31 23 -25 31 hvcurveto
          endchar
        </CharString>
        <CharString name="exclamdown">
          -264 149 389 rmoveto
          31 23 24 31 31 -23 25 -31 -31 -26 -25 -31 -31 26 -24 31 hvcurveto
          -160 -509 rmoveto
          104 hlineto
          51 424 rlineto
          -41 hlineto
          endchar
        </CharString>
        <CharString name="f">
          -194 -21 -167 rmoveto
          -34 callgsubr
          22 -4 -10 28 15 callsubr
          -33 -44 14 -74 callsubr
          endchar
        </CharString>
        <CharString name="f_f">
          107 -21 -167 rmoveto
          -34 callgsubr
          22 -4 -10 28 15 callsubr
          -33 -44 14 -74 callsubr
          301 hmoveto
          -34 callgsubr
          22 -4 -10 28 15 callsubr
          -33 -44 14 -74 callsubr
          endchar
        </CharString>
        <CharString name="fi">
          72 9 callgsubr
          194 hlineto
          -28 -144 -54 -241 -22 vvcurveto
          -26 13 -16 33 25 -33 callsubr
          -85 vlineto
          29 151 57 257 14 vvcurveto
          -26 callsubr
          vhcurveto
          -251 hlineto
          9 53 rlineto
          95 16 30 25 73 hhcurveto
          28 13 -3 -5 16 15 callsubr
          -24 -32 8 -74 callsubr
          512 749 rmoveto
          31 27 26 31 32 -27 26 -31 -32 -27 -26 -32 -31 27 -26 32 hvcurveto
          endchar
        </CharString>
        <CharString name="five">
          -3 454 611 16 callsubr
          149 81 -34 -93 -103 -93 -70 -121 -29 -17 0 6 -41 hvcurveto
          -8 -47 rlineto
          -9 37 34 0 30 hhcurveto
          183 117 96 140 77 -40 91 -226 17 callsubr
        </CharString>
        <CharString name="five.dnom">
          -94 375 441 rmoveto
          -228 hlineto
          -55 -200 13 -17 rlineto
          103 55 -18 -57 -70 -56 -43 -70 -24 -30 4 16 -40 hvcurveto
          -17 -39 rlineto
          -15 32 45 -10 47 hhcurveto
          116 74 70 96 52 -33 53 -158 3 hvcurveto
          33 116 rlineto
          182 hlineto
          endchar
        </CharString>
        <CharString name="five.numr">
          -94 374 602 -36 callgsubr
          endchar
        </CharString>
        <CharString name="five.osf">
          -2 437 523 16 callsubr
          151 79 -34 -95 -101 -91 -73 -133 -16 -20 1 6 -41 hvcurveto
          -8 -45 rlineto
          -8 33 37 -4 36 hhcurveto
          177 118 100 137 79 -39 91 -227 17 callsubr
        </CharString>
        <CharString name="fiveeighths">
          457 362 -47 callsubr
          -185 -9 -36 callgsubr
          340 -566 -91 callgsubr
        </CharString>
        <CharString name="fl">
          77 -19 -167 rmoveto
          -34 callgsubr
          34 -4 -5 28 hvcurveto
          -102 -557 rlineto
          -3 -10 -8 -45 -10 vvcurveto
          -28 12 -16 36 25 42 10 20 58 vhcurveto
          30 -89 vlineto
          48 264 65 354 3 15 rrcurveto
          1 5 1 10 8 vvcurveto
          9 -1 11 -15 -18 -31 -20 -8 -13 vhcurveto
          15 -33 -55 13 -74 callsubr
          endchar
        </CharString>
        <CharString name="florin">
          -3 53 -169 rmoveto
          60 63 39 93 16 hvcurveto
          65 373 rlineto
          135 hlineto
          6 38 rlineto
          -133 hlineto
          132 17 40 67 61 hhcurveto
          14 20 -3 -3 10 hvcurveto
          14 -65 rlineto
          29 hlineto
          14 92 rlineto
          13 -33 -38 9 -38 hhcurveto
          -97 -62 -80 -162 -24 hvcurveto
          -89 hlineto
          -8 -38 rlineto
          90 hlineto
          -60 -344 rlineto
          -79 -14 -23 -35 -48 hhcurveto
          -62 1 -6 -23 rlineto
          -15 26 33 -10 22 hhcurveto
          endchar
        </CharString>
        <CharString name="four">
          -3 245 hmoveto
          77 hlineto
          23 130 -22 callgsubr
        </CharString>
        <CharString name="four.dnom">
          -94 216 hmoveto
          -50 callsubr
        </CharString>
        <CharString name="four.numr">
          -94 216 171 rmoveto
          70 hlineto
          19 96 rlineto
          60 hlineto
          9 46 rlineto
          -60 hlineto
          55 287 -54 6 -288 -306 5 -33 rlineto
          203 hlineto
          -136 46 rmoveto
          183 195 -38 -195 rlineto
          endchar
        </CharString>
        <CharString name="four.osf">
          -4 227 -90 rmoveto
          77 hlineto
          23 131 -22 callgsubr
        </CharString>
        <CharString name="fraction">
          -259 -19 -47 callsubr
          endchar
        </CharString>
        <CharString name="g">
          10 128 -178 -101 callgsubr
        </CharString>
        <CharString name="g_tilde.loclGUA">
          -9 391 584 rmoveto
          -19 callsubr
          33 75 -20 callgsubr
          -271 -762 -101 callgsubr
        </CharString>
        <CharString name="gbreve">
          -9 314 581 -103 callgsubr
          -194 -759 -101 callgsubr
        </CharString>
        <CharString name="gcaron">
          10 235 -80 callsubr
          -199 -801 -101 callgsubr
        </CharString>
        <CharString name="gcircumflex">
          10 412 -78 callsubr
          -201 -816 -101 callgsubr
        </CharString>
        <CharString name="gcommaaccent">
          -9 288 8 callsubr
          -153 -751 -101 callgsubr
        </CharString>
        <CharString name="gdotaccent">
          10 329 580 -58 callsubr
          -201 -758 -101 callgsubr
        </CharString>
        <CharString name="germandbls">
          122 387 -9 rmoveto
          113 73 58 88 hvcurveto
          132 -165 -1 98 83 117 13 109 vvcurveto
          79 -59 50 -93 -117 -78 -75 -137 -25 vhcurveto
          -6 callsubr
          90 473 rlineto
          88 17 34 37 62 hhcurveto
          57 30 -29 -53 hvcurveto
          -105 -118 -21 -100 -119 170 -3 -105 vvcurveto
          -46 -38 -28 -61 -19 -22 3 6 -27 vhcurveto
          75 -28 vlineto
          -37 -111 rlineto
          -12 31 52 -9 45 hhcurveto
          endchar
        </CharString>
        <CharString name="grave">
          -240 300 558 -80 callgsubr
          endchar
        </CharString>
        <CharString name="grave.case">
          -240 318 651 -80 callgsubr
          endchar
        </CharString>
        <CharString name="gravecomb">
          -495 63 651 -80 callgsubr
          endchar
        </CharString>
        <CharString name="greater">
          26 104 -5 callgsubr
          endchar
        </CharString>
        <CharString name="greaterequal">
          14 98 -5 callgsubr
          -6 -139 rmoveto
          4 callgsubr
        </CharString>
        <CharString name="guillemotleft">
          -83 42 2 callgsubr
          89 -355 rmoveto
          40 22 -52 155 112 155 -31 23 -169 -178 rlineto
          endchar
        </CharString>
        <CharString name="guillemotright">
          -83 43 71 rmoveto
          169 178 -100 177 -40 -22 52 -155 -112 -155 rlineto
          189 -23 rmoveto
          169 178 -100 177 -39 -22 51 -155 -111 -155 rlineto
          endchar
        </CharString>
        <CharString name="guilsinglleft">
          -233 41 2 callgsubr
          endchar
        </CharString>
        <CharString name="guilsinglright">
          -233 130 426 rmoveto
          -40 -22 52 -155 -112 -155 31 -23 169 178 rlineto
          endchar
        </CharString>
        <CharString name="h">
          56 45 -9 -73 callgsubr
          20 103 40 204 12 vvcurveto
          14 -5 10 -13 -30 -63 -15 -21 -56 vhcurveto
          4 -22 75 -10 rlineto
          endchar
        </CharString>
        <CharString name="hbar">
          56 45 -9 -73 callgsubr
          10 53 16 80 13 67 rrcurveto
          129 hlineto
          9 46 rlineto
          -130 hlineto
          5 26 9 45 8 vvcurveto
          11 -7 7 -11 -28 -60 -6 -19 -61 vhcurveto
          5 -23 76 -9 -8 -40 rlineto
          -83 hlineto
          -9 -46 rlineto
          83 hlineto
          endchar
        </CharString>
        <CharString name="hcircumflex">
          56 339 734 -94 callgsubr
          -200 -828 -73 callgsubr
          20 103 40 204 12 vvcurveto
          14 -5 10 -13 -30 -63 -15 -21 -56 vhcurveto
          4 -22 75 -10 rlineto
          endchar
        </CharString>
        <CharString name="hookabovecomb">
          -495 -98 556 -104 callgsubr
          endchar
        </CharString>
        <CharString name="hungarumlaut">
          -240 57 544 -65 callgsubr
          180 -11 -65 callgsubr
          endchar
        </CharString>
        <CharString name="hungarumlaut.case">
          -240 78 647 -69 callgsubr
          180 -11 -69 callgsubr
          endchar
        </CharString>
        <CharString name="hyphen">
          -214 269 212 rmoveto
          9 49 rlineto
          -264 hlineto
          -9 -49 rlineto
          endchar
        </CharString>
        <CharString name="i">
          -206 209 -58 callgsubr
          25 -33 callsubr
          -85 vlineto
          29 151 59 269 14 vvcurveto
          endchar
        </CharString>
        <CharString name="i.loclTRK">
          -203 222 580 -58 callsubr
          5 -97 -92 callsubr
          endchar
        </CharString>
        <CharString name="iacute">
          -203 95 558 -98 callsubr
          29 -586 -67 callgsubr
        </CharString>
        <CharString name="iacute_j.loclNLD">
          74 127 558 -98 callsubr
          301 -19 -98 callsubr
          -169 -94 -92 callsubr
          299 -1 rmoveto
          -85 callgsubr
          -12 callsubr
          vhcurveto
          -34 callsubr
          endchar
        </CharString>
        <CharString name="ibreve">
          -203 213 581 -103 callgsubr
          14 -98 -92 callsubr
          endchar
        </CharString>
        <CharString name="icircumflex">
          -203 71 552 rmoveto
          109 86 73 -86 25 18 -58 139 rlineto
          -60 hlineto
          -109 -138 rlineto
          57 -580 -67 callgsubr
        </CharString>
        <CharString name="idieresis">
          -203 153 638 rmoveto
          -45 callsubr
          30 27 25 30 vhcurveto
          167 hmoveto
          -44 callsubr
          30 28 25 30 vhcurveto
          -93 -155 -92 callsubr
          endchar
        </CharString>
        <CharString name="igrave">
          -203 247 558 -80 callgsubr
          75 -670 -67 callgsubr
        </CharString>
        <CharString name="ij">
          45 209 697 rmoveto
          -32 -27 -26 -32 -31 27 -26 32 31 27 26 31 32 -27 26 -31 hvcurveto
          270 -115 -52 callsubr
          -253 -99 -37 callsubr
          -53 -239 -22 vvcurveto
          -26 13 -16 33 25 -33 callsubr
          -85 vlineto
          29 151 59 269 14 vvcurveto
          14 -650 rmoveto
          -12 callsubr
          hvcurveto
          -34 callsubr
          -85 callgsubr
          vhcurveto
          endchar
        </CharString>
        <CharString name="imacron">
          -203 67 -43 callgsubr
          -57 -148 -92 callsubr
          endchar
        </CharString>
        <CharString name="infinity">
          213 353 351 rmoveto
          40 -29 -53 56 -79 hhcurveto
          -119 -26 -84 -55 -56 26 -83 119 79 53 57 40 29 hvcurveto
          -40 30 53 -57 78 hhcurveto
          120 27 83 56 55 -27 84 -120 -78 -53 -56 -40 -30 hvcurveto
          -247 -43 rmoveto
          33 11 52 74 63 47 -56 -29 23 vhcurveto
          -28 -23 -47 -57 -63 hhcurveto
          -74 -11 51 34 hvcurveto
          496 hmoveto
          -34 -11 -51 -74 -65 -46 57 28 -23 vhcurveto
          29 24 45 56 65 hhcurveto
          74 11 -52 -33 hvcurveto
          endchar
        </CharString>
        <CharString name="integral">
          -107 122 -134 rmoveto
          79 45 44 89 hvcurveto
          607 vlineto
          44 22 15 22 12 11 -4 -7 8 vhcurveto
          12 -63 rlineto
          31 hlineto
          13 83 rlineto
          18 -20 -40 9 -25 hhcurveto
          -79 -44 -44 -89 hvcurveto
          -607 vlineto
          -45 -23 -15 -22 -12 -11 4 7 -8 vhcurveto
          -12 62 rlineto
          -31 hlineto
          -12 -83 rlineto
          -17 21 39 -8 24 hhcurveto
          endchar
        </CharString>
        <CharString name="iogonek">
          -203 218 -58 callgsubr
          12 16 2 5 19 vhcurveto
          -73 -56 -35 -56 -51 -14 callgsubr
          64 37 50 0 vhcurveto
          -63 callsubr
          54 52 78 60 32 hvcurveto
          30 -85 vlineto
          29 151 59 269 14 vvcurveto
          endchar
        </CharString>
        <CharString name="itilde">
          -203 232 584 rmoveto
          7 callsubr
          -31 12 rlineto
          0 -20 -35 -23 vhcurveto
          -35 -51 40 -34 hhcurveto
          -33 -20 -42 -52 -21 hvcurveto
          30 -12 rlineto
          0 23 36 22 vhcurveto
          33 53 -20 callgsubr
          -124 -593 -67 callgsubr
        </CharString>
        <CharString name="j">
          -218 216 -24 callgsubr
          -239 -749 rmoveto
          -12 callsubr
          hvcurveto
          -34 callsubr
          -85 callgsubr
          vhcurveto
          endchar
        </CharString>
        <CharString name="jcircumflex">
          -218 298 -78 callsubr
          19 -156 rmoveto
          -85 callgsubr
          -12 callsubr
          vhcurveto
          -34 callsubr
          endchar
        </CharString>
        <CharString name="k">
          4 140 7 rmoveto
          54 326 -62 callsubr
          27 144 32 154 9 callsubr
          -23 76 -10 -130 -668 rlineto
          endchar
        </CharString>
        <CharString name="kcommaaccent">
          -4 47 -9 rmoveto
          95 16 54 326 -62 callsubr
          27 144 32 154 9 callsubr
          -23 76 -10 rlineto
          -13 -880 -70 callgsubr
        </CharString>
        <CharString name="kgreenlandic">
          16 152 6 rmoveto
          55 327 -62 callsubr
          8 44 9 32 9 callsubr
          -25 75 -8 -88 -446 rlineto
          endchar
        </CharString>
        <CharString name="l">
          -205 105 -9 -83 callsubr
          endchar
        </CharString>
        <CharString name="lacute">
          -203 109 728 -98 callsubr
          14 -756 -83 callsubr
          endchar
        </CharString>
        <CharString name="lcaron">
          -194 107 -9 -83 callsubr
          207 535 -12 callgsubr
          endchar
        </CharString>
        <CharString name="lcommaaccent">
          -203 107 -9 -83 callsubr
          -47 -212 -70 callgsubr
        </CharString>
        <CharString name="ldot">
          -205 105 -9 -83 callsubr
          271 445 -22 callsubr
        </CharString>
        <CharString name="less">
          26 417 -1 callsubr
          endchar
        </CharString>
        <CharString name="lessequal">
          14 411 -1 callsubr
          5 -278 rmoveto
          4 callgsubr
        </CharString>
        <CharString name="logicalnot">
          26 403 137 rmoveto
          50 199 -385 -54 335 hlineto
          endchar
        </CharString>
        <CharString name="longs">
          -194 343 727 rmoveto
          -116 -33 -48 -191 -41 hvcurveto
          -6 callsubr
          96 496 rlineto
          95 18 26 25 71 hhcurveto
          28 22 -4 -10 28 15 callsubr
          -33 -44 14 -30 hhcurveto
          endchar
        </CharString>
        <CharString name="lozenge">
          14 226 -1 rmoveto
          57 hlineto
          169 305 -169 306 rlineto
          -57 hlineto
          -169 -306 rlineto
          197 -227 rmoveto
          -130 227 130 228 128 -228 rlineto
          endchar
        </CharString>
        <CharString name="lslash">
          -203 204 375 rmoveto
          109 56 -22 38 -77 -39 49 259 rlineto
          1 5 0 5 6 vvcurveto
          11 -4 11 -15 -31 -67 -15 -23 -57 vhcurveto
          5 -22 77 -10 -51 -275 -111 -57 20 -39 81 41 rlineto
          -36 -193 -16 -84 -15 vvcurveto
          -28 12 -16 36 25 42 10 20 58 vhcurveto
          30 -89 vlineto
          endchar
        </CharString>
        <CharString name="m">
          292 59 -9 rmoveto
          95 16 53 324 rlineto
          52 40 77 56 43 hhcurveto
          20 2 -9 -24 -20 -49 -216 -36 -179 hvcurveto
          94 16 59 330 rlineto
          49 41 73 53 42 hhcurveto
          20 2 -9 -24 hvcurveto
          -37 -75 -293 -33 vvcurveto
          -36 26 -16 37 29 35 11 17 39 -13 callsubr
          28 130 52 230 34 vvcurveto
          44 -13 18 -35 -58 -94 -56 -58 -53 vhcurveto
          5 22 3 22 8 vvcurveto
          44 -14 18 -35 -60 -100 -60 -61 -51 vhcurveto
          4 21 11 61 -10 callgsubr
          10 -10 -29 -63 -16 -20 -55 vhcurveto
          4 -24 76 -8 rlineto
          endchar
        </CharString>
        <CharString name="macron">
          -240 92 -43 callgsubr
          endchar
        </CharString>
        <CharString name="macron.case">
          -240 104 743 -40 callgsubr
          endchar
        </CharString>
        <CharString name="minus">
          14 63 282 14 callgsubr
          endchar
        </CharString>
        <CharString name="multiply">
          26 129 141 rmoveto
          131 132 132 -131 36 38 -131 130 131 131 -38 37 -130 -130 -130 131 -38 -38 131 -131 -131 -130 rlineto
          endchar
        </CharString>
        <CharString name="n">
          70 217 385 -96 callgsubr
          endchar
        </CharString>
        <CharString name="nacute">
          70 281 558 -98 callsubr
          -46 -192 -96 callgsubr
          endchar
        </CharString>
        <CharString name="nacute.loclPLK">
          70 301 544 -65 callgsubr
          -65 -170 -96 callgsubr
          endchar
        </CharString>
        <CharString name="napostrophe">
          105 197 526 -12 callgsubr
          36 -341 -96 callgsubr
          endchar
        </CharString>
        <CharString name="ncaron">
          70 250 -80 callsubr
          -123 -238 -96 callgsubr
          endchar
        </CharString>
        <CharString name="ncommaaccent">
          70 59 -9 rmoveto
          95 15 54 325 rlineto
          63 49 79 46 44 hhcurveto
          19 14 -9 -23 hvcurveto
          -39 -75 -293 -33 vvcurveto
          -37 26 -15 37 28 37 11 17 38 vhcurveto
          29 -86 vlineto
          30 132 52 230 34 vvcurveto
          44 -24 18 -37 -59 -99 -53 -68 -62 vhcurveto
          -74 callgsubr
          rlineto
          47 -658 -70 callgsubr
        </CharString>
        <CharString name="nine">
          -3 54 -15 rmoveto
          199 5 208 170 290 vvcurveto
          101 -63 76 -105 -182 -56 -148 -76 -98 36 -66 110 62 54 27 32 37 vhcurveto
          -41 -143 -103 -113 -162 -20 rrcurveto
          184 272 rmoveto
          -60 -27 47 62 96 42 77 89 68 31 -39 -90 -33 -3 -33 -6 -32 hvcurveto
          -19 -26 -57 -36 -51 hhcurveto
          endchar
        </CharString>
        <CharString name="nine.dnom">
          -94 25 12 rmoveto
          -13 30 34 -8 44 hhcurveto
          86 111 45 200 38 0 callsubr
          -44 70 31 38 9 19 44 vhcurveto
          -110 -26 -60 -45 -72 hhcurveto
          -24 -29 5 16 callgsubr
          18 44 69 43 58 61 43 17 -26 -49 -22 -3 13 callgsubr
          -14 -30 hhcurveto
          endchar
        </CharString>
        <CharString name="nine.numr">
          -94 25 183 rmoveto
          -13 30 34 -7 44 hhcurveto
          86 110 45 199 39 0 callsubr
          -42 70 31 38 7 20 44 vhcurveto
          -111 -26 -61 -44 -72 hhcurveto
          -24 -29 4 10 -31 hvcurveto
          158 158 rmoveto
          -34 -25 19 44 70 44 56 60 43 17 -25 -48 -22 -4 -28 -6 -32 hvcurveto
          -20 -28 -37 -14 -30 hhcurveto
          endchar
        </CharString>
        <CharString name="nine.osf">
          -2 35 -100 rmoveto
          200 1 207 190 244 vvcurveto
          134 -63 65 -115 -172 -56 -143 -93 -86 47 -66 105 55 42 18 41 50 vhcurveto
          -41 -139 -103 -110 -162 -19 rrcurveto
          183 264 rmoveto
          -59 -27 45 71 88 42 78 91 66 31 -40 -92 -29 -3 -34 -6 -32 hvcurveto
          -19 -26 -56 -36 -53 hhcurveto
          endchar
        </CharString>
        <CharString name="notequal">
          14 158 90 rmoveto
          64 110 rlineto
          225 52 -195 hlineto
          65 111 rlineto
          130 54 -100 hlineto
          50 84 -46 27 -64 -111 rlineto
          -224 -54 194 hlineto
          -66 -111 rlineto
          -128 -52 98 hlineto
          -48 -84 rlineto
          endchar
        </CharString>
        <CharString name="ntilde">
          70 499 677 rmoveto
          -84 callsubr
          33 75 -20 callgsubr
          7 callsubr
          -280 -292 -96 callgsubr
          endchar
        </CharString>
        <CharString name="numbersign">
          73 398 222 rmoveto
          32 111 rlineto
          117 hlineto
          15 53 rlineto
          -117 hlineto
          49 177 rlineto
          -56 hlineto
          -50 -177 rlineto
          -139 hlineto
          49 177 rlineto
          -54 hlineto
          -50 -177 rlineto
          -128 hlineto
          -14 -53 rlineto
          127 hlineto
          -31 -111 rlineto
          -128 hlineto
          -14 -53 rlineto
          129 hlineto
          -49 -178 rlineto
          54 hlineto
          48 178 rlineto
          141 hlineto
          -49 -178 rlineto
          55 hlineto
          49 178 rlineto
          118 hlineto
          14 53 rlineto
          -313 hmoveto
          32 111 rlineto
          140 hlineto
          -31 -111 rlineto
          endchar
        </CharString>
        <CharString name="o">
          2 313 505 -102 callgsubr
        </CharString>
        <CharString name="oacute">
          2 230 558 -98 callsubr
          99 -72 -102 callgsubr
        </CharString>
        <CharString name="oacute.loclPLK">
          2 267 544 -65 callgsubr
          65 -50 -102 callgsubr
        </CharString>
        <CharString name="obreve">
          2 316 581 -73 callsubr
          -76 -102 callgsubr
        </CharString>
        <CharString name="ocircumflex">
          2 421 -78 callsubr
          -25 -41 callsubr
        </CharString>
        <CharString name="odieresis">
          2 298 638 -101 callsubr
          -180 -41 callsubr
        </CharString>
        <CharString name="oe">
          240 183 -9 rmoveto
          75 66 29 53 49 hvcurveto
          -57 21 48 -25 78 hhcurveto
          43 47 12 24 44 hvcurveto
          -7 33 rlineto
          -9 -23 -29 -9 -25 hhcurveto
          -97 -29 26 91 24 2 22 6 34 hvcurveto
          188 103 65 103 66 -49 32 -56 -81 -61 -31 -48 -44 hvcurveto
          52 -19 -46 27 -74 hhcurveto
          -162 -118 -133 -229 -100 47 -52 103 hvcurveto
          278 282 rmoveto
          117 24 54 67 77 hhcurveto
          35 15 -26 -31 -83 -80 -44 -125 hvcurveto
          -259 -233 -75 callsubr
        </CharString>
        <CharString name="ogonek">
          -240 103 hmoveto
          -34 hlineto
          -83 -60 -32 -61 -44 -14 callgsubr
          64 37 50 0 vhcurveto
          -63 callsubr
          54 43 58 37 33 hvcurveto
          endchar
        </CharString>
        <CharString name="ograve">
          2 404 558 -80 callgsubr
          -7 -670 rmoveto
          -70 callsubr
          -28 callsubr
          -162 -118 -133 -229 -100 47 -52 103 hvcurveto
          19 49 -75 callsubr
        </CharString>
        <CharString name="ohorn">
          2 595 488 -90 callsubr
        </CharString>
        <CharString name="ohungarumlaut">
          2 181 544 -65 callgsubr
          180 -11 -65 callgsubr
          -10 -50 -102 callgsubr
        </CharString>
        <CharString name="omacron">
          2 207 -43 callgsubr
          -111 -126 -102 callgsubr
        </CharString>
        <CharString name="one">
          -3 399 33 rmoveto
          -139 27 101 554 -250 -36 -7 -37 rlineto
          158 hlineto
          -87 -481 12 callsubr
        </CharString>
        <CharString name="one.dnom">
          -131 97 373 rmoveto
          113 hlineto
          -72 -373 0 callgsubr
        </CharString>
        <CharString name="one.numr">
          -131 107 546 -15 callgsubr
          endchar
        </CharString>
        <CharString name="one.osf">
          -4 398 33 rmoveto
          -139 27 87 474 -250 -36 -7 -37 rlineto
          158 hlineto
          -73 -401 12 callsubr
        </CharString>
        <CharString name="oneeighth">
          419 302 -47 callsubr
          -392 -65 -15 callgsubr
          555 -583 -91 callgsubr
        </CharString>
        <CharString name="onehalf">
          387 261 -47 callsubr
          -345 2 callsubr
          273 -546 rmoveto
          300 hlineto
          29 102 -33 2 -38 -30 callgsubr
          -40 vhcurveto
          11 -35 rlineto
          17 42 37 10 39 hhcurveto
          5 callsubr
          endchar
        </CharString>
        <CharString name="onequarter">
          387 262 -47 callsubr
          -368 2 callsubr
          476 -546 rmoveto
          -50 callsubr
        </CharString>
        <CharString name="ordfeminine">
          -43 346 -54 callgsubr
        </CharString>
        <CharString name="ordmasculine">
          -53 263 -32 callsubr
        </CharString>
        <CharString name="oslash">
          2 106 -92 -54 callsubr
        </CharString>
        <CharString name="oslashacute">
          2 230 558 -98 callsubr
          -108 -669 -54 callsubr
        </CharString>
        <CharString name="otilde">
          2 464 677 rmoveto
          -84 callsubr
          33 75 -20 callgsubr
          7 callsubr
          -151 -172 -102 callgsubr
        </CharString>
        <CharString name="p">
          43 28 -16 callgsubr
          0 13 62 26 vvcurveto
          14 -5 10 -13 -29 -62 -15 -20 -55 vhcurveto
          5 -24 74 -7 rlineto
          93 -395 rmoveto
          -28 -32 13 13 -16 hvcurveto
          47 273 rlineto
          39 30 80 63 7 callgsubr
        </CharString>
        <CharString name="paragraph">
          30 213 204 rmoveto
          11 13 1 3 9 hvcurveto
          77 407 rlineto
          2 -8 -10 1 -11 hhcurveto
          -149 -102 -122 -133 -91 57 -68 113 hvcurveto
          -83 -204 rmoveto
          292 hlineto
          7 33 -92 20 97 503 99 21 7 34 rlineto
          -178 hlineto
          -107 -557 -118 -20 rlineto
          endchar
        </CharString>
        <CharString name="parenleft">
          -205 144 264 rmoveto
          40 206 30 154 147 60 -6 27 rcurveline
          -200 -54 -32 -105 -56 -288 rrcurveto
          -21 -108 -15 -82 -64 vvcurveto
          -104 39 -53 112 -34 vhcurveto
          16 27 rlineto
          -67 31 -22 59 80 vvcurveto
          69 16 84 19 95 vhcurveto
          endchar
        </CharString>
        <CharString name="parenright">
          -205 145 264 rmoveto
          -40 -205 -30 -155 -146 -58 6 -27 rcurveline
          197 54 34 105 56 286 rrcurveto
          21 108 14 82 63 vvcurveto
          106 -39 54 -111 34 vhcurveto
          -16 -27 rlineto
          67 -32 22 -60 -80 vvcurveto
          -65 -17 -88 -18 -95 vhcurveto
          endchar
        </CharString>
        <CharString name="partialdiff">
          19 57 667 rmoveto
          13 -24 rlineto
          24 48 30 9 45 hhcurveto
          148 32 -109 -139 11 hvcurveto
          2 -58 23 -57 -146 -82 -89 -135 -133 58 -106 138 109 134 66 281 276 -111 116 -140 -66 -60 -17 -45 -46 vhcurveto
          202 -626 rmoveto
          -101 -28 67 116 128 56 56 84 53 36 -15 -13 29 hvcurveto
          3 -42 1 -25 -35 vvcurveto
          -150 -45 -87 -88 vhcurveto
          endchar
        </CharString>
        <CharString name="percent">
          387 192 -56 callsubr
          15 69 rmoveto
          -21 callgsubr
          endchar
        </CharString>
        <CharString name="period">
          -297 139 52 rmoveto
          33 -29 28 -34 -33 -29 -28 -33 -34 29 -27 33 34 29 27 34 vhcurveto
          endchar
        </CharString>
        <CharString name="periodcentered">
          -253 178 252 -22 callsubr
        </CharString>
        <CharString name="perthousand">
          761 201 -56 callsubr
          374 hmoveto
          112 101 130 179 105 -54 36 -72 -114 -100 -130 -177 -104 54 -39 73 hvcurveto
          -359 69 rmoveto
          -21 callgsubr
          374 hmoveto
          -21 callgsubr
          endchar
        </CharString>
        <CharString name="pi">
          108 73 40 rmoveto
          -28 vlineto
          -13 38 30 -3 29 hhcurveto
          33 18 21 54 hvcurveto
          345 157 -255 vlineto
          -145 28 -19 90 17 32 5 17 33 vhcurveto
          -5 31 rlineto
          -46 hlineto
          -53 -17 38 55 hvcurveto
          273 35 vlineto
          62 9 43 71 hvcurveto
          16 -34 vlineto
          -40 -18 -15 -32 vhcurveto
          -354 hlineto
          -62 -44 -54 -63 hvcurveto
          30 -7 rlineto
          37 25 10 12 58 hhcurveto
          8 -358 hlineto
          endchar
        </CharString>
        <CharString name="plus">
          14 228 -5 callsubr
          endchar
        </CharString>
        <CharString name="plusminus">
          26 234 -5 callsubr
          -165 -251 rmoveto
          4 callgsubr
        </CharString>
        <CharString name="product">
          164 39 hmoveto
          263 33 hlineto
          -90 20 rlineto
          505 235 -505 vlineto
          -89 -20 rlineto
          -33 262 33 vlineto
          -90 20 rlineto
          505 vlineto
          90 20 rlineto
          33 -581 -33 vlineto
          90 -20 rlineto
          -505 vlineto
          -90 -20 rlineto
          endchar
        </CharString>
        <CharString name="q">
          5 484 514 rmoveto
          -32 8 -23 -33 rlineto
          10 -30 -32 6 -48 hhcurveto
          -173 -113 -131 -248 -108 46 -26 61 53 81 36 61 50 hvcurveto
          -52 -267 91 16 11 100 rlineto
          0 109 574 1 2 vhcurveto
          -150 -364 rmoveto
          -44 -28 -71 -53 -50 hhcurveto
          -39 -25 17 70 126 45 194 143 33 37 -15 -15 10 hvcurveto
          -99 -18 -36 -181 -1 hhcurveto
          endchar
        </CharString>
        <CharString name="question">
          -125 129 159 rmoveto
          14 15 3 0 hvcurveto
          7 22 rlineto
          0 -30 0 21 vvcurveto
          23 35 29 49 35 vhcurveto
          123 90 47 54 66 vvcurveto
          74 -62 52 -87 -66 -65 -26 -17 -26 vhcurveto
          11 -31 rlineto
          0 63 24 55 52 37 -24 -60 -38 -37 -60 -84 -67 vhcurveto
          -61 -49 -48 -42 -31 vvcurveto
          -32 20 -16 38 vhcurveto
          -34 -168 rmoveto
          31 25 24 31 31 -25 25 -31 -31 -24 -25 -31 -31 24 -24 31 hvcurveto
          endchar
        </CharString>
        <CharString name="questiondown">
          -125 275 389 rmoveto
          31 24 25 31 31 -24 24 -31 -31 -25 -24 -31 -31 25 -25 31 hvcurveto
          -142 -526 rmoveto
          54 77 26 17 26 hvcurveto
          -11 31 rlineto
          0 -63 -24 -55 -52 -37 24 60 38 37 60 84 67 vhcurveto
          61 49 48 42 31 vvcurveto
          32 -20 16 -38 -14 -15 -3 0 vhcurveto
          -7 -22 rlineto
          0 30 0 -21 vvcurveto
          -23 -35 -29 -49 -35 vhcurveto
          -123 -90 -47 -54 -66 vvcurveto
          -74 62 -52 87 vhcurveto
          endchar
        </CharString>
        <CharString name="quotedbl">
          -186 81 697 rmoveto
          -10 -230 rlineto
          23 hlineto
          79 230 rlineto
          40 hmoveto
          -9 -230 rlineto
          22 hlineto
          78 230 rlineto
          endchar
        </CharString>
        <CharString name="quotedblbase">
          -141 -17 5 callgsubr
          171 -6 rmoveto
          124 211 -12 17 -79 -18 -55 -204 rlineto
          endchar
        </CharString>
        <CharString name="quotedblleft">
          -173 200 652 -7 callsubr
          129 5 -7 callsubr
          endchar
        </CharString>
        <CharString name="quotedblright">
          -173 64 424 -7 callgsubr
          171 -6 -7 callgsubr
          endchar
        </CharString>
        <CharString name="quoteleft">
          -323 210 652 -7 callsubr
          endchar
        </CharString>
        <CharString name="quoteright">
          -323 73 424 -7 callgsubr
          endchar
        </CharString>
        <CharString name="quotesinglbase">
          -290 -8 5 callgsubr
          endchar
        </CharString>
        <CharString name="quotesingle">
          -315 111 697 rmoveto
          -10 -230 rlineto
          24 hlineto
          78 230 rlineto
          endchar
        </CharString>
        <CharString name="r">
          -38 callsubr
          endchar
        </CharString>
        <CharString name="racute">
          -104 225 558 -98 callsubr
          -150 -586 -87 callgsubr
          endchar
        </CharString>
        <CharString name="radical">
          15 510 678 rmoveto
          84 20 -1 29 rlineto
          -123 hlineto
          -198 -615 -112 379 rlineto
          -137 hlineto
          1 -29 60 -21 155 -454 41 9 rlineto
          endchar
        </CharString>
        <CharString name="rcaron">
          -104 252 552 rmoveto
          60 hlineto
          120 145 -20 19 -120 -93 -92 92 -27 -18 rlineto
          -114 -706 -87 callgsubr
          endchar
        </CharString>
        <CharString name="rcommaaccent">
          -38 callsubr
          -104 -658 -70 callgsubr
        </CharString>
        <CharString name="registered">
          11 253 209 rmoveto
          -8 callgsubr
          -133 109 -110 134 hvcurveto
          32 vmoveto
          -118 -93 92 119 119 93 92 118 119 93 -92 -119 -119 -93 -92 -119 hvcurveto
          -123 63 rmoveto
          117 17 hlineto
          -33 9 rlineto
          114 6 vlineto
          30 3 -3 -137 66 hvcurveto
          77 18 hlineto
          -31 8 -35 63 -20 35 -8 17 -16 5 rlinecurve
          61 13 11 45 28 vvcurveto
          34 -28 40 -75 vhcurveto
          -125 -19 hlineto
          34 -7 rlineto
          -254 vlineto
          -34 -9 rlineto
          84 142 rmoveto
          123 20 vlineto
          48 20 -23 -34 -37 -20 -29 -42 hvcurveto
          endchar
        </CharString>
        <CharString name="ring">
          -240 188 -49 callgsubr
          endchar
        </CharString>
        <CharString name="ring.case">
          -240 205 639 -77 callgsubr
          endchar
        </CharString>
        <CharString name="s">
          -103 244 457 -93 callgsubr
          endchar
        </CharString>
        <CharString name="sacute">
          -103 171 558 -98 callsubr
          89 -120 -93 callgsubr
          endchar
        </CharString>
        <CharString name="sacute.loclPLK">
          -103 214 544 -65 callgsubr
          49 -98 -93 callgsubr
          endchar
        </CharString>
        <CharString name="scaron">
          -103 164 -80 callsubr
          -12 -166 -93 callgsubr
          endchar
        </CharString>
        <CharString name="scedilla">
          -103 244 457 rmoveto
          20 31 -5 -8 15 hvcurveto
          8 -74 rlineto
          29 hlineto
          33 106 rlineto
          20 -39 -47 9 -39 hhcurveto
          -116 -73 -69 -92 -58 35 -33 34 -16 hvcurveto
          76 -35 rlineto
          42 -19 16 -23 -28 vvcurveto
          -66 -45 -27 -69 -37 -23 7 8 -20 vhcurveto
          -7 86 rlineto
          -30 hlineto
          -31 -120 35 -20 46 -7 40 -2 rlinecurve
          -30 -57 -76 callgsubr
          -35 callsubr
          19 36 rlineto
          117 5 68 62 98 vvcurveto
          61 -33 30 -44 21 vhcurveto
          -72 35 rlineto
          -39 19 -20 16 36 vvcurveto
          46 40 36 68 vhcurveto
          endchar
        </CharString>
        <CharString name="scircumflex">
          -103 355 -78 callsubr
          -28 -181 -93 callgsubr
          endchar
        </CharString>
        <CharString name="scommaaccent">
          -103 142 -9 rmoveto
          128 74 64 102 61 -33 30 -44 21 hvcurveto
          -72 35 rlineto
          -39 19 -20 16 36 vvcurveto
          46 40 36 68 20 31 -5 -8 15 vhcurveto
          8 -74 rlineto
          29 hlineto
          33 106 rlineto
          20 -39 -47 9 -39 hhcurveto
          -116 -73 -69 -92 -58 35 -33 34 -16 hvcurveto
          76 -35 rlineto
          42 -19 16 -23 -28 vvcurveto
          -66 -45 -27 -69 -37 -23 7 8 -20 vhcurveto
          -7 86 rlineto
          -30 hlineto
          -31 -120 rlineto
          -22 39 54 -7 42 hhcurveto
          -46 -212 -70 callgsubr
        </CharString>
        <CharString name="section">
          -95 335 569 rmoveto
          4 -76 rlineto
          31 hlineto
          38 106 rlineto
          0 -60 28 -78 -83 -92 -40 -99 -63 61 -31 180 -177 vhcurveto
          5 9 6 11 22 73 -184 93 79 vvcurveto
          69 63 5 36 28 33 -5 -4 12 vhcurveto
          -281 -439 rmoveto
          -27 hlineto
          -34 -118 rlineto
          2 69 -21 79 hhcurveto
          93 90 58 85 51 -60 32 -189 187 hvcurveto
          -6 -9 -5 -20 -11 -78 189 -91 -74 vvcurveto
          -54 -59 -30 -55 -38 -31 9 4 -13 vhcurveto
          endchar
        </CharString>
        <CharString name="semicolon">
          -235 132 -2 callsubr
          -108 -482 6 callsubr
        </CharString>
        <CharString name="seven">
          -3 103 611 rmoveto
          -11 -67 rlineto
          324 hlineto
          -352 -539 78 -25 356 599 -11 32 rlineto
          endchar
        </CharString>
        <CharString name="seven.dnom">
          -94 156 -7 rmoveto
          242 397 -8 callsubr
        </CharString>
        <CharString name="seven.numr">
          -94 166 168 -11 callgsubr
          endchar
        </CharString>
        <CharString name="seven.osf">
          -3 86 523 rmoveto
          -11 -67 rlineto
          319 hlineto
          -147 -180 -114 -175 -87 -186 80 -21 rcurveline
          88 206 111 191 156 200 -11 32 rcurveline
          endchar
        </CharString>
        <CharString name="seveneighths">
          465 351 -47 callsubr
          -382 -443 -11 callgsubr
          621 -183 -91 callgsubr
        </CharString>
        <CharString name="six">
          -50 callgsubr
        </CharString>
        <CharString name="six.dnom">
          -94 153 -9 11 callgsubr
          -40 -12 -24 -34 3 callgsubr
          6 -20 -21 3 -21 hhcurveto
          -85 -146 -59 -210 -40 hvcurveto
          -4 -23 -3 -30 callsubr
          46 27 39 hhcurveto
          42 13 -23 -34 -71 -37 -60 -77 hvcurveto
          endchar
        </CharString>
        <CharString name="six.numr">
          -94 154 162 rmoveto
          177 21 148 31 51 -29 42 -80 -45 -39 -13 -24 -35 hvcurveto
          115 31 88 57 69 hhcurveto
          10 16 -1 -4 21 hvcurveto
          12 37 rlineto
          5 -20 -22 3 -21 hhcurveto
          -85 -145 -59 -209 -41 hvcurveto
          -4 -23 -3 -21 -20 vvcurveto
          -67 30 -48 94 vhcurveto
          6 40 rmoveto
          -43 -15 32 45 16 2 17 3 19 hvcurveto
          32 28 46 28 39 hhcurveto
          42 13 -24 -33 -72 -39 -60 -76 hvcurveto
          endchar
        </CharString>
        <CharString name="six.osf">
          -50 callgsubr
        </CharString>
        <CharString name="slash">
          -142 334 669 rmoveto
          -61 hlineto
          -238 -737 rlineto
          60 hlineto
          endchar
        </CharString>
        <CharString name="space">
          -310 endchar
        </CharString>
        <CharString name="sterling">
          -3 186 151 rmoveto
          20 112 rlineto
          176 hlineto
          16 44 rlineto
          -184 hlineto
          6 36 rlineto
          129 24 24 94 86 hhcurveto
          20 17 -3 -5 19 hvcurveto
          4 -94 rlineto
          38 hlineto
          32 127 rlineto
          17 -36 -45 11 -52 hhcurveto
          -132 -40 -103 -209 -39 hvcurveto
          -88 hlineto
          -15 -44 rlineto
          96 hlineto
          -21 -110 rlineto
          -13 -69 -103 -43 0 vvcurveto
          5 -41 rlineto
          376 hlineto
          44 90 -13 14 -55 -44 -263 -10 42 20 47 47 7 34 rlinecurve
          endchar
        </CharString>
        <CharString name="summation">
          27 424 474 rmoveto
          38 147 -452 -45 hlineto
          233 -307 -233 -317 rlineto
          -30 457 169 -38 vlineto
          -25 -91 rlineto
          -294 hlineto
          213 288 rlineto
          10 vlineto
          -200 271 rlineto
          277 hlineto
          endchar
        </CharString>
        <CharString name="t">
          -159 231 439 rmoveto
          -61 callsubr
          -27 11 -16 35 14 callsubr
          vhcurveto
          31 -105 vlineto
          endchar
        </CharString>
        <CharString name="tbar">
          -159 348 439 rmoveto
          54 -107 vlineto
          19 107 rlineto
          -31 hlineto
          -71 -110 -102 -28 4 -23 rlineto
          88 hlineto
          -25 -127 rlineto
          -87 hlineto
          -8 -46 rlineto
          86 hlineto
          -22 -109 -21 -106 -17 vvcurveto
          -27 11 -16 35 14 callsubr
          vhcurveto
          31 -105 vlineto
          43 216 rlineto
          111 46 -101 hlineto
          25 127 rlineto
          endchar
        </CharString>
        <CharString name="tcaron">
          -153 322 726 rmoveto
          16 -200 rlineto
          23 hlineto
          37 186 -48 14 rlineto
          -120 -287 rmoveto
          -61 callsubr
          -27 11 -16 35 14 callsubr
          vhcurveto
          31 -105 vlineto
          endchar
        </CharString>
        <CharString name="thorn">
          21 12 -16 callgsubr
          45 255 rlineto
          7 37 2 13 6 vvcurveto
          11 -4 11 -15 -31 -63 -15 -23 -57 vhcurveto
          5 -22 77 -10 rlineto
          55 -612 rmoveto
          -28 -33 13 13 -16 hvcurveto
          37 211 5 31 5 32 rrcurveto
          39 31 80 62 7 callgsubr
        </CharString>
        <CharString name="three">
          -3 263 627 -18 callsubr
          -106 -91 -58 -4 callsubr
          96 119 1 callsubr
        </CharString>
        <CharString name="three.dnom">
          -94 264 439 -72 callgsubr
        </CharString>
        <CharString name="three.numr">
          -94 264 609 rmoveto
          -50 -54 -18 -20 -39 hvcurveto
          -53 callsubr
          -24 callsubr
          vhcurveto
          endchar
        </CharString>
        <CharString name="three.osf">
          -3 245 534 -18 callsubr
          -105 -91 -57 -4 callsubr
          95 118 1 callsubr
        </CharString>
        <CharString name="threeeighths">
          458 361 -47 callsubr
          -294 -2 rmoveto
          -50 -54 -18 -20 -39 hvcurveto
          -53 callsubr
          -24 callsubr
          vhcurveto
          442 -618 -91 callgsubr
        </CharString>
        <CharString name="threequarters">
          387 327 -47 callsubr
          -376 -448 rmoveto
          -24 callsubr
          -50 -54 -18 -20 -39 vhcurveto
          -53 callsubr
          543 -163 rmoveto
          -50 callsubr
        </CharString>
        <CharString name="tilde">
          -240 348 677 rmoveto
          -84 callsubr
          33 75 -20 callgsubr
          7 callsubr
          endchar
        </CharString>
        <CharString name="tilde.case">
          -240 371 765 -98 callgsubr
          endchar
        </CharString>
        <CharString name="tildecomb">
          -495 116 765 -98 callgsubr
          endchar
        </CharString>
        <CharString name="trademark">
          364 64 277 rmoveto
          192 25 hlineto
          -64 11 rlineto
          291 78 vlineto
          12 -52 rlineto
          30 hlineto
          4 92 rlineto
          -311 hlineto
          3 -92 rlineto
          29 hlineto
          13 52 rlineto
          78 -291 hlineto
          -64 -11 rlineto
          468 -31 rmoveto
          47 7 106 299 12 -264 -54 -11 rlineto
          -24 171 24 vlineto
          -56 11 -13 294 53 12 rlineto
          25 -126 vlineto
          -105 -293 -101 293 rlineto
          -129 -25 hlineto
          48 -11 -12 -295 -48 -11 rlineto
          -24 141 24 vlineto
          -53 11 9 266 rlineto
          endchar
        </CharString>
        <CharString name="two">
          -3 12 hmoveto
          383 hlineto
          17 78 -310 -16 182 150 rlineto
          118 98 57 95 86 vvcurveto
          101 -68 35 -91 -80 -57 -31 -28 -52 vhcurveto
          10 -39 rlineto
          24 55 62 12 29 hhcurveto
          75 25 -38 -45 -82 -39 -66 -92 -80 hvcurveto
          -234 -204 rlineto
          endchar
        </CharString>
        <CharString name="two.dnom">
          -94 238 394 rmoveto
          5 callsubr
          -38 300 vlineto
          29 102 -33 2 -38 -30 callgsubr
          -40 vhcurveto
          11 -35 rlineto
          17 42 37 10 39 hhcurveto
          endchar
        </CharString>
        <CharString name="two.numr">
          -94 -46 callsubr
          endchar
        </CharString>
        <CharString name="two.osf">
          -1 14 hmoveto
          383 hlineto
          17 78 -302 -16 122 79 rlineto
          142 92 59 85 85 vvcurveto
          93 -72 38 -90 -78 -65 -28 -25 -44 vhcurveto
          11 -45 rlineto
          24 56 57 12 38 hhcurveto
          69 26 -38 -49 -66 -46 -53 -111 -83 hvcurveto
          -181 -135 rlineto
          endchar
        </CharString>
        <CharString name="u">
          67 146 -8 -107 callsubr
          endchar
        </CharString>
        <CharString name="uacute">
          67 270 558 -98 callsubr
          -106 -585 -107 callsubr
          endchar
        </CharString>
        <CharString name="ubreve">
          67 348 581 -103 callgsubr
          -202 -589 -107 callsubr
          endchar
        </CharString>
        <CharString name="ucircumflex">
          67 238 -3 callgsubr
          -70 -579 -107 callsubr
          endchar
        </CharString>
        <CharString name="udieresis">
          67 257 583 -81 callgsubr
          -303 -591 -107 callsubr
          endchar
        </CharString>
        <CharString name="ugrave">
          67 415 558 -80 callgsubr
          -53 -669 -107 callsubr
          endchar
        </CharString>
        <CharString name="uhorn">
          67 444 202 -99 callsubr
          endchar
        </CharString>
        <CharString name="uhungarumlaut">
          67 225 544 -65 callgsubr
          180 -11 -65 callgsubr
          -219 -563 -107 callsubr
          endchar
        </CharString>
        <CharString name="umacron">
          67 233 579 rmoveto
          217 hlineto
          8 52 rlineto
          -217 hlineto
          -93 -639 -107 callsubr
          endchar
        </CharString>
        <CharString name="underscore">
          -43 438 -59 rmoveto
          8 40 rlineto
          -440 hlineto
          -7 -40 rlineto
          endchar
        </CharString>
        <CharString name="uni00A0">
          -310 endchar
        </CharString>
        <CharString name="uni00AD">
          -202 279 212 rmoveto
          49 -264 -49 vlineto
          endchar
        </CharString>
        <CharString name="uni00B2">
          -94 236 674 rmoveto
          42 22 -22 -35 -59 -41 -48 -60 -49 hvcurveto
          -175 -143 rlineto
          -39 290 vlineto
          29 102 -32 4 -39 -56 rlineto
          -168 hlineto
          134 104 rlineto
          77 60 61 64 72 vvcurveto
          65 -53 24 -69 -52 -55 -17 -20 -40 vhcurveto
          11 -35 rlineto
          18 42 37 10 39 hhcurveto
          endchar
        </CharString>
        <CharString name="uni00B3">
          -94 264 714 rmoveto
          -50 -55 -18 -21 -39 hvcurveto
          9 -34 rlineto
          18 41 36 10 24 hhcurveto
          40 19 -18 -27 -52 -41 -47 -90 -9 hvcurveto
          -4 -34 rlineto
          54 60 -6 -59 -74 -58 -32 -65 -26 -28 3 17 -41 hvcurveto
          -17 -39 rlineto
          -15 33 44 -8 47 hhcurveto
          106 82 48 101 48 -32 32 -55 11 hvcurveto
          55 22 54 42 66 vvcurveto
          50 -45 25 -58 vhcurveto
          endchar
        </CharString>
        <CharString name="uni00B5">
          -59 callgsubr
        </CharString>
        <CharString name="uni00B9">
          -94 103 650 rmoveto
          113 hlineto
          -72 -372 0 callgsubr
        </CharString>
        <CharString name="uni0162">
          17 93 611 rmoveto
          -19 -140 rlineto
          34 hlineto
          36 88 -20 callsubr
          hlineto
          -98 -506 -105 -64 callsubr
          126 hlineto
          -35 -66 -76 callgsubr
          -35 callsubr
          23 44 rlineto
          123 -37 callgsubr
          -96 20 98 506 -20 callsubr
          -88 37 hlineto
          33 140 rlineto
          endchar
        </CharString>
        <CharString name="uni0163">
          -153 230 439 rmoveto
          -61 callsubr
          -25 9 -15 29 -3 vhcurveto
          -30 -57 -76 callgsubr
          -35 callsubr
          19 37 30 3 43 8 45 15 rlinecurve
          31 -105 vlineto
          endchar
        </CharString>
        <CharString name="uni018F">
          126 255 -9 rmoveto
          189 142 157 247 153 -80 78 -167 -81 -65 -17 -20 -53 hvcurveto
          -14 -115 rlineto
          34 hlineto
          40 84 rlineto
          15 49 41 5 36 hhcurveto
          128 41 -74 -117 1 hvcurveto
          -19 -1 -19 -3 -20 vhcurveto
          -445 hlineto
          -8 -37 -4 -38 -39 vvcurveto
          -129 63 -95 157 vhcurveto
          9 48 rmoveto
          -104 -35 75 103 17 2 21 3 25 hvcurveto
          354 hlineto
          -121 -25 -68 -120 -127 hhcurveto
          endchar
        </CharString>
        <CharString name="uni019D">
          181 496 611 rmoveto
          -6 -33 76 -19 -83 -429 -249 481 rlineto
          -130 -68 callsubr
          70 -19 -98 -559 rlineto
          -87 -15 -39 -25 -62 hhcurveto
          -28 -27 5 6 -22 hvcurveto
          -8 -37 rlineto
          -15 23 35 -14 42 hhcurveto
          83 54 55 102 18 hvcurveto
          54 307 23 133 9 57 254 -495 rcurveline
          46 8 108 559 -6 callgsubr
          endchar
        </CharString>
        <CharString name="uni01C4">
          639 869 804 -86 callsubr
          -982 -722 rmoveto
          262 hlineto
          218 118 204 198 129 -70 80 -158 hvcurveto
          -252 -68 callsubr
          80 -20 -98 -505 -88 -20 rlineto
          1075 114 -85 callsubr
          -779 41 rmoveto
          -33 -36 8 9 -22 hvcurveto
          97 500 rlineto
          3 17 29 3 39 hhcurveto
          107 48 -58 -105 -146 -63 -214 -183 hvcurveto
          endchar
        </CharString>
        <CharString name="uni01C5">
          519 800 -80 callsubr
          -903 -623 rmoveto
          -83 callgsubr
          630 -81 -94 callsubr
          endchar
        </CharString>
        <CharString name="uni01C6">
          409 -88 callsubr
          551 723 rmoveto
          -27 -18 79 -145 rlineto
          60 hlineto
          120 145 -20 19 -120 -93 rlineto
          -9 -663 -94 callsubr
          -588 93 -56 callgsubr
        </CharString>
        <CharString name="uni01C7">
          259 -25 callsubr
          460 -149 rmoveto
          -81 callsubr
        </CharString>
        <CharString name="uni01C8">
          231 665 -24 callgsubr
          -274 -582 rmoveto
          -79 callgsubr
          437 -167 rmoveto
          -12 callsubr
          hvcurveto
          -34 callsubr
          -85 callgsubr
          vhcurveto
          endchar
        </CharString>
        <CharString name="uni01C9">
          72 105 -9 -83 callsubr
          401 591 -52 callsubr
          -239 -749 rmoveto
          -12 callsubr
          hvcurveto
          -34 callsubr
          -85 callgsubr
          vhcurveto
          endchar
        </CharString>
        <CharString name="uni01CA">
          486 496 -38 callgsubr
          -29 -760 rmoveto
          -81 callsubr
        </CharString>
        <CharString name="uni01CB">
          458 892 -24 callgsubr
          -396 29 -93 callsubr
          -52 -778 rmoveto
          -12 callsubr
          hvcurveto
          -34 callsubr
          -85 callgsubr
          vhcurveto
          endchar
        </CharString>
        <CharString name="uni01CC">
          347 781 -24 callgsubr
          -564 -197 -96 callgsubr
          325 -552 rmoveto
          -12 callsubr
          hvcurveto
          -34 callsubr
          -85 callgsubr
          vhcurveto
          endchar
        </CharString>
        <CharString name="uni01CD">
          55 266 804 -86 callsubr
          -12 -499 -103 callsubr
          endchar
        </CharString>
        <CharString name="uni01CE">
          18 239 -80 callsubr
          77 -421 -107 callgsubr
          endchar
        </CharString>
        <CharString name="uni01CF">
          -167 155 804 -86 callsubr
          -268 -722 rmoveto
          13 callsubr
          98 505 -92 callgsubr
          rlineto
          endchar
        </CharString>
        <CharString name="uni01D0">
          -203 128 -80 callsubr
          7 -140 -92 callsubr
          endchar
        </CharString>
        <CharString name="uni01D1">
          301 804 -86 callsubr
          -141 -731 -105 callsubr
          endchar
        </CharString>
        <CharString name="uni01D2">
          2 231 -80 callsubr
          -10 -118 -102 callgsubr
        </CharString>
        <CharString name="uni01D3">
          115 296 804 -86 callsubr
          109 -486 rmoveto
          -48 callsubr
          186 48 157 89 17 vhcurveto
          endchar
        </CharString>
        <CharString name="uni01D4">
          67 263 -80 callsubr
          -209 -631 -107 callsubr
          endchar
        </CharString>
        <CharString name="uni01D5">
          115 315 916 -40 callgsubr
          -194 -190 -101 callsubr
          -46 -490 rmoveto
          -48 callsubr
          186 48 157 89 17 vhcurveto
          endchar
        </CharString>
        <CharString name="uni01D6">
          67 268 798 -40 callgsubr
          -194 -190 -101 callsubr
          -360 -616 -107 callsubr
          endchar
        </CharString>
        <CharString name="uni01D7">
          115 377 824 -98 callsubr
          -3 -117 -101 callsubr
          -46 -490 rmoveto
          -48 callsubr
          186 48 157 89 17 vhcurveto
          endchar
        </CharString>
        <CharString name="uni01D8">
          67 330 706 -98 callsubr
          -3 -117 -101 callsubr
          -360 -616 -107 callsubr
          endchar
        </CharString>
        <CharString name="uni01D9">
          115 329 977 -86 callsubr
          -73 -169 -101 callsubr
          -46 -490 rmoveto
          -48 callsubr
          186 48 157 89 17 vhcurveto
          endchar
        </CharString>
        <CharString name="uni01DA">
          67 282 859 -86 callsubr
          -73 -169 -101 callsubr
          -360 -616 -107 callsubr
          endchar
        </CharString>
        <CharString name="uni01DB">
          115 470 824 -80 callgsubr
          102 -201 -101 callsubr
          -46 -490 rmoveto
          -48 callsubr
          186 48 157 89 17 vhcurveto
          endchar
        </CharString>
        <CharString name="uni01DC">
          67 423 706 -80 callgsubr
          102 -201 -101 callsubr
          -360 -616 -107 callsubr
          endchar
        </CharString>
        <CharString name="uni01EA">
          452 53 rmoveto
          100 75 51 136 142 vvcurveto
          127 -60 93 -158 -222 -121 -200 -211 -129 63 -95 157 36 32 5 9 31 vhcurveto
          -51 -47 -21 -47 -35 vvcurveto
          -38 24 -33 57 50 33 26 24 20 vhcurveto
          -14 16 rlineto
          -16 -18 -18 -6 -18 hhcurveto
          -29 -18 16 33 55 50 63 44 37 hvcurveto
          -320 164 rmoveto
          94 44 267 197 110 32 -79 -98 -144 -64 -218 -180 -104 -35 75 103 vhcurveto
          endchar
        </CharString>
        <CharString name="uni01EB">
          2 325 32 rmoveto
          85 56 54 112 155 vvcurveto
          -28 callsubr
          -162 -118 -133 -229 -100 47 -52 103 23 22 3 5 22 vhcurveto
          -55 -50 -22 -48 -36 -14 callgsubr
          64 37 50 0 vhcurveto
          -63 callsubr
          54 50 68 33 25 hvcurveto
          -206 106 rmoveto
          131 47 186 130 63 19 -39 -59 -131 -47 -186 -129 -63 -20 39 59 vhcurveto
          endchar
        </CharString>
        <CharString name="uni01F1">
          639 -11 hmoveto
          262 hlineto
          218 118 204 198 129 -70 80 -158 hvcurveto
          -252 -68 callsubr
          80 -20 -98 -505 -88 -20 rlineto
          1075 114 -85 callsubr
          -779 41 rmoveto
          -33 -36 8 9 -22 hvcurveto
          97 500 rlineto
          3 17 29 3 39 hhcurveto
          107 48 -58 -105 -146 -63 -214 -183 hvcurveto
          endchar
        </CharString>
        <CharString name="uni01F2">
          519 -11 hmoveto
          -83 callgsubr
          630 -81 -94 callsubr
          endchar
        </CharString>
        <CharString name="uni01F3">
          409 -88 callsubr
          634 -32 -94 callsubr
          -588 93 -56 callgsubr
        </CharString>
        <CharString name="uni01F4">
          92 333 651 -98 callsubr
          166 -103 -97 callsubr
          endchar
        </CharString>
        <CharString name="uni01F5">
          10 234 558 -98 callsubr
          -90 -755 -101 callgsubr
        </CharString>
        <CharString name="uni0200">
          55 276 -71 callgsubr
          29 -568 -103 callsubr
          endchar
        </CharString>
        <CharString name="uni0201">
          18 242 546 -66 callsubr
          121 -497 -107 callgsubr
          endchar
        </CharString>
        <CharString name="uni0202">
          55 379 791 -95 callsubr
          -23 -568 -103 callsubr
          endchar
        </CharString>
        <CharString name="uni0203">
          18 345 705 -95 callsubr
          63 -503 -107 callgsubr
          endchar
        </CharString>
        <CharString name="uni0204">
          33 265 -71 callgsubr
          72 -402 -105 callgsubr
          endchar
        </CharString>
        <CharString name="uni0205">
          -89 188 546 -66 callsubr
          77 -194 -106 callsubr
          endchar
        </CharString>
        <CharString name="uni0206">
          33 368 791 -95 callsubr
          20 -402 -105 callgsubr
          endchar
        </CharString>
        <CharString name="uni0207">
          -89 291 705 -95 callsubr
          19 -200 -106 callsubr
          endchar
        </CharString>
        <CharString name="uni0208">
          -167 165 -71 callgsubr
          -227 -791 rmoveto
          13 callsubr
          98 505 -92 callgsubr
          rlineto
          endchar
        </CharString>
        <CharString name="uni0209">
          -203 131 546 -66 callsubr
          51 -216 -92 callsubr
          endchar
        </CharString>
        <CharString name="uni020A">
          -167 268 791 -95 callsubr
          -279 -791 rmoveto
          13 callsubr
          98 505 -92 callgsubr
          rlineto
          endchar
        </CharString>
        <CharString name="uni020B">
          -203 234 705 -95 callsubr
          -7 -222 -92 callsubr
          endchar
        </CharString>
        <CharString name="uni020C">
          311 -71 callgsubr
          -100 -800 -105 callsubr
          endchar
        </CharString>
        <CharString name="uni020D">
          2 234 546 -66 callsubr
          34 -194 -102 callgsubr
        </CharString>
        <CharString name="uni020E">
          414 791 -95 callsubr
          -152 -800 -105 callsubr
          endchar
        </CharString>
        <CharString name="uni020F">
          2 337 705 -95 callsubr
          -24 -200 -102 callgsubr
        </CharString>
        <CharString name="uni0210">
          49 273 -71 callgsubr
          42 -791 rmoveto
          -96 callsubr
          endchar
        </CharString>
        <CharString name="uni0211">
          -104 181 546 -66 callsubr
          -167 -708 -87 callgsubr
          endchar
        </CharString>
        <CharString name="uni0212">
          49 376 791 -95 callsubr
          -10 -791 rmoveto
          -96 callsubr
          endchar
        </CharString>
        <CharString name="uni0213">
          -104 284 705 -95 callsubr
          -225 -714 -87 callgsubr
          endchar
        </CharString>
        <CharString name="uni0214">
          115 306 -71 callgsubr
          150 -555 rmoveto
          -48 callsubr
          186 48 157 89 17 vhcurveto
          endchar
        </CharString>
        <CharString name="uni0215">
          67 266 546 -66 callsubr
          -165 -707 -107 callsubr
          endchar
        </CharString>
        <CharString name="uni0216">
          115 409 791 -95 callsubr
          98 -555 rmoveto
          -48 callsubr
          186 48 157 89 17 vhcurveto
          endchar
        </CharString>
        <CharString name="uni0217">
          67 369 705 -95 callsubr
          -223 -713 -107 callsubr
          endchar
        </CharString>
        <CharString name="uni021A">
          17 93 611 -64 callgsubr
          -413 -832 -70 callgsubr
        </CharString>
        <CharString name="uni021B">
          -153 116 -9 rmoveto
          14 callsubr
          hvcurveto
          31 -105 vlineto
          78 389 rlineto
          -61 callsubr
          -27 11 -16 35 vhcurveto
          -39 -212 -70 callgsubr
        </CharString>
        <CharString name="uni0232">
          45 247 743 -40 callgsubr
          -87 -165 -91 callsubr
          endchar
        </CharString>
        <CharString name="uni0232.loclGUA">
          145 297 743 -40 callgsubr
          -309 -910 -102 callsubr
        </CharString>
        <CharString name="uni0233">
          -46 191 -43 callgsubr
          -341 -809 -100 callsubr
          endchar
        </CharString>
        <CharString name="uni0233.loclGUA">
          49 238 -43 callgsubr
          -289 -798 -99 callgsubr
        </CharString>
        <CharString name="uni0237">
          -218 234 482 rmoveto
          -85 callgsubr
          -12 callsubr
          vhcurveto
          -34 callsubr
          endchar
        </CharString>
        <CharString name="uni0259">
          -89 96 -12 rmoveto
          198 79 185 165 114 -51 50 -108 -43 -47 -12 -24 -44 hvcurveto
          7 -33 rlineto
          9 23 29 9 25 hhcurveto
          97 29 -26 -91 -23 -2 -27 -6 -30 hvcurveto
          -188 -103 -65 -103 -66 49 -32 56 hvcurveto
          22 48 rmoveto
          -35 -15 26 31 83 80 44 125 hvcurveto
          -117 -24 -54 -67 -77 hhcurveto
          endchar
        </CharString>
        <CharString name="uni0272">
          70 416 48 rmoveto
          30 132 52 230 34 vvcurveto
          44 -24 18 -37 -59 -99 -53 -68 -62 vhcurveto
          5 21 12 61 -10 callgsubr
          10 -13 -31 -63 -28 callgsubr
          76 -8 -76 -437 rlineto
          -87 -15 -39 -25 -63 hhcurveto
          -27 -27 5 6 -22 hvcurveto
          -8 -37 rlineto
          0 45 -29 63 -12 callsubr
          vhcurveto
          18 104 22 135 17 102 rrcurveto
          63 49 79 46 44 hhcurveto
          19 14 -9 -23 hvcurveto
          -39 -75 -293 -33 vvcurveto
          -37 26 -15 37 28 37 11 17 38 vhcurveto
          29 vlineto
          endchar
        </CharString>
        <CharString name="uni02B0">
          -78 34 -42 callgsubr
          -2 1 rlineto
          23 128 16 86 8 -1 callgsubr
          endchar
        </CharString>
        <CharString name="uni02BC">
          -240 197 526 -12 callgsubr
          endchar
        </CharString>
        <CharString name="uni02C9">
          -240 97 660 rmoveto
          -8 -52 rlineto
          217 hlineto
          8 52 rlineto
          endchar
        </CharString>
        <CharString name="uni02E1">
          -278 83 269 rmoveto
          17 29 6 15 41 hvcurveto
          29 -57 vlineto
          44 245 42 218 16 -1 callgsubr
          -57 -308 -26 -131 -22 vvcurveto
          -21 11 -12 26 vhcurveto
          endchar
        </CharString>
        <CharString name="uni02E2">
          -173 192 612 rmoveto
          11 21 -6 -4 11 hvcurveto
          5 -59 rlineto
          29 hlineto
          28 87 rlineto
          15 -30 -33 8 -34 hhcurveto
          -89 -54 -47 -80 -40 18 -30 33 -13 hvcurveto
          62 -23 rlineto
          29 -11 12 -10 -19 vvcurveto
          -47 -31 -22 -49 -22 -16 2 3 -15 vhcurveto
          -7 64 rlineto
          -31 hlineto
          -23 -94 rlineto
          -14 29 43 -4 33 hhcurveto
          96 56 53 84 38 -20 25 -33 14 hvcurveto
          -63 25 rlineto
          -27 11 -13 11 18 vvcurveto
          38 27 27 47 vhcurveto
          endchar
        </CharString>
        <CharString name="uni0302">
          -495 67 650 -94 callgsubr
          endchar
        </CharString>
        <CharString name="uni0304">
          -495 -151 743 -40 callgsubr
          endchar
        </CharString>
        <CharString name="uni0306">
          -495 -44 669 -103 callgsubr
          endchar
        </CharString>
        <CharString name="uni0307">
          -495 25 -61 callgsubr
          endchar
        </CharString>
        <CharString name="uni0308">
          -495 -75 726 -101 callsubr
          endchar
        </CharString>
        <CharString name="uni030A">
          -495 -50 639 -77 callgsubr
          endchar
        </CharString>
        <CharString name="uni030B">
          -495 -177 647 -69 callgsubr
          180 -11 -69 callgsubr
          endchar
        </CharString>
        <CharString name="uni030C">
          -495 -135 804 -86 callsubr
          endchar
        </CharString>
        <CharString name="uni030F">
          -495 -78 544 -66 callsubr
          endchar
        </CharString>
        <CharString name="uni030F.case">
          -495 -79 -71 callgsubr
          endchar
        </CharString>
        <CharString name="uni0311">
          -495 -40 705 -95 callsubr
          endchar
        </CharString>
        <CharString name="uni0311.case">
          -495 -24 791 -95 callsubr
          endchar
        </CharString>
        <CharString name="uni031B">
          -495 -158 529 rmoveto
          -6 -13 rlineto
          3 -13 2 -16 -12 vvcurveto
          -44 -29 -9 -43 vhcurveto
          -31 -43 rlineto
          7 hlineto
          90 88 39 68 15 -4 24 -9 18 hvcurveto
          endchar
        </CharString>
        <CharString name="uni0326">
          -495 -239 -221 -70 callgsubr
        </CharString>
        <CharString name="uni0327">
          -495 -255 -219 rmoveto
          -35 callsubr
          28 52 rlineto
          -31 hlineto
          -39 -74 -76 callgsubr
          endchar
        </CharString>
        <CharString name="uni0328">
          -495 -152 hmoveto
          -34 hlineto
          -83 -60 -32 -61 -44 -14 callgsubr
          64 37 50 0 vhcurveto
          -63 callsubr
          54 43 58 37 33 hvcurveto
          endchar
        </CharString>
        <CharString name="uni0394">
          -16 callsubr
        </CharString>
        <CharString name="uni03A9">
          -55 callgsubr
        </CharString>
        <CharString name="uni03BC">
          -59 callgsubr
        </CharString>
        <CharString name="uni1E0C">
          127 -11 hmoveto
          -83 callgsubr
          -9 -82 -100 callgsubr
        </CharString>
        <CharString name="uni1E0D">
          17 -88 callsubr
          46 61 -72 callsubr
          4 -94 -100 callgsubr
        </CharString>
        <CharString name="uni1E24">
          165 -11 hmoveto
          -68 callgsubr
          268 -74 -100 callgsubr
        </CharString>
        <CharString name="uni1E25">
          56 45 -9 -73 callgsubr
          20 103 40 204 12 vvcurveto
          14 -5 10 -13 -30 -63 -15 -21 -56 vhcurveto
          4 -22 75 -10 rlineto
          34 -700 -100 callgsubr
        </CharString>
        <CharString name="uni1E44">
          181 491 -61 callgsubr
          5 -114 -93 callsubr
          endchar
        </CharString>
        <CharString name="uni1E45">
          70 359 580 -58 callsubr
          -142 -195 -96 callgsubr
          endchar
        </CharString>
        <CharString name="uni1E5A">
          49 366 -53 callgsubr
          -68 -360 -100 callgsubr
        </CharString>
        <CharString name="uni1E5B">
          -38 callsubr
          -60 -478 -100 callgsubr
        </CharString>
        <CharString name="uni1E62">
          -21 159 -57 callsubr
          11 -30 -100 callgsubr
        </CharString>
        <CharString name="uni1E63">
          -103 244 457 -93 callgsubr
          -115 -498 -100 callgsubr
        </CharString>
        <CharString name="uni1E6C">
          5 79 611 -64 callgsubr
          -361 -652 -100 callgsubr
        </CharString>
        <CharString name="uni1E6D">
          -159 231 439 rmoveto
          -61 callsubr
          -27 11 -16 35 14 callsubr
          vhcurveto
          31 -105 vlineto
          -52 -91 -100 callgsubr
        </CharString>
        <CharString name="uni1E92">
          17 448 147 -85 callsubr
          -221 -41 -100 callgsubr
        </CharString>
        <CharString name="uni1E93">
          -103 261 -40 -94 callsubr
          -132 -1 -100 callgsubr
        </CharString>
        <CharString name="uni1E9E">
          81 330 -11 rmoveto
          126 90 91 98 66 -40 61 -101 19 hvcurveto
          163 208 1 32 rlineto
          23 -28 -64 39 -104 hhcurveto
          -131 -94 -62 -181 -35 hvcurveto
          -64 -330 -93 -20 -7 -33 rlineto
          244 hlineto
          7 37 -68 16 69 359 rlineto
          121 23 52 44 94 hhcurveto
          59 36 -17 -16 20 hvcurveto
          -185 -238 11 -33 rlineto
          118 32 -50 -55 -67 -46 -63 -73 -23 -14 6 6 -7 hvcurveto
          -2 88 rlineto
          -37 hlineto
          -37 -118 rlineto
          -21 27 39 -10 42 hhcurveto
          endchar
        </CharString>
        <CharString name="uni1EA0">
          55 356 223 -103 callsubr
          -142 -307 -100 callgsubr
        </CharString>
        <CharString name="uni1EA1">
          18 408 202 -107 callgsubr
          7 -94 -100 callgsubr
        </CharString>
        <CharString name="uni1EA2">
          55 349 676 -104 callgsubr
          6 -463 -103 callsubr
          endchar
        </CharString>
        <CharString name="uni1EA3">
          18 308 558 -104 callgsubr
          99 -366 -107 callgsubr
          endchar
        </CharString>
        <CharString name="uni1EA4">
          55 468 701 -45 callgsubr
          -7 -63 -94 callgsubr
          11 -512 -103 callsubr
          endchar
        </CharString>
        <CharString name="uni1EA5">
          18 455 606 -45 callgsubr
          -17 -66 -89 callsubr
          75 -436 -107 callgsubr
          endchar
        </CharString>
        <CharString name="uni1EA6">
          55 484 699 -36 callsubr
          60 -224 -94 callgsubr
          11 -512 -103 callsubr
          endchar
        </CharString>
        <CharString name="uni1EA7">
          18 471 604 -36 callsubr
          50 -227 -89 callsubr
          75 -436 -107 callgsubr
          endchar
        </CharString>
        <CharString name="uni1EA8">
          55 467 764 -104 callgsubr
          -4 -124 -94 callgsubr
          -14 -512 -103 callsubr
          endchar
        </CharString>
        <CharString name="uni1EA9">
          18 419 669 -104 callgsubr
          -4 -127 -89 callsubr
          75 -436 -107 callgsubr
          endchar
        </CharString>
        <CharString name="uni1EAA">
          55 548 908 -86 callgsubr
          -14 -512 -103 callsubr
          endchar
        </CharString>
        <CharString name="uni1EAB">
          18 507 790 -86 callgsubr
          79 -415 -107 callgsubr
          endchar
        </CharString>
        <CharString name="uni1EAC">
          55 464 650 -94 callgsubr
          -14 -512 -103 callsubr
          -142 -307 -100 callgsubr
        </CharString>
        <CharString name="uni1EAD">
          18 416 -78 callsubr
          75 -436 -107 callgsubr
          7 -94 -100 callgsubr
        </CharString>
        <CharString name="uni1EAE">
          55 339 780 -98 callsubr
          36 -130 -73 callsubr
          -446 -103 callsubr
          endchar
        </CharString>
        <CharString name="uni1EAF">
          18 298 662 -98 callsubr
          36 -130 -103 callgsubr
          90 -349 -107 callgsubr
          endchar
        </CharString>
        <CharString name="uni1EB0">
          55 432 780 -80 callgsubr
          141 -214 -73 callsubr
          -446 -103 callsubr
          endchar
        </CharString>
        <CharString name="uni1EB1">
          18 391 662 -80 callgsubr
          141 -214 -103 callgsubr
          90 -349 -107 callgsubr
          endchar
        </CharString>
        <CharString name="uni1EB2">
          55 374 805 -104 callgsubr
          -16 -146 -73 callsubr
          -446 -103 callsubr
          endchar
        </CharString>
        <CharString name="uni1EB3">
          18 333 687 -104 callgsubr
          -16 -146 -103 callgsubr
          90 -349 -107 callgsubr
          endchar
        </CharString>
        <CharString name="uni1EB4">
          55 544 894 -98 callgsubr
          -185 -225 -73 callsubr
          -446 -103 callsubr
          endchar
        </CharString>
        <CharString name="uni1EB5">
          18 503 776 -98 callgsubr
          -185 -225 -103 callgsubr
          90 -349 -107 callgsubr
          endchar
        </CharString>
        <CharString name="uni1EB6">
          55 359 669 -73 callsubr
          -446 -103 callsubr
          -142 -307 -100 callgsubr
        </CharString>
        <CharString name="uni1EB7">
          18 324 581 -103 callgsubr
          84 -379 -107 callgsubr
          7 -94 -100 callgsubr
        </CharString>
        <CharString name="uni1EB8">
          33 388 389 -105 callgsubr
          -225 -430 -100 callgsubr
        </CharString>
        <CharString name="uni1EB9">
          -89 310 505 -106 callsubr
          -152 -498 -100 callgsubr
        </CharString>
        <CharString name="uni1EBA">
          33 338 676 -104 callgsubr
          49 -297 -105 callgsubr
          endchar
        </CharString>
        <CharString name="uni1EBB">
          -89 254 558 -104 callgsubr
          55 -63 -106 callsubr
          endchar
        </CharString>
        <CharString name="uni1EBC">
          44 508 765 -98 callgsubr
          -113 -376 -105 callgsubr
          endchar
        </CharString>
        <CharString name="uni1EBD">
          -89 439 677 rmoveto
          -84 callsubr
          33 75 -20 callgsubr
          7 callsubr
          -129 -172 -106 callsubr
          endchar
        </CharString>
        <CharString name="uni1EBE">
          33 457 701 -45 callgsubr
          -7 -63 -94 callgsubr
          54 -346 -105 callgsubr
          endchar
        </CharString>
        <CharString name="uni1EBF">
          -89 401 606 -45 callgsubr
          -17 -66 -89 callsubr
          31 -133 -106 callsubr
          endchar
        </CharString>
        <CharString name="uni1EC0">
          33 473 699 -36 callsubr
          60 -224 -94 callgsubr
          54 -346 -105 callgsubr
          endchar
        </CharString>
        <CharString name="uni1EC1">
          -89 417 604 -36 callsubr
          50 -227 -89 callsubr
          31 -133 -106 callsubr
          endchar
        </CharString>
        <CharString name="uni1EC2">
          33 456 764 -104 callgsubr
          -4 -124 -94 callgsubr
          29 -346 -105 callgsubr
          endchar
        </CharString>
        <CharString name="uni1EC3">
          -89 365 669 -104 callgsubr
          -4 -127 -89 callsubr
          31 -133 -106 callsubr
          endchar
        </CharString>
        <CharString name="uni1EC4">
          33 537 908 -86 callgsubr
          29 -346 -105 callgsubr
          endchar
        </CharString>
        <CharString name="uni1EC5">
          -89 453 790 -86 callgsubr
          35 -112 -106 callsubr
          endchar
        </CharString>
        <CharString name="uni1EC6">
          33 453 650 -94 callgsubr
          29 -346 -105 callgsubr
          -225 -430 -100 callgsubr
        </CharString>
        <CharString name="uni1EC7">
          -89 362 -78 callsubr
          31 -133 -106 callsubr
          -152 -498 -100 callgsubr
        </CharString>
        <CharString name="uni1EC8">
          -167 238 676 -104 callgsubr
          -250 -686 rmoveto
          13 callsubr
          98 505 -92 callgsubr
          rlineto
          endchar
        </CharString>
        <CharString name="uni1EC9">
          -203 197 558 -104 callgsubr
          29 -85 -92 callsubr
          endchar
        </CharString>
        <CharString name="uni1ECA">
          -167 -11 hmoveto
          13 callsubr
          98 505 -92 callgsubr
          rlineto
          102 -74 -100 callgsubr
        </CharString>
        <CharString name="uni1ECB">
          -206 209 -58 callgsubr
          25 -33 callsubr
          -85 vlineto
          29 151 59 269 14 vvcurveto
          -147 -524 -100 callgsubr
        </CharString>
        <CharString name="uni1ECC">
          262 -9 -105 callsubr
          -28 -80 -100 callgsubr
        </CharString>
        <CharString name="uni1ECD">
          2 313 505 -104 callsubr
          -20 -81 -100 callgsubr
        </CharString>
        <CharString name="uni1ECE">
          384 676 -104 callgsubr
          -123 -695 -105 callsubr
          endchar
        </CharString>
        <CharString name="uni1ECF">
          2 300 558 -104 callgsubr
          12 -63 -102 callgsubr
        </CharString>
        <CharString name="uni1ED0">
          503 701 -45 callgsubr
          -7 -63 -94 callgsubr
          -118 -744 -105 callsubr
          endchar
        </CharString>
        <CharString name="uni1ED1">
          2 447 606 -45 callgsubr
          -17 -66 -82 callsubr
          endchar
        </CharString>
        <CharString name="uni1ED2">
          519 699 -36 callsubr
          60 -224 -94 callgsubr
          -118 -744 -105 callsubr
          endchar
        </CharString>
        <CharString name="uni1ED3">
          2 463 604 -36 callsubr
          50 -227 -82 callsubr
          endchar
        </CharString>
        <CharString name="uni1ED4">
          502 764 -104 callgsubr
          -4 -124 -94 callgsubr
          -143 -744 -105 callsubr
          endchar
        </CharString>
        <CharString name="uni1ED5">
          2 411 669 -104 callgsubr
          -4 -127 -82 callsubr
          endchar
        </CharString>
        <CharString name="uni1ED6">
          583 908 -86 callgsubr
          -143 -744 -105 callsubr
          endchar
        </CharString>
        <CharString name="uni1ED7">
          2 499 790 -86 callgsubr
          -8 -112 -102 callgsubr
        </CharString>
        <CharString name="uni1ED8">
          499 650 -94 callgsubr
          -143 -744 -105 callsubr
          -28 -80 -100 callgsubr
        </CharString>
        <CharString name="uni1ED9">
          2 408 552 -82 callsubr
          -20 -81 -100 callgsubr
        </CharString>
        <CharString name="uni1EDA">
          563 754 -15 callsubr
          337 -17 -90 callgsubr
        </CharString>
        <CharString name="uni1EDB">
          2 447 660 -15 callsubr
          362 -69 -90 callsubr
        </CharString>
        <CharString name="uni1EDC">
          458 670 -23 callgsubr
          244 -17 -90 callgsubr
        </CharString>
        <CharString name="uni1EDD">
          2 402 576 -23 callgsubr
          209 -69 -90 callsubr
        </CharString>
        <CharString name="uni1EDE">
          400 774 -69 callsubr
          300 -108 -90 callgsubr
        </CharString>
        <CharString name="uni1EDF">
          2 319 655 -69 callsubr
          290 -135 -90 callsubr
        </CharString>
        <CharString name="uni1EE0">
          327 -27 callgsubr
          359 -76 -90 callgsubr
        </CharString>
        <CharString name="uni1EE1">
          2 259 623 -25 callgsubr
          336 -135 -90 callsubr
        </CharString>
        <CharString name="uni1EE2">
          686 634 rmoveto
          -89 callgsubr
          -39 -22 -11 -35 -3 vhcurveto
          35 -35 -53 21 -74 hhcurveto
          -222 -121 -200 -211 -129 63 -95 157 224 117 201 214 49 -9 44 -20 35 hvcurveto
          63 14 49 35 51 vvcurveto
          -415 -595 rmoveto
          -104 -35 75 103 94 44 267 197 110 32 -79 -98 -144 -64 -218 -180 hvcurveto
          -28 -80 -100 callgsubr
        </CharString>
        <CharString name="uni1EE3">
          2 595 488 rmoveto
          -89 callgsubr
          -40 -23 -11 -37 -2 vhcurveto
          54 -19 -46 27 -75 hhcurveto
          -162 -118 -133 -229 -100 47 -52 103 -70 callsubr
          10 -1 10 -1 9 hvcurveto
          72 11 61 37 56 vvcurveto
          -393 -448 rmoveto
          -63 -20 39 59 131 47 186 130 63 19 -39 -59 -131 -47 -186 -129 hvcurveto
          -20 -81 -100 callgsubr
        </CharString>
        <CharString name="uni1EE4">
          115 507 236 rmoveto
          -48 callsubr
          186 48 157 89 17 vhcurveto
          -269 -277 -100 callgsubr
        </CharString>
        <CharString name="uni1EE5">
          67 146 -8 -107 callsubr
          68 -33 -100 callgsubr
        </CharString>
        <CharString name="uni1EE6">
          115 379 676 -104 callgsubr
          127 -450 rmoveto
          -48 callsubr
          186 48 157 89 17 vhcurveto
          endchar
        </CharString>
        <CharString name="uni1EE7">
          67 332 558 -104 callgsubr
          -187 -576 -107 callsubr
          endchar
        </CharString>
        <CharString name="uni1EE8">
          115 558 754 -15 callsubr
          368 24 rmoveto
          -52 callgsubr
          -29 -9 -43 vhcurveto
          -116 -106 callgsubr
          64 327 47 17 rlineto
          54 17 40 32 46 vvcurveto
          endchar
        </CharString>
        <CharString name="uni1EE9">
          67 476 661 -15 callsubr
          182 -356 -99 callsubr
          endchar
        </CharString>
        <CharString name="uni1EEA">
          115 453 670 -23 callgsubr
          275 24 rmoveto
          -52 callgsubr
          -29 -9 -43 vhcurveto
          -116 -106 callgsubr
          64 327 47 17 rlineto
          54 17 40 32 46 vvcurveto
          endchar
        </CharString>
        <CharString name="uni1EEB">
          67 431 577 -23 callgsubr
          29 -356 -99 callsubr
          endchar
        </CharString>
        <CharString name="uni1EEC">
          115 395 774 -69 callsubr
          331 -67 rmoveto
          -52 callgsubr
          -29 -9 -43 vhcurveto
          -116 -106 callgsubr
          64 327 47 17 rlineto
          54 17 40 32 46 vvcurveto
          endchar
        </CharString>
        <CharString name="uni1EED">
          67 348 656 -69 callsubr
          110 -422 -99 callsubr
          endchar
        </CharString>
        <CharString name="uni1EEE">
          115 322 -27 callgsubr
          390 -35 rmoveto
          -52 callgsubr
          -29 -9 -43 vhcurveto
          -116 -106 callgsubr
          64 327 47 17 rlineto
          54 17 40 32 46 vvcurveto
          endchar
        </CharString>
        <CharString name="uni1EEF">
          67 288 624 -25 callgsubr
          156 -422 -99 callsubr
          endchar
        </CharString>
        <CharString name="uni1EF0">
          115 712 675 rmoveto
          -52 callgsubr
          -29 -9 -43 vhcurveto
          -116 -106 callgsubr
          64 327 47 17 rlineto
          54 17 40 32 46 vvcurveto
          -474 -716 -100 callgsubr
        </CharString>
        <CharString name="uni1EF1">
          67 444 202 -99 callsubr
          -230 -243 -100 callgsubr
        </CharString>
        <CharString name="uni1EF4">
          45 397 578 -91 callsubr
          -200 -652 -100 callgsubr
        </CharString>
        <CharString name="uni1EF5">
          -46 67 -178 -100 callsubr
          172 -24 -100 callgsubr
        </CharString>
        <CharString name="uni1EF6">
          45 344 676 -104 callgsubr
          52 -108 -91 callsubr
          endchar
        </CharString>
        <CharString name="uni1EF7">
          -46 276 558 -104 callgsubr
          -210 -746 -100 callsubr
          endchar
        </CharString>
        <CharString name="uni1EF8">
          62 523 765 -98 callgsubr
          -116 -187 -91 callsubr
          endchar
        </CharString>
        <CharString name="uni1EF8.loclGUA">
          145 475 -51 callsubr
          -250 -837 -102 callsubr
        </CharString>
        <CharString name="uni1EF9">
          -28 343 584 rmoveto
          -19 callsubr
          33 75 -20 callgsubr
          -257 -762 -100 callsubr
          endchar
        </CharString>
        <CharString name="uni1EF9.loclGUA">
          49 418 584 rmoveto
          -19 callsubr
          33 75 -20 callgsubr
          -252 -751 -99 callgsubr
        </CharString>
        <CharString name="uni2070">
          -94 157 269 rmoveto
          112 102 109 199 105 -55 37 -72 -141 -73 -154 -154 -103 55 -39 72 hvcurveto
          14 69 rmoveto
          -44 -49 19 82 101 46 111 108 43 48 -18 -81 -155 -86 -59 -66 hvcurveto
          endchar
        </CharString>
        <CharString name="uni2074">
          -94 215 278 rmoveto
          70 hlineto
          19 96 rlineto
          60 hlineto
          9 48 rlineto
          -60 hlineto
          56 285 -55 6 -287 -306 4 -33 rlineto
          203 hlineto
          -136 48 rmoveto
          183 194 -38 -194 rlineto
          endchar
        </CharString>
        <CharString name="uni2075">
          -94 374 706 rmoveto
          -226 hlineto
          -54 -188 13 -15 rlineto
          103 55 -19 -58 -69 -57 -44 -70 -24 -29 5 16 -40 hvcurveto
          -18 -39 rlineto
          -16 32 46 -9 47 hhcurveto
          115 75 68 97 51 -33 55 -158 3 hvcurveto
          32 116 rlineto
          182 hlineto
          endchar
        </CharString>
        <CharString name="uni2076">
          -94 153 269 rmoveto
          180 18 150 30 50 -28 42 -80 -45 -39 -12 -25 -35 hvcurveto
          115 30 88 57 69 hhcurveto
          10 17 -2 -2 20 hvcurveto
          12 36 rlineto
          5 -20 -21 3 -21 hhcurveto
          -85 -145 -58 -210 -41 hvcurveto
          -5 -23 -2 -30 callsubr
          46 27 39 hhcurveto
          42 13 -24 -34 -69 -36 -61 -78 hvcurveto
          endchar
        </CharString>
        <CharString name="uni2077">
          -94 154 272 rmoveto
          242 396 -8 callsubr
        </CharString>
        <CharString name="uni2078">
          -94 154 269 rmoveto
          108 73 63 84 50 -41 22 -43 23 hvcurveto
          100 39 17 55 34 15 callgsubr
          -112 -52 -63 -71 -40 22 -24 -39 callsubr
          -38 93 vhcurveto
          64 261 rmoveto
          -38 21 -23 24 30 vvcurveto
          42 37 31 50 37 17 -21 -29 -45 -29 -29 -51 -24 vhcurveto
          -58 -222 rmoveto
          -36 -26 12 39 54 37 42 39 21 hvcurveto
          12 -5 rlineto
          37 -18 33 -24 -38 vvcurveto
          -56 -48 -27 -48 vhcurveto
          endchar
        </CharString>
        <CharString name="uni2079">
          -94 25 289 rmoveto
          -14 30 34 -7 44 hhcurveto
          86 110 44 200 39 hvcurveto
          5 24 3 25 24 vvcurveto
          71 -28 59 -94 -168 -19 -141 -33 -57 35 -44 70 31 38 9 19 44 vhcurveto
          -110 -26 -61 -46 -72 hhcurveto
          -24 -28 6 10 -31 hvcurveto
          157 157 rmoveto
          -34 -25 18 45 68 43 58 61 43 17 -25 -49 -22 -3 13 callgsubr
          -15 -30 hhcurveto
          endchar
        </CharString>
        <CharString name="uni207D">
          -245 150 168 rmoveto
          4 callsubr
          28 146 22 111 109 45 -7 25 rcurveline
          -151 -40 -24 -77 3 callsubr
          endchar
        </CharString>
        <CharString name="uni207E">
          -245 -19 168 rmoveto
          152 41 23 77 41 211 rrcurveto
          15 79 11 60 46 vvcurveto
          77 -30 40 -85 25 vhcurveto
          -15 -25 rlineto
          49 -24 16 -44 -58 vvcurveto
          -50 -11 -59 -13 -67 vhcurveto
          -29 -149 -22 -111 -108 -45 rrcurveto
          endchar
        </CharString>
        <CharString name="uni207F">
          -73 39 -42 callgsubr
          4 19 5 29 7 vvcurveto
          13 -5 9 -13 -20 -48 -11 -15 -43 vhcurveto
          3 -25 53 -6 rlineto
          endchar
        </CharString>
        <CharString name="uni2080">
          -94 158 -119 11 callsubr
          25 vvcurveto
          103 -52 36 -72 -90 -85 -58 10 callsubr
          -24 vvcurveto
          -105 54 -39 74 vhcurveto
          13 69 rmoveto
          -45 -48 20 81 15 2 18 4 20 hvcurveto
          133 26 69 26 53 hhcurveto
          43 48 -18 -82 -15 -1 -18 -4 -20 hvcurveto
          -130 -26 -70 -30 -51 hhcurveto
          endchar
        </CharString>
        <CharString name="uni2081">
          -131 94 262 rmoveto
          113 hlineto
          -72 -373 0 callgsubr
        </CharString>
        <CharString name="uni2082">
          -94 238 283 rmoveto
          42 22 -23 -34 hvcurveto
          -1 -58 -42 -48 -61 -50 -175 -143 rcurveline
          -38 300 vlineto
          29 102 -32 2 -39 -30 callgsubr
          -39 vhcurveto
          10 -35 rlineto
          17 42 37 10 39 hhcurveto
          endchar
        </CharString>
        <CharString name="uni2083">
          -94 264 328 rmoveto
          -50 -54 -18 -20 -39 hvcurveto
          9 -36 rlineto
          19 40 36 9 24 hhcurveto
          41 19 -17 -28 -51 -42 -45 -89 -11 hvcurveto
          -4 -33 rlineto
          54 59 -7 -58 -73 -56 -35 -66 -26 -29 5 15 -41 hvcurveto
          -17 -38 rlineto
          -15 33 44 -9 47 hhcurveto
          107 81 50 101 48 -32 32 -55 10 hvcurveto
          54 21 56 44 64 vvcurveto
          51 -46 25 -58 vhcurveto
          endchar
        </CharString>
        <CharString name="uni2084">
          -94 216 -111 rmoveto
          70 hlineto
          18 95 rlineto
          60 hlineto
          9 47 rlineto
          -60 hlineto
          56 287 -55 5 -287 -305 4 -34 rlineto
          203 hlineto
          -136 47 rmoveto
          183 195 -38 -195 rlineto
          endchar
        </CharString>
        <CharString name="uni2085">
          -94 375 330 rmoveto
          -228 hlineto
          -54 -200 12 -17 rlineto
          103 55 -18 -57 -70 -56 -44 -70 -24 -30 5 15 -40 hvcurveto
          -17 -38 rlineto
          -15 32 45 -10 47 hhcurveto
          116 74 70 96 51 -33 54 -158 2 hvcurveto
          33 117 rlineto
          182 hlineto
          endchar
        </CharString>
        <CharString name="uni2086">
          -94 153 -120 11 callgsubr
          -39 -12 -24 -35 3 callgsubr
          5 -20 -21 4 -21 hhcurveto
          -85 -145 -59 -210 -41 hvcurveto
          -5 -23 -2 -30 callsubr
          47 27 39 hhcurveto
          41 13 -23 -33 -70 -35 -62 -79 hvcurveto
          endchar
        </CharString>
        <CharString name="uni2087">
          -94 144 -118 rmoveto
          242 397 -4 38 rlineto
          -295 hlineto
          -13 -99 rlineto
          34 hlineto
          27 53 rlineto
          186 hlineto
          -251 -381 rlineto
          endchar
        </CharString>
        <CharString name="uni2088">
          -94 154 -120 rmoveto
          106 76 62 84 51 -41 23 -44 22 hvcurveto
          100 40 17 54 34 vvcurveto
          45 -37 33 -79 -112 -52 -65 -70 -40 22 -24 34 -21 vhcurveto
          -69 -31 -42 -50 -66 vvcurveto
          -43 29 -38 92 vhcurveto
          64 261 rmoveto
          -37 20 -23 25 29 vvcurveto
          43 36 31 51 36 17 -20 -30 -43 -28 -30 -52 -25 vhcurveto
          -58 -222 rmoveto
          -36 -26 13 38 55 38 41 38 22 hvcurveto
          12 -6 rlineto
          37 -18 33 -23 -38 vvcurveto
          -57 -48 -27 -48 vhcurveto
          endchar
        </CharString>
        <CharString name="uni2089">
          -94 25 -99 rmoveto
          -13 31 33 -8 44 hhcurveto
          86 111 44 200 38 hvcurveto
          5 24 3 26 23 vvcurveto
          71 -28 60 -94 -166 -21 -138 -36 -58 36 -44 70 31 37 9 19 44 vhcurveto
          -110 -25 -61 -46 -72 hhcurveto
          -24 -29 6 16 callgsubr
          17 45 69 43 58 61 43 18 -26 -49 -22 -4 13 callgsubr
          -14 -30 hhcurveto
          endchar
        </CharString>
        <CharString name="uni208D">
          -205 110 102 rmoveto
          28 146 22 112 109 44 -6 27 rcurveline
          -152 -41 -24 -78 3 callsubr
          4 callsubr
          endchar
        </CharString>
        <CharString name="uni208E">
          -205 179 102 rmoveto
          -29 -149 -22 -111 -107 -45 6 -24 rcurveline
          150 41 24 77 41 211 rrcurveto
          15 78 11 61 46 vvcurveto
          78 -30 40 -84 26 vhcurveto
          -16 -27 rlineto
          49 -24 16 -44 -58 vvcurveto
          -49 -11 -60 -13 -67 vhcurveto
          endchar
        </CharString>
        <CharString name="uni20B2">
          56 301 306 rmoveto
          -6 -34 80 -20 -35 -178 rlineto
          -14 -28 -32 -5 -25 hhcurveto
          -104 -26 86 82 92 32 241 195 28 37 -5 -6 22 hvcurveto
          4 -97 rlineto
          35 hlineto
          39 127 -36 20 -67 9 -48 1 rlinecurve
          17 88 rlineto
          -48 hlineto
          -17 -90 rlineto
          -193 -21 -90 -178 -176 vvcurveto
          -115 38 -85 118 -18 vhcurveto
          -20 -100 rlineto
          48 hlineto
          19 97 rlineto
          2 hlineto
          63 63 15 27 48 hvcurveto
          39 203 71 20 6 34 rlineto
          endchar
        </CharString>
        <CharString name="uni20BA">
          -3 86 346 rmoveto
          -9 -45 96 34 -13 -66 -96 -34 -9 -46 96 35 -33 -171 -89 -64 callsubr
          120 hlineto
          193 124 146 160 35 hvcurveto
          -48 hlineto
          -120 -23 -111 -124 -117 hhcurveto
          37 191 137 50 9 45 -137 -49 12 66 139 50 8 45 -138 -50 29 148 -41 callgsubr
          -246 -68 callsubr
          81 -20 -35 -178 rlineto
          endchar
        </CharString>
        <CharString name="uni20BD">
          -3 90 297 rmoveto
          -7 -38 rlineto
          84 hlineto
          -12 -62 rlineto
          -84 hlineto
          -8 -38 rlineto
          84 hlineto
          -20 -106 -89 -64 callsubr
          261 hlineto
          6 34 -94 19 20 106 rlineto
          163 hlineto
          8 38 rlineto
          -163 hlineto
          12 62 rlineto
          63 hlineto
          108 120 67 159 85 -61 41 -110 hvcurveto
          -215 hlineto
          -7 -35 81 -22 -50 -257 rlineto
          78 hmoveto
          51 262 rlineto
          8 21 14 2 20 hhcurveto
          64 29 -26 -59 -170 -99 -17 -78 hvcurveto
          endchar
        </CharString>
        <CharString name="uni2113">
          -95 198 46 rmoveto
          -33 -14 20 41 19 4 24 5 28 hvcurveto
          11 61 rlineto
          82 52 158 131 176 vvcurveto
          46 -24 35 -67 -124 -44 -129 -142 -27 vhcurveto
          -31 -160 -82 -54 15 -36 55 28 -14 -75 rlineto
          -3 -17 -2 -15 -13 vvcurveto
          -51 25 -26 59 85 77 44 0 vhcurveto
          -1 31 rlineto
          -1 -1 -74 -17 -35 hhcurveto
          13 397 rmoveto
          129 25 18 54 52 hhcurveto
          29 11 -15 -28 -126 -87 -96 -75 -59 hvcurveto
          endchar
        </CharString>
        <CharString name="uni2126">
          -55 callgsubr
        </CharString>
        <CharString name="uni2153">
          333 291 -47 callsubr
          -381 -65 -15 callgsubr
          579 -135 -72 callgsubr
        </CharString>
        <CharString name="uni2154">
          445 -46 callsubr
          133 -567 rmoveto
          60 hlineto
          198 611 rlineto
          -61 hlineto
          235 -172 -72 callgsubr
        </CharString>
        <CharString name="uni2196">
          73 465 368 rmoveto
          -355 56 -8 -10 65 -345 rlineto
          39 hlineto
          -20 223 214 -233 66 65 -233 216 232 -11 rlineto
          endchar
        </CharString>
        <CharString name="uni2197">
          73 409 71 rmoveto
          57 355 -9 10 -345 -67 -3 -39 226 19 -233 -213 65 -66 215 233 -12 -232 rlineto
          endchar
        </CharString>
        <CharString name="uni2198">
          73 335 157 rmoveto
          -226 17 3 -38 345 -66 9 10 -57 354 rlineto
          -39 hlineto
          12 -232 -215 234 -65 -67 rlineto
          endchar
        </CharString>
        <CharString name="uni2199">
          73 186 191 rmoveto
          20 223 rlineto
          -39 hlineto
          -65 -345 8 -10 355 57 rlineto
          38 vlineto
          -232 -11 233 215 -66 66 rlineto
          endchar
        </CharString>
        <CharString name="uni2206">
          -16 callsubr
        </CharString>
        <CharString name="uni2215">
          -153 22 -68 rmoveto
          60 hlineto
          239 737 rlineto
          -61 hlineto
          endchar
        </CharString>
        <CharString name="uni2219">
          -309 151 252 rmoveto
          34 -24 23 -34 -31 -26 -23 -34 -32 26 -26 31 34 24 26 32 vhcurveto
          endchar
        </CharString>
        <CharString name="uniA78B">
          -408 48 281 rmoveto
          110 314 -11 16 rlineto
          -72 hlineto
          -58 -324 rlineto
          endchar
        </CharString>
        <CharString name="uniA78C">
          -370 85 354 rmoveto
          117 332 -11 16 -80 -18 -57 -324 rlineto
          endchar
        </CharString>
        <CharString name="uniF6E9">
          -98 317 -54 callgsubr
        </CharString>
        <CharString name="uniF6EA">
          -107 152 269 rmoveto
          164 46 161 119 80 -34 24 -46 -35 -59 -25 -42 -34 hvcurveto
          26 126 rlineto
          13 66 2 8 12 vvcurveto
          11 -5 8 -13 -23 -47 -12 -15 -44 vhcurveto
          5 -24 54 -6 -91 -464 rlineto
          -9 20 42 -18 59 hhcurveto
          7 42 rmoveto
          -17 -25 8 8 -12 hvcurveto
          15 74 27 128 0 vvcurveto
          31 19 57 42 26 hhcurveto
          24 19 -15 -49 -101 -33 -126 -100 hvcurveto
          endchar
        </CharString>
        <CharString name="uniF6EB">
          -95 107 269 rmoveto
          33 62 23 40 37 hvcurveto
          0 -3 -26 -3 vvcurveto
          -20 10 -14 27 20 23 7 15 43 vhcurveto
          29 -58 vlineto
          0 7 58 9 49 vhcurveto
          22 124 23 123 22 124 rrcurveto
          11 -5 8 -11 -24 -48 -12 -16 -44 vhcurveto
          6 -23 55 -5 -23 -113 rlineto
          3 -14 -16 3 -22 hhcurveto
          -117 -95 -98 -181 -81 34 -25 47 hvcurveto
          34 54 rmoveto
          -26 -18 13 48 102 40 127 94 22 19 -7 -10 11 hvcurveto
          -39 -201 rlineto
          -33 -20 -58 -39 -25 hhcurveto
          endchar
        </CharString>
        <CharString name="uniF6EC">
          -180 233 653 rmoveto
          -148 -59 -125 -135 -86 55 -38 65 33 36 8 19 33 hvcurveto
          -6 30 rlineto
          -9 -27 -18 -3 -14 hhcurveto
          -58 -31 17 64 17 1 18 4 22 hvcurveto
          138 1 77 48 78 vvcurveto
          51 -37 23 -44 vhcurveto
          -15 -41 rmoveto
          22 9 -20 -20 -55 -56 -32 -86 -1 hvcurveto
          82 20 35 46 56 hhcurveto
          endchar
        </CharString>
        <CharString name="uniF6ED">
          -268 167 711 rmoveto
          25 22 20 27 26 -22 19 -25 -27 -21 -19 -26 -27 21 -20 27 hvcurveto
          -79 -442 rmoveto
          19 29 6 16 44 hvcurveto
          29 -59 vlineto
          33 175 rlineto
          10 53 16 76 9 vvcurveto
          14 -5 7 -14 -21 -48 -11 -15 -44 vhcurveto
          3 -25 56 -6 -18 -83 rlineto
          -19 -93 -19 -104 -14 vvcurveto
          -22 9 -12 28 vhcurveto
          endchar
        </CharString>
        <CharString name="uniF6EF">
          80 38 269 rmoveto
          80 11 38 241 rlineto
          35 30 54 41 30 hhcurveto
          11 1 -6 -13 -7 -11 -48 -53 -254 hvcurveto
          78 11 42 245 rlineto
          33 31 50 39 30 hhcurveto
          11 2 -6 -13 -14 -15 -65 -15 -63 hvcurveto
          -14 -57 -12 -54 -13 vvcurveto
          -31 21 -12 29 24 26 8 14 30 vhcurveto
          29 -61 vlineto
          22 96 36 162 26 vvcurveto
          34 -11 15 -29 -42 -61 -34 -41 -41 vhcurveto
          3 12 1 8 6 vvcurveto
          34 -12 15 -29 -41 -67 -36 -42 -38 vhcurveto
          4 19 4 29 7 vvcurveto
          13 -6 9 -9 -22 -47 -11 -15 -44 vhcurveto
          3 -25 53 -6 rlineto
          endchar
        </CharString>
        <CharString name="uniF6F0">
          -118 237 -32 callsubr
        </CharString>
        <CharString name="uniF6F1">
          -202 38 269 rmoveto
          80 11 24 166 45 98 39 41 29 10 rlinecurve
          10 -52 rlineto
          34 hlineto
          25 118 rlineto
          -79 -43 -37 -72 -40 hvcurveto
          4 22 rlineto
          6 27 4 22 11 vvcurveto
          14 -5 6 -13 -21 -48 -11 -15 -44 vhcurveto
          3 -25 55 -5 rlineto
          endchar
        </CharString>
        <CharString name="uniF6F3">
          -236 88 269 rmoveto
          20 40 6 16 45 hvcurveto
          29 -73 vlineto
          55 282 rlineto
          85 48 -77 hlineto
          16 78 rlineto
          -33 hlineto
          -51 -83 -78 -19 6 -24 rlineto
          64 hlineto
          -7 -30 rlineto
          -18 -102 -33 -147 -19 vvcurveto
          -23 10 -12 29 vhcurveto
          endchar
        </CharString>
        <CharString name="uogonek">
          67 406 -236 rmoveto
          64 37 50 0 hvcurveto
          -63 callsubr
          54 52 79 60 32 hvcurveto
          30 -79 vlineto
          1 3 71 81 17 hvcurveto
          63 303 -85 -16 -58 -11 callsubr
          -82 -51 -77 -29 -43 hhcurveto
          -23 -16 13 27 hvcurveto
          36 80 329 22 vvcurveto
          13 -9 9 -19 callgsubr
          -16 -20 -56 vhcurveto
          4 -24 76 -8 rlineto
          -17 -100 -53 -198 -65 callsubr
          -79 callsubr
          11 -16 35 11 12 2 4 15 vhcurveto
          -72 -56 -36 -57 -50 -14 callgsubr
          vhcurveto
          endchar
        </CharString>
        <CharString name="uring">
          67 340 -49 callgsubr
          -198 -579 -107 callsubr
          endchar
        </CharString>
        <CharString name="utilde">
          67 413 584 rmoveto
          -19 callsubr
          33 75 -20 callgsubr
          -265 -592 -107 callsubr
          endchar
        </CharString>
        <CharString name="v">
          -51 92 -9 rmoveto
          85 16 rlineto
          81 53 175 176 229 vvcurveto
          13 -1 14 -3 13 vhcurveto
          -30 -47 -21 callsubr
          -6 2 -10 -15 vvcurveto
          -78 -38 -142 -146 -118 vhcurveto
          1 27 0 28 29 vvcurveto
          173 -10 179 -12 -29 -66 -16 -20 -56 vhcurveto
          4 -24 76 -8 rlineto
          0 14 -93 -173 vvcurveto
          -52 -1 -60 -6 -68 vhcurveto
          endchar
        </CharString>
        <CharString name="w">
          208 91 -9 -95 callgsubr
        </CharString>
        <CharString name="wacute">
          208 333 558 -98 callsubr
          -226 -586 -95 callgsubr
        </CharString>
        <CharString name="wcircumflex">
          208 511 -78 callsubr
          -337 -647 -95 callgsubr
        </CharString>
        <CharString name="wdieresis">
          208 388 638 -101 callsubr
          -492 -647 -95 callgsubr
        </CharString>
        <CharString name="wgrave">
          208 486 558 -80 callgsubr
          -181 -670 -95 callgsubr
        </CharString>
        <CharString name="x">
          -63 37 -25 rmoveto
          151 204 rlineto
          -169 39 9 -17 52 hhcurveto
          34 20 6 21 52 hvcurveto
          30 -93 vlineto
          -52 199 194 221 -48 44 -157 -213 -17 72 rlineto
          86 -20 -11 46 -9 hhcurveto
          -27 -65 -14 -20 -55 hvcurveto
          4 -24 81 -8 7 -2 2 -5 2 -9 rlinecurve
          46 -191 -191 -208 rlineto
          endchar
        </CharString>
        <CharString name="y">
          -46 67 -178 -100 callsubr
          endchar
        </CharString>
        <CharString name="y.loclGUA">
          49 166 -167 -99 callgsubr
        </CharString>
        <CharString name="yacute">
          -28 214 558 -98 callsubr
          -112 -755 -100 callsubr
          endchar
        </CharString>
        <CharString name="yacute.loclGUA">
          49 276 558 -98 callsubr
          -94 -744 -99 callgsubr
        </CharString>
        <CharString name="ycircumflex">
          -28 164 552 rmoveto
          111 86 91 -86 26 19 -77 138 rlineto
          -60 hlineto
          -111 -138 rlineto
          -58 -749 -100 callsubr
          endchar
        </CharString>
        <CharString name="ycircumflex.loclGUA">
          49 226 -3 callgsubr
          -40 -738 -99 callgsubr
        </CharString>
        <CharString name="ydieresis">
          -28 183 583 -81 callgsubr
          -291 -761 -100 callsubr
          endchar
        </CharString>
        <CharString name="ydieresis.loclGUA">
          49 245 583 -81 callgsubr
          -273 -750 -99 callgsubr
        </CharString>
        <CharString name="yen">
          -3 61 329 rmoveto
          115 hlineto
          16 -61 rlineto
          -142 hlineto
          -8 -41 rlineto
          158 hlineto
          -32 -174 -95 -20 -5 -33 rlineto
          258 -37 callgsubr
          -87 20 31 174 rlineto
          158 hlineto
          8 41 rlineto
          -141 hlineto
          38 61 rlineto
          114 hlineto
          7 39 rlineto
          -97 hlineto
          117 190 67 20 7 33 18 callgsubr
          -6 -33 57 -20 -160 -268 -60 268 54 20 7 33 rlineto
          -194 hlineto
          -7 -33 55 -20 48 -190 rlineto
          -99 hlineto
          endchar
        </CharString>
        <CharString name="ygrave">
          -28 366 558 -80 callgsubr
          -66 -839 -100 callsubr
          endchar
        </CharString>
        <CharString name="ygrave.loclGUA">
          49 401 558 -80 callgsubr
          -21 -828 -99 callgsubr
        </CharString>
        <CharString name="z">
          -103 261 -40 -94 callsubr
          endchar
        </CharString>
        <CharString name="zacute">
          -103 164 558 -98 callsubr
          113 -617 -94 callsubr
          endchar
        </CharString>
        <CharString name="zacute.loclPLK">
          -103 214 544 -65 callgsubr
          66 -595 -94 callsubr
          endchar
        </CharString>
        <CharString name="zcaron">
          -103 147 -80 callsubr
          22 -663 -94 callsubr
          endchar
        </CharString>
        <CharString name="zdotaccent">
          -103 236 580 -58 callsubr
          25 -620 -94 callsubr
          endchar
        </CharString>
        <CharString name="zero">
          -3 297 627 rmoveto
          -181 -75 -216 -214 -152 53 -56 104 154 97 182 251 153 -67 52 -85 hvcurveto
          -89 -560 rmoveto
          -55 -50 29 122 174 54 159 126 54 50 -27 -124 -201 -72 -132 -107 hvcurveto
          endchar
        </CharString>
        <CharString name="zero.dnom">
          -94 158 -8 11 callsubr
          24 vvcurveto
          104 -53 36 -72 -90 -84 -58 10 callsubr
          -24 vvcurveto
          -105 55 -39 73 vhcurveto
          13 69 rmoveto
          -45 -48 20 81 16 2 18 4 20 -4 callgsubr
          -30 -51 hhcurveto
          endchar
        </CharString>
        <CharString name="zero.numr">
          -94 158 162 rmoveto
          89 81 57 168 33 hvcurveto
          6 32 3 29 24 vvcurveto
          104 -52 36 -72 -90 -85 -59 10 callsubr
          -23 vvcurveto
          -105 54 -39 74 vhcurveto
          14 68 rmoveto
          -44 -49 19 82 16 2 18 4 21 -4 callgsubr
          -31 -51 hhcurveto
          endchar
        </CharString>
        <CharString name="zero.osf">
          28 206 -11 rmoveto
          166 98 170 170 149 -75 56 -96 -167 -99 -167 -171 -149 76 -58 97 hvcurveto
          7 79 rmoveto
          -57 -58 24 119 113 53 133 138 57 60 -23 -115 -109 -53 -142 -140 hvcurveto
          endchar
        </CharString>
      <CharString index="0">
        rmoveto
        61 314 -31 8 -22 -39 rlineto
        0 -53 15 -44 -174 -111 -133 -225 -116 53 -34 63 47 75 41 61 44 vhcurveto
        -76 callsubr
        27 29 9 19 55 vhcurveto
        -77 callsubr
        -225 -149 rmoveto
        -39 -26 22 69 155 61 153 129 21 28 -9 -14 18 hvcurveto
        -99 -19 -34 -176 -1 hhcurveto
        -43 -28 -72 -58 -38 hhcurveto
        return
      </CharString>
      <CharString index="1">
        -68 callsubr
        77 -19 -62 -11 callsubr
        -115 -22 -45 -81 -115 hhcurveto
        -84 -26 50 71 28 6 37 7 37 hvcurveto
        57 295 83 19 5 33 rlineto
        -236 hlineto
        -5 -33 74 -19 -57 -295 rlineto
        -8 -39 -5 -38 -35 vvcurveto
        -94 40 -68 136 186 48 157 89 17 vhcurveto
        return
      </CharString>
      <CharString index="2">
        rmoveto
        -33 -66 rlineto
        -136 hlineto
        45 236 rlineto
        189 -80 38 hlineto
        25 132 rlineto
        -409 -68 callsubr
        85 -20 -98 -505 -31 callsubr
        432 17 callgsubr
        -203 hlineto
        43 221 -20 callsubr
        hlineto
        10 -69 rlineto
        34 hlineto
        35 181 rlineto
        return
      </CharString>
      <CharString index="3">
        rmoveto
        38 hlineto
        5 21 23 3 22 10 rrcurveto
        17 8 16 13 25 vvcurveto
        30 -30 15 -46 -18 -25 -2 -4 -26 vhcurveto
        -4 -53 rlineto
        30 hlineto
        14 32 rlineto
        8 7 1 5 hhcurveto
        20 10 -8 -14 -40 -62 15 -3 -42 hvcurveto
        return
      </CharString>
      <CharString index="4">
        rmoveto
        92 34 57 59 12 hvcurveto
        -33 hlineto
        -32 -6 -22 -30 -70 hhcurveto
        -58 -12 21 25 -2 hvcurveto
        5 1 6 2 5 vhcurveto
        -34 hlineto
        -2 -9 -3 -11 -9 vvcurveto
        -48 22 -39 79 vhcurveto
        return
      </CharString>
      <CharString index="5">
        -104 callsubr
        endchar
      </CharString>
      <CharString index="6">
        rmoveto
        158 78 80 103 20 hvcurveto
        97 509 -32 8 -22 -35 rlineto
        0 -54 18 -46 -202 -85 -168 -184 -117 54 -25 64 43 68 16 53 45 vhcurveto
        -151 -21 -50 -50 -131 hhcurveto
        -34 -37 6 14 -38 hvcurveto
        -13 -43 rlineto
        -22 49 36 -12 53 hhcurveto
        64 251 rmoveto
        -40 -25 16 74 88 32 205 154 28 29 -9 -14 16 hvcurveto
        -101 -21 -31 -169 -2 hhcurveto
        -67 -27 -74 -23 -39 hhcurveto
        endchar
      </CharString>
      <CharString index="7">
        rmoveto
        -32 -28 -27 -33 -33 28 -24 32 31 29 24 33 -60 callgsubr
        hvcurveto
        endchar
      </CharString>
      <CharString index="8">
        rmoveto
        172 70 144 187 36 hvcurveto
        64 341 -85 -16 -51 -292 rlineto
        -82 -51 -77 -29 -43 hhcurveto
        -23 -16 13 27 hvcurveto
        36 73 299 22 vvcurveto
        13 -9 9 -19 callgsubr
        -16 -20 -56 vhcurveto
        4 -24 76 -8 rlineto
        -17 -100 -46 -168 -65 callsubr
        -198 -40 -59 -42 -86 hhcurveto
        -30 -29 5 9 -25 hvcurveto
        -8 81 rlineto
        -31 hlineto
        -41 -115 rlineto
        -21 50 42 -10 63 hhcurveto
        endchar
      </CharString>
      <CharString index="9">
        rmoveto
        -31 12 rlineto
        0 -20 -35 -23 vhcurveto
        -35 -83 40 -34 hhcurveto
        -33 -22 -44 -52 -21 hvcurveto
        30 -12 rlineto
        0 23 36 22 vhcurveto
        33 85 -20 callgsubr
        -51 callgsubr
        return
      </CharString>
      <CharString index="10">
        rmoveto
        156 90 85 130 60 -37 47 -51 24 hvcurveto
        -79 39 rlineto
        -43 19 -24 23 40 vvcurveto
        84 60 37 84 23 37 -4 -6 17 vhcurveto
        4 -97 rlineto
        35 hlineto
        -14 callsubr
        17 -46 -51 10 -51 hhcurveto
        -153 -72 -83 -114 -72 53 -37 28 -13 hvcurveto
        87 -41 rlineto
        52 -22 13 -37 -36 vvcurveto
        -78 -53 -56 -99 -41 -37 8 6 -19 vhcurveto
        -3 86 rlineto
        -35 hlineto
        -36 -118 rlineto
        -21 45 62 -10 49 hhcurveto
        return
      </CharString>
      <CharString index="11">
        rmoveto
        -74 callgsubr
        -88 -446 95 15 54 325 rlineto
        63 49 79 46 44 hhcurveto
        19 14 -9 -23 hvcurveto
        -39 -75 -293 -33 vvcurveto
        -37 26 -15 37 28 37 11 17 38 vhcurveto
        29 -86 vlineto
        30 132 52 230 34 vvcurveto
        44 -24 18 -37 -59 -99 -53 -68 -62 vhcurveto
        return
      </CharString>
      <CharString index="12">
        rmoveto
        90 16 rlineto
        0 159 137 24 92 vhcurveto
        5 -59 -5 -121 -8 -65 82 16 rcurveline
        117 78 138 183 197 vvcurveto
        13 -2 14 -2 13 vhcurveto
        -30 -46 -21 callsubr
        -11 1 -7 -15 vvcurveto
        -90 -55 -149 -129 -97 vhcurveto
        2 39 1 50 36 vvcurveto
        166 -20 118 -10 26 vhcurveto
        -85 -15 rlineto
        14 -37 12 -47 -36 vvcurveto
        -82 -63 -130 -112 -87 vhcurveto
        2 38 1 48 36 vvcurveto
        174 -16 139 -10 -31 -60 -16 -20 -56 vhcurveto
        4 -24 76 -8 rlineto
        0 14 -104 -185 vvcurveto
        -40 -4 -71 -5 -46 vhcurveto
        endchar
      </CharString>
      <CharString index="13">
        rmoveto
        26 19 -79 135 rlineto
        -60 hlineto
        -139 -135 20 -19 138 85 rlineto
        return
      </CharString>
      <CharString index="14">
        rmoveto
        20 31 -5 -8 15 hvcurveto
        8 -74 rlineto
        29 hlineto
        33 106 rlineto
        20 -39 -47 9 -39 hhcurveto
        -116 -73 -69 -92 -58 35 -33 34 -16 hvcurveto
        76 -35 rlineto
        42 -19 16 -23 -28 vvcurveto
        -66 -45 -27 -69 -37 -23 7 8 -20 vhcurveto
        -7 86 rlineto
        -30 hlineto
        -31 -120 rlineto
        -22 39 54 -7 42 hhcurveto
        128 74 64 102 61 -33 30 -44 21 hvcurveto
        -72 35 rlineto
        -39 19 -20 16 36 vvcurveto
        46 40 36 68 vhcurveto
        return
      </CharString>
      <CharString index="15">
        -41 callgsubr
        -247 -68 callsubr
        80 -20 -98 -505 -88 -20 return
      </CharString>
      <CharString index="16">
        rmoveto
        108 73 62 85 51 -41 22 -43 22 hvcurveto
        99 40 18 53 36 15 callgsubr
        -113 -51 -65 -70 -40 22 -23 -39 callsubr
        -39 93 vhcurveto
        64 261 rmoveto
        -38 21 -23 24 30 vvcurveto
        42 37 31 50 37 17 -21 -29 -43 -28 -30 -52 -25 vhcurveto
        -59 -222 rmoveto
        -36 -25 13 38 55 37 41 39 22 hvcurveto
        12 -6 rlineto
        37 -18 33 -23 -38 vvcurveto
        -57 -49 -27 -48 vhcurveto
        endchar
      </CharString>
      <CharString index="17">
        rmoveto
        -89 callgsubr
        -39 -22 -11 -35 -3 vhcurveto
        35 -35 -53 21 -74 hhcurveto
        -222 -121 -200 -211 -129 63 -95 157 224 117 201 214 49 -9 44 -20 35 hvcurveto
        63 14 49 35 51 vvcurveto
        -415 -595 -57 callgsubr
      </CharString>
      <CharString index="18">
        15 -4 24 -9 18 vhcurveto
        -68 -14 -6 -13 rlineto
        3 -13 2 -16 -12 vvcurveto
        return
      </CharString>
      <CharString index="19">
        rmoveto
        14 115 rlineto
        -34 hlineto
        -40 -84 rlineto
        -11 -36 -31 -4 -25 hhcurveto
        -114 -38 71 107 171 78 190 173 45 27 -4 -8 26 hvcurveto
        -97 33 vlineto
        -14 callsubr
        15 -37 -47 12 -79 hhcurveto
        -212 -132 -196 -219 -128 63 -92 157 71 49 12 20 54 hvcurveto
        endchar
      </CharString>
      <CharString index="20">
        rmoveto
        95 16 35 221 64 141 58 57 42 10 rlinecurve
        12 -72 rlineto
        37 hlineto
        30 149 rlineto
        -110 -57 -62 -122 -57 hvcurveto
        12 72 15 58 24 vvcurveto
        13 -6 9 -12 -30 -64 -15 -20 -55 -32 callgsubr
        -8 rlineto
        return
      </CharString>
      <CharString index="21">
        -78 callgsubr
        -258 -94 callgsubr
        return
      </CharString>
      <CharString index="22">
        15 -7 8 -13 -23 -75 -15 -20 -50 -32 callgsubr
        -7 -76 -438 rlineto
        -87 -15 -39 -25 -63 hhcurveto
        -27 -27 5 6 -22 hvcurveto
        -8 -37 rlineto
        0 45 -29 63 return
      </CharString>
      <CharString index="23">
        rmoveto
        190 hlineto
        9 37 -65 10 87 176 rlineto
        167 hlineto
        23 -175 -62 -12 -5 -36 rlineto
        204 hlineto
        6 35 -62 17 -79 574 -53 -11 -283 -567 -72 -13 rlineto
        237 231 -29 callsubr
      </CharString>
      <CharString index="24">
        262 hlineto
        218 118 204 198 129 -70 80 -158 hvcurveto
        -252 -68 callsubr
        80 -20 -98 -505 10 callgsubr
        97 500 rlineto
        3 17 29 3 39 hhcurveto
        107 48 -58 -105 -146 -63 -214 -183 hvcurveto
        return
      </CharString>
      <CharString index="25">
        rmoveto
        63 -20 -186 -429 -43 441 -55 -11 -190 -427 -45 426 58 -67 callsubr
        -203 -68 callsubr
        64 -20 69 -567 52 11 189 416 49 -427 50 11 250 556 -13 callgsubr
      </CharString>
      <CharString index="26">
        rmoveto
        30 27 25 30 -45 callsubr
        hvcurveto
        194 hmoveto
        30 28 25 30 -44 callsubr
        hvcurveto
        return
      </CharString>
      <CharString index="27">
        rmoveto
        16 19 -154 130 -76 -28 rlineto
        -18 vlineto
        return
      </CharString>
      <CharString index="28">
        28 147 rlineto
        -36 hlineto
        -41 -91 18 callgsubr
        98 502 -71 callsubr
        return
      </CharString>
      <CharString index="29">
        -98 callgsubr
        -84 return
      </CharString>
      <CharString index="30">
        rmoveto
        72 44 51 59 41 -27 30 -57 -74 -43 -50 -61 -40 27 -30 58 hvcurveto
        6 35 rmoveto
        -25 -12 13 24 36 14 38 43 24 12 -13 -26 -34 -13 -38 -43 hvcurveto
        return
      </CharString>
      <CharString index="31">
        1 -9 rlineto
        53 15 -21 -22 -40 -39 -33 -50 -12 -13 1 5 -13 hvcurveto
        -14 -27 rlineto
        -5 16 17 -2 22 hhcurveto
        return
      </CharString>
      <CharString index="32">
        -133 -104 callsubr
        return
      </CharString>
      <CharString index="33">
        5 21 12 61 -10 callgsubr
        10 -13 -31 -63 -28 callgsubr
        75 -8 return
      </CharString>
      <CharString index="34">
        rmoveto
        94 16 54 324 rlineto
        62 49 79 45 43 hhcurveto
        20 13 -8 -24 hvcurveto
        -37 -75 -293 -33 vvcurveto
        -36 26 -16 37 29 35 11 17 39 -13 callsubr
        25 132 56 228 34 vvcurveto
        44 -25 18 -35 -60 -99 -53 -68 -62 vhcurveto
        return
      </CharString>
      <CharString index="35">
        rmoveto
        -50 -55 -18 -20 -39 hvcurveto
        10 -35 rlineto
        18 40 36 9 24 hhcurveto
        41 19 -18 -27 -52 -44 -45 -88 -10 hvcurveto
        -3 -33 rlineto
        54 59 -7 -59 -72 -56 -34 -66 -26 -29 4 16 -41 hvcurveto
        -17 -39 rlineto
        -15 33 44 -9 47 hhcurveto
        108 80 51 100 48 -32 32 -55 10 hvcurveto
        54 21 56 44 65 vvcurveto
        50 -46 25 -58 vhcurveto
        endchar
      </CharString>
      <CharString index="36">
        646 rmoveto
        22 11 -57 151 rlineto
        -75 -17 hlineto
        272 -145 rmoveto
        21 11 -57 151 rlineto
        -75 -17 hlineto
        return
      </CharString>
      <CharString index="37">
        rmoveto
        100 173 -15 17 -75 -16 -35 -167 rlineto
        endchar
      </CharString>
      <CharString index="38">
        rmoveto
        142 144 rlineto
        17 -75 vlineto
        -86 -150 rlineto
        return
      </CharString>
      <CharString index="39">
        235 -37 callgsubr
        -75 20 44 227 rlineto
        267 hlineto
        -44 -227 -82 -64 callsubr
        236 -37 callgsubr
        -76 20 98 506 -2 callgsubr
        -235 8 callgsubr
        -45 -230 rlineto
        -267 hlineto
        45 230 83 19 5 33 rlineto
        -235 hlineto
        -5 -33 74 12 callgsubr
        -82 -20 rlineto
        return
      </CharString>
</ttFont>
